<mxfile host="65bd71144e">
    <diagram id="5jEfxVwqZtwkkLB00oML" name="Page-1">
        <mxGraphModel dx="2060" dy="1178" grid="0" gridSize="10" guides="1" tooltips="1" connect="1" arrows="1" fold="1" page="0" pageScale="1" pageWidth="827" pageHeight="1169" math="0" shadow="0">
            <root>
                <mxCell id="0"/>
                <mxCell id="1" parent="0"/>
                <mxCell id="AhNlXJ4hRKMXUMh4VS_F-2" value="Drag or click these blue arrows to add connectors" style="text;html=1;align=center;verticalAlign=middle;resizable=0;points=[];autosize=1;strokeColor=none;sketch=1;hachureGap=4;pointerEvents=0;fontFamily=Architects Daughter;fontSource=https%3A%2F%2Ffonts.googleapis.com%2Fcss%3Ffamily%3DArchitects%2BDaughter;fontSize=20;" parent="1" vertex="1">
                    <mxGeometry x="-211" y="-103" width="497" height="28" as="geometry"/>
                </mxCell>
                <mxCell id="AhNlXJ4hRKMXUMh4VS_F-3" value="" style="sketch=1;orthogonalLoop=1;jettySize=auto;html=1;endArrow=open;sourcePerimeterSpacing=8;targetPerimeterSpacing=8;fontSize=16;fontFamily=Architects Daughter;fontSource=https%3A%2F%2Ffonts.googleapis.com%2Fcss%3Ffamily%3DArchitects%2BDaughter;startSize=14;endSize=14;curved=1;exitX=1.005;exitY=0.536;exitDx=0;exitDy=0;exitPerimeter=0;entryX=0.5;entryY=0;entryDx=0;entryDy=0;" parent="1" source="AhNlXJ4hRKMXUMh4VS_F-2" target="AhNlXJ4hRKMXUMh4VS_F-34" edge="1">
                    <mxGeometry width="120" relative="1" as="geometry">
                        <mxPoint x="275" y="6" as="sourcePoint"/>
                        <mxPoint x="410" y="22" as="targetPoint"/>
                        <Array as="points">
                            <mxPoint x="418" y="-67"/>
                        </Array>
                    </mxGeometry>
                </mxCell>
                <mxCell id="AhNlXJ4hRKMXUMh4VS_F-4" value="Click here to export and undo" style="text;html=1;align=center;verticalAlign=middle;resizable=0;points=[];autosize=1;strokeColor=none;sketch=1;hachureGap=4;pointerEvents=0;fontFamily=Architects Daughter;fontSource=https%3A%2F%2Ffonts.googleapis.com%2Fcss%3Ffamily%3DArchitects%2BDaughter;fontSize=20;" parent="1" vertex="1">
                    <mxGeometry x="-329" y="-26" width="291" height="28" as="geometry"/>
                </mxCell>
                <mxCell id="AhNlXJ4hRKMXUMh4VS_F-5" value="" style="edgeStyle=none;curved=1;rounded=0;sketch=1;orthogonalLoop=1;jettySize=auto;html=1;endArrow=open;sourcePerimeterSpacing=8;targetPerimeterSpacing=8;fontSize=16;fontFamily=Architects Daughter;fontSource=https%3A%2F%2Ffonts.googleapis.com%2Fcss%3Ffamily%3DArchitects%2BDaughter;startSize=14;endSize=14;exitX=-0.007;exitY=0.5;exitDx=0;exitDy=0;exitPerimeter=0;" parent="1" source="AhNlXJ4hRKMXUMh4VS_F-4" edge="1">
                    <mxGeometry width="120" relative="1" as="geometry">
                        <mxPoint x="140" y="279" as="sourcePoint"/>
                        <mxPoint x="-519" y="-115" as="targetPoint"/>
                        <Array as="points">
                            <mxPoint x="-477" y="-7"/>
                        </Array>
                    </mxGeometry>
                </mxCell>
                <mxCell id="AhNlXJ4hRKMXUMh4VS_F-10" style="edgeStyle=none;curved=1;sketch=1;orthogonalLoop=1;jettySize=auto;html=1;fontFamily=Architects Daughter;fontSource=https%3A%2F%2Ffonts.googleapis.com%2Fcss%3Ffamily%3DArchitects%2BDaughter;fontSize=20;endArrow=open;startSize=14;endSize=14;sourcePerimeterSpacing=8;targetPerimeterSpacing=8;exitX=0;exitY=0.5;exitDx=0;exitDy=0;exitPerimeter=0;" parent="1" source="AhNlXJ4hRKMXUMh4VS_F-6" edge="1">
                    <mxGeometry relative="1" as="geometry">
                        <mxPoint x="-326" y="121" as="sourcePoint"/>
                        <mxPoint x="-511" y="131" as="targetPoint"/>
                        <Array as="points">
                            <mxPoint x="-417" y="83"/>
                        </Array>
                    </mxGeometry>
                </mxCell>
                <mxCell id="AhNlXJ4hRKMXUMh4VS_F-6" value="Drag or click to add shapes and text" style="text;html=1;align=center;verticalAlign=middle;resizable=0;points=[];autosize=1;strokeColor=none;sketch=1;hachureGap=4;pointerEvents=0;fontFamily=Architects Daughter;fontSource=https%3A%2F%2Ffonts.googleapis.com%2Fcss%3Ffamily%3DArchitects%2BDaughter;fontSize=20;" parent="1" vertex="1">
                    <mxGeometry x="-318" y="69" width="356" height="28" as="geometry"/>
                </mxCell>
                <mxCell id="AhNlXJ4hRKMXUMh4VS_F-11" value="" style="shape=image;verticalLabelPosition=bottom;labelBackgroundColor=#ffffff;verticalAlign=top;aspect=fixed;imageAspect=0;image=data:image/png,iVBORw0KGgoAAAANSUhEUgAAAXAAAAHICAYAAABXgLEnAAAAAXNSR0IArs4c6QAAAJBlWElmTU0AKgAAAAgABgEGAAMAAAABAAIAAAESAAMAAAABAAEAAAEaAAUAAAABAAAAVgEbAAUAAAABAAAAXgEoAAMAAAABAAIAAIdpAAQAAAABAAAAZgAAAAAAAACQAAAAAQAAAJAAAAABAAOgAQADAAAAAQABAACgAgAEAAAAAQAAAXCgAwAEAAAAAQAAAcgAAAAAgGMrkQAAAAlwSFlzAAAWJQAAFiUBSVIk8AAAAm9pVFh0WE1MOmNvbS5hZG9iZS54bXAAAAAAADx4OnhtcG1ldGEgeG1sbnM6eD0iYWRvYmU6bnM6bWV0YS8iIHg6eG1wdGs9IlhNUCBDb3JlIDYuMC4wIj4KICAgPHJkZjpSREYgeG1sbnM6cmRmPSJodHRwOi8vd3d3LnczLm9yZy8xOTk5LzAyLzIyLXJkZi1zeW50YXgtbnMjIj4KICAgICAgPHJkZjpEZXNjcmlwdGlvbiByZGY6YWJvdXQ9IiIKICAgICAgICAgICAgeG1sbnM6dGlmZj0iaHR0cDovL25zLmFkb2JlLmNvbS90aWZmLzEuMC8iPgogICAgICAgICA8dGlmZjpSZXNvbHV0aW9uVW5pdD4yPC90aWZmOlJlc29sdXRpb25Vbml0PgogICAgICAgICA8dGlmZjpYUmVzb2x1dGlvbj4xNDQ8L3RpZmY6WFJlc29sdXRpb24+CiAgICAgICAgIDx0aWZmOllSZXNvbHV0aW9uPjE0NDwvdGlmZjpZUmVzb2x1dGlvbj4KICAgICAgICAgPHRpZmY6T3JpZW50YXRpb24+MTwvdGlmZjpPcmllbnRhdGlvbj4KICAgICAgICAgPHRpZmY6Q29tcHJlc3Npb24+MTwvdGlmZjpDb21wcmVzc2lvbj4KICAgICAgICAgPHRpZmY6UGhvdG9tZXRyaWNJbnRlcnByZXRhdGlvbj4yPC90aWZmOlBob3RvbWV0cmljSW50ZXJwcmV0YXRpb24+CiAgICAgIDwvcmRmOkRlc2NyaXB0aW9uPgogICA8L3JkZjpSREY+CjwveDp4bXBtZXRhPgpgtfwkAABAAElEQVR4Ae2daawdR1r++15fTxImjJ0ZiRkQJgkgRoKBxCCEBIgkYhmQ/uAYsW9JAPEFUBJAGgkESUBi+UKSLwj44liMWAVJWMROYqFB7I4BIbEmMWBrbILjeGLH8XL+9euZ9+Q9dbvP6XN6qepznlfqW9V9uqveeqrqqbfequ67NQlSZCCZqJEBElJBCAiB3BDY2trKTaVSn50UWomsU6CuPIWAEFgVgSrOyoHUByPwKgA8mIt+9/cqLgSEgBAYGoGYsD1nxb8NpVvvBO4LaYWKr8Xndp+Fi363+xQKASEgBFZFYFkS9vd7jvLXV9Wl6XO9EbgvEMr486q4v1al/KLfq57RNSEgBIRAUwTmES+/wUF19/jr8+5rqkvT+zon8Jho7bxpiOJ2b9NC6D4hIASEQNcIeFK2uA/hKTu3vO3cOMzO7feuw84I3BQ2Be3ch8Tjc+731+3c0rHQnrNzhUJACAiBrhCoIlp/jbidV8XhJ/sdnSxuvGXnXelr6XRC4KYkiVrch8TnHfacf8YU9KH97q8pLgSEgBBog0Adudp1HxKvO9ABjrL7Obd4fJ3fupDWBO5J1eKEVcf169en132cgtj9FveFs3T9NcWFgBAQAl0iYGTr0zSy5prFLdze3p65Zuf+eXuOEB6ryiO+f5nzVgTuidUIOA6NqOtCf78V0ofLFEb3CgEhIAS6QMCI1odG3ISQNZxmcc7hMiNxu9d04RzhHovbb23ClQkcRRAfEufwZB3H/bnd70OfZhznXCIEhIAQ6BMBI1gfWtwTNHEOOM3icJndQxgL6XAPYmnG9yxzvhKBmwI+JO7Jmfi8g/v37t1bfNzHfVwZ7uzslAXqolDLAKB7hYAQEAJ1CMBTHFevXi2uXLlSXLx4sQzhKSNtQrvPQrtGaPcS8rtxnI/X5b/o+lZIZKlvodjtPpxH3NeuXZshcgr0jne8o7jxxhunBVmkpH4XAkJACOSCAHx3+fLl4rXXXpuxvuE2jj179syQuydxygCBG4lbuGrZliJwI20yI85RRd5G2oQWx8Lev39/aW2vqqyeEwJCQAjkhMCbb75ZnD9/vrTQPXkbiVvYF4k3JvAm5O0J28ff+c53lhZ3TsBLFyEgBIRAVwi88cYbxSuvvFJa30bahD7uSdws7zhcVp9GBF5F3mZ9m5/bCNuHN9xwQ3HLLbdMpwvLKqf7hYAQEAJjQQBOPHfuXOleMfK20FvnkLaRuRE4ZfTxpmVeahETBe0w4ib0pG1x/Nxvf/vbm+qh+4SAEBACo0YAAsbb8Prrr5duFbjSixE05O1/s+v+3qbxhQRuGRlx+9BI3EjbQnzdN910U1MddJ8QEAJCYG0QwHCFpLHG5wn3mEDicOuyZL6QwC0DC8nEiNusbwshcJG3IaVQCAiBTUXADFhI3JMycSPrKsKuujYPw7kETmIIYXzEJA554zYxxedlqt+EgBAQAuuOAFwIT7LdEIG44UkjdCNyw8Gu23mT8C0bvsHdRuJV5M2CpXzeDUDULUJACGwMAnAi3GheCgvhUuLGqR4QrjWVWgK3RCwDC6vIm2vsNpEIASEgBITALAK4lbG8PXcaeVto/Dr75OKzWgKPH7UMLPTKsPK6ivkf56FzISAEhMC6IcBi5bve9a7pbj3PncanhKtIJYFbYj5x4j5ji/OGJa/FS4SAEBACQqAaATgSrjTeJDR+5QmLE9p5GVnwp5LA42d84sS9EkwPJEJACAgBITAfAbjSc6eROOGqspDA55E3UwO+KCgRAkJACAiB+Qi87W1vK/eHe+K2uOdZS4Vri2QXgdtDlqAlYOcWkjHbBiVCQAgIASHQDIF9+/aV7pIq4vbc2yy1othF4PGDRtiEZGoH5/J9x2jpXAgIASFQj4BtKawi8Pqn6n9ZSOA86knc4rhOtPOkHlj9IgSEgBCIETC3sxnExqfc5+Pxc3XncwncJ2hxC/lPOhIhIASEgBBYDgG403iUELEwjpc/zvlTS+B1CVrGWrycg6p+EgJCQAjUIMBipvFoVchjxr8W1iQ16wO3my20hDiPD/Y0SoSAEBACQmA5BODOmE+XS+Gtu2stcG6pInK7Lv/3WyAqJgSEgBBoigDcadzqQ4s3TYf75hJ4VUKWiQi8Ch1dEwJCQAjMR8C407jUwvlPVf+6kMBJ3B8k0ybDajV0VQgIASGwOQgYh1q4askXEniccNsM4/R0LgSEgBDYRASMSwmr4k0wWZrAmySqe4SAEBACQqB/BFYicBst+ldPOQgBISAEhEAdAksRuIi7DkZdFwJCQAg0R8C41EKe9PGmKS1F4E0T1X1CQAgIASHQPwKNCHyVkaF/1ZWDEBACQmCzEaglcJH2ZjcMlV4ICIH8EaglcFQXiedfgdJQCAiBzUVgLoF7WETmHg3FhYAQEALpEWhM4OlVlQZCQAgIASHgERCBezQUFwJCQAiMCAER+IgqS6oKASEgBDwCInCPhuJCQAgIgREhIAIfUWVJVSEgBISAR0AE7tFQXAgIgVEh8MILLxTHjh0blc5dKqv/i9YlmgnTeuqpp4qHH364ePXVV1tpceeddxb79+9fKo277757qfvrbq5L5/nnny+eeOKJ4t577y2OHDlS93jn15999tkSz/vuu2+aNvieOHFiep4qgh6QV53wG/dQn7fddlvx4IMP1t2a5XVImXrneOmll6ZlMWWtfHZOOR999NGy7d56661lme23dQ63wv7uj/5b5FBKixJev359ely9erXwx5UrV4oDBw6sMy6jK9stt9zSmrzHUOjjx4+XpNSXrkePHi2eeeaZkjjaDoZ96bhKuvfff/+gg98yOkLQEDakDGHPG5iWSZeBC2Jn4L/rrruyIvWTJ08W/GN4/j+mhXv27Ck4tre3y8P+c4+FVWWXBV6FygivrRPZzIOfzk6n7FrA75577umMPLrWr216zNDuuOOO4qGHHmqbVGfPQ9RPPvlkgW59CG2FgwEZMTI/dOhQL22ojzIsSlMW+CKERvK7H6WxNurcEUMVJ57iVuVL53r55Zerfqq99txzz/VSNogNMslJzBXA4OLdNtTvIqnyC/McFm5KoSxG2tR/EzEcrL3g0sKqhpi5FuPTJE2sc2YluJaWdRk2SX/RPV1Z4CLwRUgv+fsbb7xRvP7668W73vWuJZ9sd7sn8L5Irp2GzZ+mQ9o0mhDfvkkfZSO/22+/fcYFRcemk5M/oQmdfdEMIPXgabqiOwOTkXlKAodoH3vssYXWtlnHYAzuMdbU1TzCpczcw8FgBcnPMxJIC4yGJvKuCBy/91SC33vCce3atUnwc08uX748uXTp0uTChQuTc+fOTc6ePTs5ffr0JGQ+fUaRtxAAs8/8zM9kTWHykY985K0fBoiRpx2B5AbIcZgsKIuVi7CPsoWF0Zk8AtENU7gBcvFlC2Q1QI6zWcAbYXFxBl9fn8TBGz25tw958cUXJ48//vgkDA61eoDN008/3Uf2lWmGQWVy6tSpyZkzZ8pyw7EXL14sORcegYONjysT+NhFbSMMLagrCQNe8c///M9lcqHRdJWs0ukZAfORWjax1WfXxxhi+ZpglQ4p5M26ArtDYsEt8sgjjxT0Eyxl3BnzLOv4+WXOseSxsqnnwHtFIOpyUdOnATaHDx8u9R0aJ6/HsvGsFjHDCFT8wi/8QrkCy64KDiqV453vfGcZ3nTTTeXvVtBg6Rb/8z//U4SZQXmE0bz4pE/6JPs5Wci07X3ve1+y/Nc1Y09IXZURwmbLoElfRGLpDxmmKguuDMg7JkOIG0KHsFMJ/nMOBg50MRcT+nANvcNMr7cBpctyZ0Xgv/d7v1f8wA/8QKvyUSGM7KmFwUjSPQJ9EDhtho7rO3L3mqdJMcVsooq8cyDuuAZYq6De2QWDhX7+/PnyFvRnTYTZQaoBMNa17jwrF8rnfM7nFO9///uLz//8zy8+4zM+o/j4j//4Or13Xf/kT/7kcncCYQ4S1g5yUEM6CIFBEagibxYIuZ7S6p4HAnphGLDN0sRcKnaea5gVgb/3ve8t/uAP/qD467/+6+Jf/uVfitdee630WeFWMfnFX/zF4j/+4z+K//3f/y0+/OEPF2FhtWDnx3/913+V057v+q7vsltnQkbTX/3VX52uhP/7v//7zO928o//+I/FT/7kT9rprpB8Pu/zPq/4jd/4jV2/+QsicI9G/vF1tL5BvY8Zy7zaxI/s3SZhcbJ8izZ3Sxb9sMY9iXPOG8A5S1YulDqg8HObfMEXfEHxqZ/6qXa6MKRjftu3fVvx3//937vu/eqv/uriZ3/2Z4tP//RPL3/7z//8z+LLvuzLirAyXDDl+9Zv/daZZ3gD9Ru+4RuKv//7vy9++qd/uvj6r//6md/9CVsJJUIgNQJDEjiuKJ8f5J2r1V1VL0biuFZs3z171nGv5CpZWeB1IPkRven+alabGT2pDCNvrPNf+ZVfKX7pl36pvP47v/M7xed+7ucWf/mXf1lmjd8a8kYgfavE8kL481M/9VPTe2msCNeIc/zET/xEeY0/nPO5gXe/+93FO97xjjLP6Y+KZIWAb19ZKTYyZfgMgQn7ucdE3qY3JO6tbgakeJeS3ZtDuJODEot0CPtDp7c0JfCf//mfn74AwgsEP/iDP1i8/e1vn6YDQX/jN35j8eu//uvFj/zIjxR/+qd/Wu4a+eM//uPiy7/8y8v7vvZrv7b427/923I3zF/91V9NF0exvLHekR/+4R8uw/hP2NdZcJiwxVCSJwL4ZyXtEABDb317EmyX8vBPY/QxA7cXgCgbu1ZylFEQuFlILGreeOONC3GE8D/wgQ+U97Eo+oVf+IXFP/3TP5UfisEdw+8Q8u///u+X9/iGhwsFK/2bv/mbC1wqEPVv/uZvFt/yLd9S3osO/pXrH/3RHy198KYUAwfEzf0/9mM/Vrz55pvl8Smf8il2i0IhsHYIeCsVPzJ7r8csELb1c88PuZVpFARuFvgnfuInNsLvZ37mZ6bW7x/+4R8WHPPEv6rNfd/0Td9ULpJ+//d/f/GhD32oeM973jN9/Nd+7dcKr8eP//iPT38j8nd/93fFn/3Zn5WuExZlJUJgExAwI4uy5r5g2aQ+PGnnPBiNgsBfeeWVEvOmL+jwppWX8Hp78Vmf9VmlC4XFRaxwdongjsEH/p3f+Z3+9jL+fd/3faXvnMHABNfKV33VV9lpZWguHj6/KxECm4LAurmh4vWvXOtxFAT+f//3fyV+n/AJn7AQR8j5X//1X6f3/cmf/EnxpV/6pdPzZSLeZ85z+Mc/+MEPlgucdenwHXVEBF6H0HLX8UdK8keAerKtmBbmr3W1hljf3gJP8TJUtWa7r27vvpTfFV6TR8y6nache8dNvud7vmcheYePxhTs/TbitWfZA4oPG+EFoy/6oi8q49/+7d9e/NzP/VwZr/pjxE26EiGwKQjEJOd94mPDwH+ffN++fdkuYILrKAjcdnOwHW+R+HtYjLRtgfFzbC3khR38WxC0bSXkvn/7t38rvuZrvqZ8BKufl4uwvs198r3f+73lwmacJuc2EBiRV92ja0JgKARiYu0rXyxwyM7EFgDtfCwhvnyve667TwzP7Ancf1PkhhtuML1rw5tvvrncg80NED+kGz4lWfzFX/xF8Ud/9EflXu2v+IqvKPdos30QImeLITtVEN7u/Mqv/MrpIiguGBYt+YgWAwL+dOTrvu7rygXO8sT94T6El34kQiA1AkMtKJKPf+GFGay3ZFPj0DT/Bx54YOZNUt7nyFmy94HbB2YAsalV+0M/9EPFb//2b5dvTPLWJEeV8N0UPnxlr98zWLBtkO2DCFb3Z3/2Z08fxcLgg1tY7AwO3/Ed31G+1j+9IUTsf4XKheJRGVcc8pEsjwAEzv5v67OQITOAoWYBy2s8+wRuH+/6gRty3oGC9tlb4EbakC2fl20iLD7+zd/8TfFbv/Vb5Yex/DPsOoGweRuTb6p893d/d2H/zYa3Nz/t0z6tvJ293+wJj4UK/fM///MC10rVlxN51R8xvePndd4OAS1qtsOvz6exwj0BkhefZo2v9anDqmmzi4YBx4QXefyMwq5nF37sHzuUgf0HCP4bBP8VYl3+Iw/lCjtZyjL58tbFuX+RhA9o1d4SVuEnYWG09vc+fggNa/rfRvr4rzV96Nw0zb7LBl4+j3X6jzxx2Zpi3uY+/vuNx5N4cEW0SbLXZ/lvQGHwmeocZtqT48eP95qn/iNPaBVNBQsb631np5nHyCzyeenP88d/yZd8if6ZwzzwMvttKD9ximKncAFgufIhKy/4kvnGNt9L8S/9+HtSxLG6Y783bqCxuH2yd6GkqFTlmRcCfnfDEJqlIL2+ypWKLPmQFS/U+bpjbzXXIXLefk758g//gengwYO7FlrH9gVFEXhfPSdhuik7Rh/F7tsaIn3/Heixv4ji6yDlgixb8GiL/JtDLwwqWLkQKDNjLOAhLHPqlYGDAcR0M70YaBhwGGDGJM18CmMqkXQtP4M7BhKq6thVrzDbroY+q5Zpvy1iYSky5ecYm0COYMgiHHG/pzlFWZjNMIiwkAnG9oU/0wUd2W7IgTCY+iNuI+VNC/5Qf+TD4EGccN5ARh7kP8aZ1xaeesPDooS8kGIHOyr8wR5n2y5nzypMi0ATv31aDbvJHSupr5cr/OvgaItv3Kz/eQTQTcn6TwVSh9BSCkSO9b2MgQGxcvj6sDJQHiuTj9vv80K+Wc6gkmJn08mTJ4u9e/eW63IW7tmzp/xi6vb2dvmP261PW1hVFhF4FSojvDavkkdYnFqV2Zvbl2UMAdCZYyuxVpkR/YCLgEHIBqTUqoM1+kDo+KOHEtseiBHAoJBKROCpkM80X6yTIVwNqYsftnf1SkJM6SHxKldO6rKvmv8YXASQubk6IPcu8Ye0qVP824Q5iAg8h1rISAc6AFNTCIhp4Tw3w7JTzb6KGXemKr0oD1YaB/cT9i0xibPAuWirIdZcE4sOC3hRWvPKRz3HAvGhM0KcgRzSZqbSVK84zRzOrT1Y+Sz05fR6Msvw/nPKHrcxf3/KuAg8JfrKeyMQgDBycTlsBOAbVMiuCHx7gzBTUYXAUgiIvJeCSzcnQEAEngB0ZSkEhIAQ6AIBEXgXKCoNISAEhEACBETgCUBXlkJACAiBLhAQgXeBotIQAkJACCRAQASeAHRlKQSEgBDoAgEReBcoKg0hIASEQAIEROAJQFeWQkAICIEuEBCBd4Gi0hACQkAIJEBABJ4AdGUpBISAEOgCARF4FygqDSEgBIRAAgRE4AlAV5ZCQAgIgS4QEIF3gaLSEAJCQAgkQEAEngB0ZSkEhIAQ6AIBEXgXKCoNISAEhEACBETgCUBXlkJACAiBLhAQgXeBotIQAkJACCRAQASeAHRlKQSEgBDoAgEReBcoKg0hIASEQAIEROAJQFeWQkAICIEuEBCBd4Gi0hACQkAIJEBABJ4AdGUpBISAEOgCARF4FygqDSEgBIRAAgRE4AlAV5ZCQAgIgS4QEIF3gaLSEAJCQAgkQEAEngB0ZSkEhIAQ6AIBEXgXKCoNISAEhEACBETgCUBXlkJACAiBLhAQgXeBotIQAkJACCRAQASeAHRlKQSEgBDoAgEReBcoKg0hIASEQAIEROAJQFeWQkAICIEuENhoAn/ssccKDokQEAJCYIwI7IxR6bY6v/rqq8U999xTvPDCC2VSk8mkePTRR9smq+eFgBAQAoMisJEW+MMPPzwlb9B+6aWXBgVdmQkBISAEukBgowgcy/vw4cPFU089NYPds88+O0PoMz/qRAgIASGQKQIbQ+DmNnnmmWd2VYX9Zi6VXTfoghAQAkIgQwQ2gsCbEHSTezKsP6kkBITABiOw9gReR8z79u0rjh8/Xtx3333T6rd7CSVCQAgIgdwRWGsCN0KOXSOQ9/PPP1/ceeedpT9cJJ57M5V+QkAIVCGwtgTehLwNEBY1PYlD+Gwz1O4UQ0ihEBACOSKwlvvAlyFvqxRIHIucLYYIJH7w4MHiueeeK6/bfQqFgBBIiwD9+8SJEyspwcw7lkOHDo22j2+Fl1gmViCLEl6/fn16XL16tfDHlStXigMHDthjWYWrkLcvwP33318cPXp0emn//v0i8SkaigiB1RBg9xeki2FEH50nzHyHnP3edtttxYsvvjhPpc5/O3nyZLF3795iZ2dnGu7Zs6fg2N7eLo+tra0yXwurlFgrAm9L3gaQSNyQUCgE2iMAGd9+++3tE+oxBTNee8xiJumuCHytfOC8pDNvwXIGwTknuFOOHDkyvaNuYJjeoIgQEAK1CIzhMxX0+THK2ljgDzzwQBFXgt9tskrlkB7pmsidYkgoFALNEKizvm+99dYC14UdPrWqa/73ZeLz0mLNy3zp3DekG6UrC3wtFjH7IG8aCa4UxEjcLPGxLmzi22eGwsB09913j2rhBr3vvffemd1CZeUM+CfGD31oExwpBZKkPv1OqpT6+Ly99d3WoPLpdhF/4oknyt1mpAWG9Avr812kP0gawfczlbBwOeG4du3aJCxUTi5fvjy5dOnS5MKFC5Nz585Nzp49Ozl9+vQkjB7TZ1JHAuAsws4cd9xxxySMpp2pFtwpM+kHS3wSSLyz9IdI6Omnn54pQ4zZWM5T4T4G/Lps8120SfTx7SoMMF0k22ka6GQ60q/huSHk5Zdfnpw6dWpy5syZMk849uLFiyXnwr1wsPHxPH1G7QOvsrwDeZcv6TAl6koYlat84ozYYxHcP+sgqazdMeBXtUUuZZ176xs9HnrooZTqVOaNFc7MAKFtcT4mGa0PfB5599XZ2AoFmZ8/f35axzTKxx9/fHqec+SWW26ZTvfNB+n1PXbsmD9NEmcA9vXH1DZYK1NdggVeugumFwaM1OEX69inSnG94Vqy9sh+5qqPtfWpT13aYOJ3ntx1112lYVV3f8rrDDT2j11oe2HmMNMG+9CtKx/4KAkc0nzyySdncDXL23f+mRs6OqHD4G+0TkOysYXeUVadJkPHZpeOySpESKfkWFXAbVnhZSowRyCvNvkvm7e/f1X8VrGKacMssDUR2p69t8BzwQXQ5LHe74n76CrtrXclP5YBljczduvTjzzySBHPHrrWpSsCL7x/xXwuOfvAY390AHaCz3so3xV4hY9gTcK0a+o7Q4fQ4QbVwddbk3iwzqb6BiJs8kjye2IfKnWfSnLFL+4P+OpTC30xDCajam+BtKf6onvffLKRPnB8zrYjxEbEoSxvy48Q6wjLynxnXMNK9P+mjWu5CFYr/7TCBKttDOLdAWDNro8UkjN+MSYesxRYkSd+ZL9W0bc120U5mTFYfx6VL9yP1jlb4LGlESptcMvbY0W8yhJn9A7TxfjWpOfBRz+1LsANy3YMEqa1U70ffPDBZCrnjh8zUOqVg/aXWny9jWW2B2ZDWuFdWeCjcKFAiNZALRzabVLXKSBxGqnpZWGwOuoeGfy671BhMWnw/FfJMN62B86pJHf8GNys3RGmxCo2tFK6vZZtL7hNvGsUQu9LNobAaYzen0YDzYW8rXKpeG8FWWcK09vefWmmQ10IfqYP4Vg6VC4+5zHgFxs4KWcrrAVZexuT9W39x1vhlKOv2epGEHi8GAKguZG3VXwdiWO9pbSIvHWGdYGeuQudxkiAMCUhjQU/jxdtLoWMYbBbhAv9w1vhGGF9SFcEnu2LPCwksCjoF0NYZGAhM1jkob3mJejEwmYYYGYUYwGMrXDonUJsixl5s+CVI3YxLjFWKRddx4Ife8BNaHMcQ4t9S598g/VdpKy3VctO//ALwywK57AwXFeebAk83tEBeUOQTffH1hW4z+t1JE6e7J7h8ANSn7qQNg3P5zeWDuVJEyJIVedjwi/eYz806dA3OUzGsPPEdI3DWHcGJt+P4vtTnmdF4DQ63oiC6OzlDcAZA3lbJc4jcSxLBqahxHdiiDDu5EPpsUw+6OytR28NLZNOF/eOCb+4bv0g2AUWi9KwNxm5j/46FmOhqlzBBVXEM5qY1KueS3LN+3dSbiOM/WcBjNIPGhpDUh+yx2eZOL40/6EcKw/hEEL+Ps8+V9S7LI9fvET/vhaRFuk8RvxYNPR1ThmGkLDveybfHD9atSwO8cJw1/127X3gAbBRWd7o6wVLnJcDUom3HtFhDBYR01T/whHrCVhDKWSM+MVWeFyGPnDEMo3becpZU1dlBMt4PaurtLtMJxsXCn7OGDA+hpPK/9kWZMgofmuUNJleDiG+86YkwmXKmtPi5Rjxi4nTl2GZeljmXu/u4rl4EXCZtHK6l3LZP3tAr6H67dIY+KlFShcKejDlC2QzMx0LlqNXcTRx9A6VMT1wBVG2Ib5VEU//x7L3OwzWU7zALhf3yVjwo95pZ77d9e1GoY7iPHN7E3kV0ojdn11vBe7KhTLjkE1N4AC9DiROh/ediAbedQOY1yjj/PvuxPN0afpbvAaCLzyVjBE/wyomniEMhvjll+B+MHVGGTIo+f7bh0+/KwLPxoUSACulahcHU+sqd4Q9k1PI7hm/HzaQd7m9akhXkN+BEBrfKPd+x+6AIet4jPgZPjFuQ7hR8IOzy8kk3lJo18cSxjtO4vOsyuGHyBwscNOnajqY8o0802teiM6xG2Do6WRsPQxhgc3DpOlvYeCeWj3MWFLNGsaKn8fZuzTAdQiJd22M1Qqn3fm22If1TX2srQVuo5tZ4liwJvwTh3ihy35LHbJoGb98FKbiBavZQ4q3uLCKYotsSF2a5oXO/kUJdKb+U8gY8Ytx8juOwNW/UxHf29U57Zz/umMyViscfvFtMWvrO4CdnQvFGgAhbgcagidxXCm5kXgVeQe/YOE7ki9Xn3E//R8DeYOFJ03OU+BGvsgY8fuo5m/9jfEbqr/E+fiXe97SLu+Y/09fuB9TbWNtjJKfXuXkQvF6scDlp4WhcBMWmnKQKrdJX9OuReWNFwKHXDhdpNu83/2UlZdRUslY8avCy7/UE0io6pZervmPf9FPx9IGASN2A+FO60vW3oXiR6BcLfEqy5tpZGyJ+LL0Gff5svd7yIXTVcuFzn7KGluPq6a7ynNjxK+unP7lGvY0x/u1655rex2Xg58xj+m/vPsZA/04e+ubyvIjTK4WuOnIaB5b4qkW6aosb/Z5p1p8AyNvyfJfZMYgubw6P1b86uo4Xowdsj3k/h+MqjCLre++eaUrC3xUBA7wMYlDWkNP06rIm4ElJXnHe5f7nP5VdYBVroEXNoQdOe39HgN+izDnvy8ZtsSHFO/CCWsxQ2a9Ul7smjGs6Mt9S1cEvhOUHpWYO4VV7/Pnz5fTb3Z/hBF0EJdBlduEKSOLral2TlCBfvENPfz5vApmmjjUVJHdEN5dEk/rUy66eryWwS/GduhdR5Y/uMa7Tba2tuzn4tixY+WXPllcH0Jwpdi7GyxS0z9SYbOovLRD9DNJ6cYzHRqHfqTJ3YXidY2nPENY4lWWdwB6kNfjfdnjODMQ9Bj7keqLieuCX5P6j9tOn+feCg+GV59ZtUqbTQceuyFm9F1Z4FlvIwyg1gqjOfusTcwy9gtR9lsXoaUfWznokNJypGyxJdtFeVOkkWoGsy74paizeXn6PdT0m7765jwdFv1G3fvZ11gW/6fl8kPXmCxw0zv2/YaCTbjWpdRZ3l3ns6rO62BBplwAXgf8aPeLjhRbNL0VHlx1SdeJqvpXbH0PtdjblQW+RaGMzS1KGMh8ely9erXwx5UrV4oDBw7YY8lDRnbzt5ky+LECwdrpyuE8yzsnXxkWTvxCDBbtMlsJm/ooyQtcVhHva7Tn0ZNZzFC+eMvXh1X4gd2iWUGTe3w+y8axEJedIVRhTL5gvEx7WFbXqvuxwv32PHzw3jKvemaoa+DKJ6u9BGNtYZ37+1eNnzx5sti7d2+xs7MzDffs2VNwbG9vl4etYVhYlddaEDgF64PEx0LeVRWra0IgBwToQwzMbDhAGBD9HvUmOi4yLFY1KBjo/GAXdkHtMoKa6LfKPSLwCtSqSByLgx0qiyypODmRd4yIzoXAagjEVvhqqfT/VNj7Pdh6VlcEPtpFzKrqrHKbMDqzzXCZaSjPMLUi9IJLhjwkQkAINEdgkQXdPKX+7gy++sHIu8tSjG4f+KLCG8F6nzhEfPDgwUZ7xY3wYx+vyHsR8vpdCFQjwCwYggwLd9U3LHGVdLpaK6Gvm2snF7/8ElCUt64dgVOqKhI3lwhEXLftT+S9bPPR/UJgMQK4L5eZAS9OsZs70Ik+DzcYZ3ST8nCprM0iZhVkVT5x7quypqvImzcs+RjPWCu3ChNdEwJCID0C8oE3qAOIF7KOBfeK39oE0eNi8W4Tez1e5B2jp3MhIARyQWAtXSgeXCNg7xPnd3xeTKH4bGT8m5H30Htmvd6KCwEhIAQWIbDWLhRf+Dp3ir+HuMg7RkTnQkAIdI2AXChLIlrnTvHJ8B0EfOGyvD0qigsBIZArAmvvQvHA17lTuAfy5q2sZV/48ekrLgSEgBAYEoG1epGnCXB1lrjIuwl6ukcICIGcENg4Agf8mMTxe8vyzqlZShchIASaILCRBA4wkDhfXeTw2webgKZ7hIAQEAI5ILCxBJ4D+NJBCAgBIdAGARF4G/T0rBAQAkIgIQIi8ITgK2shIASEQBsEROBt0NOzQkAICIGECIjAE4KvrIWAEBACbRAQgbdBT88KASEgBBIiIAJPCL6yFgJCQAi0QUAE3gY9PSsEhIAQSIiACDwh+MpaCAgBIdAGARF4G/T0rBAQAkIgIQIi8ITgK2shIASEQBsEROBt0NOzQkAICIGECIjAE4KvrIWAEBACbRAQgbdBT88KASEgBBIiIAJPCL6yFgJCQAi0QUAE3gY9PSsEhIAQSIiACDwh+MpaCAgBIdAGARF4G/T0rBAQAkIgIQIi8ITgK2shIASEQBsEROBt0NOzG4XASy+9VLzwwgsbVWYVNm8EROB514+0ywABSPuxxx4rDh48WB7EJUIgBwR2clBCOgiBXBF46qmnigceeGBGvUcffbS0xI8cOVLs379/5jedCIEhEZAFPiTaymt0COA2qZJnnnmmtMblUqlCR9eGQkAEPhTSymftEIDc77nnngIrXSIEUiAgAk+BuvIcLQL79u2b0f3VV18tXSwPP/zwzHWdCIEhEBCBD4Gy8lgbBJ5//vnijjvu2FWeJ554orTGIXSJEBgKARH4UEgrn7VA4M477ywXMB988MFd5YHc2akiv/guaHShJwRE4D0Bq2TXGwEs7ueee6649dZbZwqKXxwSl198Bhad9ITA2m4jPHbsWC+Q0UE5quTQoUMFFppkMxC4++67S2v7oYceKo4ePTpTaLYe0gbZargJguuIfqH2P2xtZ0XgbM06ceJE2Sma+BKZqja5byhIsbpefPHFobJTPgkQoL35vd/Eqfd77723uP/++4vz589PteI6bRRL3T8zvWFNIvRbBqy4L952220FRxvBLVUlXaRdlW7VNXRgsKYec5OtSRBTyqKE169fnx5Xr14t/HHlypXiwIED9lgnISCxJWvsYhiOvRzS/6MI8NKOf/OSTkxnrhIIDBJ/9tlnZ36GvHluXa1T8OhrxjsDZOKTLvv2yZMni7179xY7OzvTcM+ePQXH9vZ2eWxtbZUltrCq+NtVF1Nco6Osg2B1STYTAYgaaxS3id9uCLHLL76ZbaLvUmfjQsFyiUdxOoFZLXVWD53G7ukDrCbpkz+uHwRrjbJINhcB6p/2SujbNG4GrPN1fgX/rrvuKsueqvbpi/TZOmEwbbpLCJ9+vLZRl26q61kRONarb/AsDo3BMrc9wFQilU456LxDCnnyMknsh1xWh0UdoCq9usG16t5510iHzsVg+P73v794z3veU96Oew2M8TOPZVEQH63pTRs23zgWOtcpB+VZN6HP5l6upvpRT7kTeBH8OlMJfu8Jx7Vr1ybBzz25fPny5NKlS5MLFy5Mzp07Nzl79uzk9OnTk+C/mT7TZST4CfHHT48wkk7ComCXWfSW1n333TejN3gNKWDlsVvX+PHjx4eEdfL444/P4EobXVZow8EynUmH+glkV/arZdPL7X7f1sBrXSTmoy7L9fLLL09OnTo1OXPmTNkG4NiLFy+WnAv3wsHGx/PyzcYHHhpBOfUKREi0FKzJsbyijIVofk/05nxIaWt5D6lrm7yY4QwpXbjnzBqPX/6hjeAbx9Ibq8T1sSntMJf6ysaFYoAw3WSaGU85u5qmWz5dh/jdmD7ajoUnn3yyPJ/nj+taB0sPPySk4ad/XBsSwyZbPOn8wRIxtRuFKfBspFiDmyBsBgTaibVvMGD3FdceeeSRuf7bBlkMfktM4GMejAYHr4sMvXluJnsqF4rpEhryzHQzNHr7KesQt0mwwqe6U46hJLSFab5M/eLp35C6rFrmuN4pQxcujFX14bkYR87bCm6g8D2VaX1Z3YVBt8yvbfpDPh/jM4Z21hSfuGxNn2ty31q6UGxAwhrxryhjzbFIl7uYFW56YoWnmlLG1nbTlXfTPYeQMnThwuiyLLHFuUralAlLNXapmDXexWL0KnrpmfEhkJUP3OCDCOPdJ7gmUpGh6dUkZPBJ6Quv03EM2NXpntP1Lgic8tDGcak8/fTT0/Zi5VwH37iVRWG/CGRJ4BSZbXj4bU3oODTs3CUnKzx3rFbRrysCXSXvPp5hSxtl4js6XriGb3xs1jjtXzIcAtkSOBDEbpOULollqiRXK3yZMuR677oRODhDeizcB3//6K3x3FxeubbjrvTKmsDZSREWRaZlxQ0wRisc9886Es+0YhTpBAEGftYq4n8YMVZrvBNQEiYyBrdj1gRO3cULmmO0wilHiv3sfiEYHST5I4DRAol7w8W0lm/ckBgmHMPCf/YEzvTSu1IYFeMFzmGqc7lc0Nu/sssUmWNIgQwk40SANh62sc3sxqIkuVvj8oEP296yJ3DgYDuZ33KFFT6G0TEeaMa2IDVsU8wzt5Q+Xdo97dy/nWwo5WqNp8TLsNmkcBQEToVAht4lcPjw4ey3FWIB+90FWE8xqW9SY1umrLEfeJlnu7w3tUVpM9Cq7Ya5W+Nd1oPSqkZgNAROQ/bkR+Pl85y5Cz58L8weUsiyr6yn0NHnmZo4vS45xHHHYY37rbWml1njY3lXwvRW2B6B0RB4VVHxKefuSmEanIM1yYAnaY9AyvbGjI43ONluGIvN7piZSjYHgVEReLwIyBuPuVtqdCz7Zw80K3tLc4gmxuAh6RaBHLaWMasL31OpbPvh07XdFlipZY3AaAicjuP/1yBTScgx950W3u1DS8CCkjRHQIPQbqyYBVT9E2HujF12u5/WlXVCYDQEHlvfEOMYrG//SVd2E2iVvr77MCBL6hHAiGEnE98Qj105zOxYMB/6P0HVazv+X8ZgbO2MBWZPhEN/23pVjGLrOz5fNd11fU4EXl+zGDBVVjfrKyxi5jJTYZDJ3bCqR3l8v4zCAmck9KPhGIgwdvlgfad09/gtmONrppurMe2Ihcl42ywWN4uZWOK5kDe1FM8MNrfmhin5KCxw+y83QAIR5dRg66qJt0fpfCapB52Ug4dhoHA5BOqsbowBrG5ZusvhuY53Z0/gsfU9lkUav987lfW9jv72MQzebYmCgR93Sbzuk5u7pG05+3jeZr7whrnkbFZg/QFjhnaEK3bshk32BO6tbyp8DIs0vvGgcyrre2wW2tj0pW67FgZ+2oufveEuwXBJ1Y66LmMf6bFGxqzEyLoqD++Gte8rGZnzopR/a7rq+RyvZe0Dj61vLNkxdHI/6KzDKD9UwzULaaj8csoHa9H+ubEnb9oPpCTyrq4tiPv2228vDbt55F399Ec/DgaZQ+CkQ981y73umZyuZ22BeyIEtLFY336kT+ny8XrYf0HPqfE11QULdMz6Lyon7Rzr0RM3ZYa0U7afRXpX/Q6JDuHmgmRZ2K0jbfDDIOCIjT76Bc/Hn5fgGphzwDVjaHPZEnhsfY9l66AfdGhE/pOyVQ2+j2tVnaiuofeRf9dp0gmPHTvWdbLJ06NO8HXHdUNbxyoco3/WD0J9AVy3uEt/g3g5mszmIGx4Bqzj9sW1MUi2BO6JECAZFXMXaxCmJw0phfDqPg0ytjDiRppCN58nROXljTfemJ5i/Zi+OVlC/rMIU2VXiNC+q9o0WwPHZnX74oMPJB5bvf6eNvEq3CBuZjAYS8vkywBJH+Wg75IGxJ1Te1uI1cTJ9evXJxzXrl2bXLlyZXL58uXJpUuXJhcuXJicO3ducvbs2cnp06cnJ0+edE91Hw0fsp8ExadHWH3vPpMeUgw++qnO6B++V9FDLtVJerzWOR4+q1oNQI9XYzzbZEWbCNbhTDshfdr4kO2lTRn8s3FfpSyUL3yTxd/WOl6HW/g/ASU3tc7gYwnAc+G/Ie2qH8rVpQTjanLq1KnJmTNnSv3h2IsXL5acC/fCwcbH8/Kd0coeSE3gwYc2A+CRI0fmlSGL32iwvqMPPej4vNc5TucaWmI8V80/WNwzbcTShYTGKnG7tzIFS3gSrNnWxSL9YCFX4tZnWyDf2CBrXRiXwNoSeDyihxd3XLHzjcaVHabCgyobppGVjdw61LqEKazUGLtlKxYyiI0S0qTOaO9jF8qAwRLjxDnlXoXIqec64ga3oWZi6EHf7nqw6IrAt2g8AehSLEoYrPHpcfXq1cIfwcQvDhw4YI91GrKVB3+UCf+JJMVCoOXfJERf9PYSpmJL+eP8s6vEWYyxnQz4UMEMXyQ+PfyC+PlM0NdjbNeHDuPdCv/wD/9Q/PIv/3Kpxhd/8RcXN998c1kGFq04uD9+uWUInbe2tmaysX4yc7HmpGpfN7ey59jqpubR0V2mPPj147UXCkIbpP44WGDkjWq/SMt6B+2V+qUt17VP/rUieSzj684RyOCGLvbu3Vvs7OxMwz179hQc29vb5WHtzsKqcmRF4DQAVuVNqKRlF3RoHMtULjsA2q6c0+A4TOicKYjG8lfYLQJxB2pC4BAQbdm3C7SyBTc/oHarbfrU5hH5qtqx4A1xMwCsg3RF4Nn4wJlmBuKtnIaFChvV9aGmd4FIJAMgELe/RVmyZlPVlse6ULmovHW/z3OtxJjWneO+WAc3U4xRVy6UnQBcFoKl0tYSzqEgTA1zd/nkgNNYdIgt6Hl6036rvmHCM+sy9Z9X/vg3rGVmuBxY5cxKq9wr8XPMYHmWfuTdLPF9Oi+KbAicCoP8mlTwKhUX+9xWSaPuGRqo7R1lmifZPAQgesg79t3iMoG8NnlQx63J+gyHuSwttJZC/0csLE/0ZyEC2RA4I23c+Bdqn8kN6G0Ncp19m5nAnZ0aVS+XoGRwmZRWp6zIt6oMMkdE1G9h0iaWDYG3KUTqZ+mg6qSpa2H4/Bm4677HgcsEi1MiBPpEYLvPxJW2EBg7AnXrMrhF6v43JVtfRd5jr/lx6C8LfBz1JC0TIYBrLBas7qptonKZxEjpvG8EZIH3jbDSXzsEqsgblwlkL1fa2lV31gWSBZ519Ui51AhUWeBeJ+0y8WgoPjQCIvChEVd+a4OAXCZrU5WjLYhcKKOtOik+BAJ8yoF3CGKRyyRGROcpEBCBp0BdeY4GAfYr++/x4DLRLpPRVN/aKyoXytpXsQrYFgEInD3fbCnkTVstVLZFVM93hYAIvCsklc5aI6B93WtdvaMtnFwoo606KS4EhMCmIyAC3/QWoPILASEwWgRE4KOtOikuBITApiMgAt/0FqDyCwEhMFoEROCjrTopLgSEwKYjIALf9Bag8gsBITBaBETgo606KS4EhMCmIyAC3/QWoPILASEwWgRE4KOtOikuBITApiMgAt/0FqDyCwEhMFoEROCjrTopLgSEwKYjIALf9Bag8gsBITBaBETgo606KS4EhMCmIyAC3/QWoPILASEwWgRE4KOtOikuBITApiMgAt/0FqDyCwEhMFoEROCjrTopLgSEwKYjIALf9Bag8gsBITBaBETgo606KS4EhMCmIyAC3/QWoPILASEwWgT0T41HW3VSfGwIvPDCC8X58+dr1d63b19x55131v6uH4RAjIAIPEZE50KgJQIQ9bFjxwrCl156qQxfffXVpVLdv39/SeZ33313cejQIRH7Uuhtzs1bkyBWXIsSXr9+fXpcvXq18MeVK1eKAwcO2GMKhcDGI/D8888XR48eLQgh7a4FQr/33nsLCP2+++7rOnmlNzACJ0+eLPbu3Vvs7OxMwz179hQc29vb5bG1tVVqZWGViiLwKlR0TQg0QACr+sknnyyeeuqppUn7rrvuKnMgjRMnTjTI7a1bIPOHHnqoePDBBwvikvEhIAIfX51J4zVCAGsbEp3nGrn11ltLixm/NgfW8yLBgkdIlzhHHcFD3k888YQs8hKxcf0RgSeor9hauuOOO2QBJaiHlFnSBg4fPlwSa5UetIn777+/dHfcdtttVbcsfQ2XDET+zDPPFM8+++yu58nvyJEju67rQr4IiMAHqBs6K5YWHYcOVCVmXeGXbGJhVaWha+NAgPZwzz33lIuSsca4RB599NHe2wBkTj60Sy+0vaeffloGhQcl43hXBF6wiGkSFi4nHNeuXZuEhcrJ5cuXJ5cuXZpcuHBhcu7cucnZs2cnp0+fnoTM7ZG1DF988cVJsGomYYrKAm/jI3SiyXPPPbeWmGx6oWj/YbDe1RbC1r9JIM7B4aGdkbdvn4888sjgeijD1RB4+eWXJ6dOnZqcOXOm5FY49uLFiyXnwr1wsPHxvBy0iBmN0ixKYeFgbVUJe3WZGtf5JXkGa4gpbVdT6Co9dG1YBPB30za84C5hZpZqIZFtigcPHvQqFcH4yKLd4ephcRdscPHME1vQnXfPuv0mC3zesLTCb1hYYZvWjEUTGk15HtwjlZY1VhBWT1is2vUc1nsKy2yFouuRBQgwI7O2YCF1TptJLbQ/04mQ85QSjJ+lZ65e/1zicEFYIO6tjruywOVCCa39+PHjk2Atz3QEGhLETedtIsHiriTyYLk1eVz3ZIxATJK0Deo7B4kHl/DSTxK16EO4EHMh4K70wBCjbF2LCLwjRKkcKslXOL7FVTooFhkdyKdFHN9pDtZaR5BtXDL/7//9v5k6xfrOSbwvnLacQqrWB+J+MNZzjLuu+29XBL7Rr9LjQ2RXgfd349fEd8fukmUldJ5yxwrP4zO1715YPsHlksxfumxZ7H57JdxjRDnBZxN8l/i4f/d3f9fgKMPc1jbe9773FR/60IdK3agn2tsq7XemkEuc0N7J04RX//F78+aoF9PNX8s1zs4zW/Ng5w/77Vkby078aG2rnil3oeB3Yiq2igXsy7IoXmV5B/LubKQlfW8ZhYovLfGmLplF+vf5e+iQjafD+Aq5f12lyn2Cay0nee973zszQwgL7IOqBx60bzsGzbzHzIKBMi0T8S6lKws8Kx94GLWngNEY+iJxpkOx26RL8raKriJxypWrQMRVawHWMeeFPFdH5MGKnfgj1/JX6cVCtC93+E7F5IMf/GDVrUmu0ca8fsS7nu4vKph3n9AO1kX6LNfaEXj4rsOuhgjJ0kC7FBq3rxgaPJZy1/mYzlUdzH7LKXz88cd34R8TQ5NzOjCzKBZvY5z989zHTKuO9HPBhp1GXm/i6M711MLgEhsi6De0xPgMnX8f+cETfZZr7QjcT1c8cDTQLt0OMan0Sd7WsHx5iOcmVSRFfUAQVdYcgxKEz9Q5dhPFZW1yDpH3NYC2xboKGysTbYkBqMv22UTf4J+tdXEFf3iTJDq9J24DnSaeKDHqtM9yrR2BV/kafUdp20kgothFMwR50/7iwSlRm6zNFovSsCaEmJcRiL5q941Ps0mc+qkaMJbRpet75xG4LxMYoj+zjy4HI9o9hM3+atYbqixurwdtbWjx+ffl9hy6TOQXu8+61KErAh/FLhRWuHnjLHSmlVbXWf2Ov2ERyLtgh0GwokL72zxhdwmr62BLaBIIoAhWpZ02CtltwMHKfSCx6e4bHg4Dc7nzBpzJhwPcqZP4bVby5XfqOVd597vfXXz4wx/epR56x7iFmcX0vkDwBQcSSHja7sDCi9+pEf/m77N42NJYplX1kSu7Z8jQyjhknn3lRT1lL35USbkLJbbAsejiKUwAc+mFTayh2GoZyvI2bHOwwLHisBBxV4Bj3YHF2UawoLHgObBg5gl5xdigF3rmIljAHqsPfOADE9pqVdv09/Ud9/j6vgOeQwv74q28bdvP0LrPyw/usHIRdildWeAzWqUk8Hi6QqMEQHaHeBCJQ0KLGgodDyKInyU9fhtS4gXaIfNmSh8PYDEmdg42KYS6jOt5EfkPqafhQ0i7RBioiHvy8vd1HWfAwKhh7SFuv+hh+aUgcL+utKhfluCN5A9lMVwJu5SuCDwbF0rVdIVpN1N8NtA/9thjAcOPClNLDn5n6k7I8zb95Bmm87EEq6XckF+VV3xvl+dD54fuYPHAAw9U4lBXNl4+SiG4GqhPQnOr4I6gbnMV6pR2yYH7BP3tCJ2ztdqBsEs8wISDNl4n5JtKrM9Z/uiCvpJhEMiGwOcVl05iflbfOSBqjkVCZwiWaBEs8kW3rs3vlLdqEOPfcFURo/fRpgABQkRn1ioQfLqQQ4rBb9nygx1ty9oXhM4Rk5tdt/Q95maE8JuP2725hvHgMYb6yhXLVfTKhsDnWRgUjN/pAJASHZ1FuEXCAg9WJR1rkxoWg5qfsYBTcFGUi2yLcF6EaZ+/x5Yb5Yiv9Zl/V2l7Yq4aLLvKJ4d0GKS85Ny+vJ7rEs+GwGOCreu4ZonbdJUQYscyx9KmAdlhFtG6VFbTcsSWN7iAU4xx0/R033gQsO/vDKUxg5UkHQLZEPiyEEDwdSS/bFrrdn/sVmLGMgbyZpDxkkv9hoXBRjM+r3uqeFz3qfRYh3zH0Ge21wFolWEWgbFOa/3MgVmDRAikRGAM7iAR+AAtZOhpZuw6GoNVhvVtn++kSlLtiBmgOSiLkSAwhn4jAh+gMQ1N4PHC2cMPP7zrv5gPUOzGWdBR2PJowtSVnUeS/BGIZ3v5a7xeGorA16s+y9JAgOGbFNOS0cmwym+//fZym17sa57emChy+PDhciHaskdfdB2DBWQ6b2q4znU0tOG1ShsSga+CWotnWBAbQiBsT+LkyW4dyBvCzEnCW4271EHX+Ps1u27SheQIxLO9o0ePJtepKwXGMDiJwLuq7TnppGoIkHjVQkxuC4Tgw1uysWCJ8xEzyFySJwK0L2+U8AYtdYbbDrdY/D7CsqWwj64t+9yq99vLZOjt3Xqrptf3c6PdRtg3MF2mn8pPSGeKBw/bE95l+dqmxVQVXfF7s3gZf1mP6/wuyRMBDAX/Yh1tzrc76q7tIEy7oJ3w/zYJmwg6sDBO3sSr+iFp+fTMvWih5VNlYNhvSUP/gZaUH7NCjwDE9Mjlozh8tCg0wMov+YWKLz+sFRrXZJ6+qT42FH+jmw9EUZ7cJf74F+0ipfCBKGub1GVu4vVLhVVVnRlmXYZhfWfhF0n52Fd4h2BaZ23z50NrXfebrj5mlY0LJR7xAuhJhVGbKRSLaVgYWBGxjtzDNZt2cS8+wKqRPkVhvB5Mc/FXjuHlBPDkMwiS8SBAnYUvJZZvQ/epNW2afhn3RcuTfooLp+53u69JyGyVMmG959pv5EKpqEn8X0zblxUIHbK3XSDxAs+y6bW9n6mhTW2HfsW6re633HJL+XkES4cOmcubmaZTrmEqrHBzcBh5Qqb0CcTXHe2SY5HwLORph2/DkHj43PQMsZJf7LeGhOmH6ESe9E/Tifzpq/jxGRi4h7zQlWeq1o8W6Tz07yJwhzgVyw4NKjEWPgZFhdIICK1REfovJPIcjYF0aCyMQkwJjAAAG0NJREFU4F58I/TX+4jTEG1XAHrSwNEpd+GNTF8HWOOURTIOBKyuLOxCa/oUg4O1Z/oq7ZlrCORbRd5cb0rEqQ2ulXDy/ryUPvD44+ld+5x8OaviYctd5T8+wL84z79NWviWYz9kqIzSBxcaT/m/DO2ccEiJ9QoNfsjs5+YVOtfEH6FDVv4TDuompYRBe+pPlQ88ZU1MZv7xB/+VyCRe7wmWd6f/m9Ty6Srsygc+wyY5EXhXQDVJB4LwBEucBrDsf4WB6IO1uCutOO0mOnV1DwMhZfE6MKjw345iCRZIed8QhBmssxmdvH4+3scCUlzuRedenxwJPF5AXFSeMf9etSGANh5cITPtaZHRlRqDrgg8m0XM0EmSCFN19qx6wV3C9WWnVEwZeS6nLUf4+Fhgwhdogo4s9LDoyrTT9rzax6S4xvS0LyF9praLBBzRlTJI6hHYdHxoT7hYTAJ5F126byzdHMMsfeBh2j8IVpADb/v5yidviGzVTsFzkB/kj795SJ93HWjogR+QRu31MT9i1XN0CoRnu5RFgwP+brDj2JRO2CW+m5YWxokZHpQ9WOib1W78VCKlC8VPjfA5Vk3xva5t46QfyHZm2tX1dJ08YvdFaGNtVV/5efbH4jdEh6ZHINFO6gJ3lPclkz94U++4bJjy9l3nqwLnsWJNITcBW69jbvp1qU/ME74P09eGXjtbtWxduVBm2CQXAqcxUjF9dWgquYpM+qj8KhJftdK7eg4i57+bQ0b47CFS4nQOyIBzTwjEgyW+Un0E66jypYquB8uusKlKx2MBTrkJg5/XMTf9utRnngFC+x2LdEXgWxQ4VH4pFiUMZD49rl69WvjjypUrxYEDB+yxTkKm6rZFyBLEHRHIZmV3hqXjQ9wl8UeSApmUPlny60PishnOfeTVRZpghAvD9pD7NMGI38IAOJ2q4l831wzP4priwM/t3VOWTt94Wz5dhVtbW9OkKDdtMifBheA/UJZ7+2qDHW61qnaJ6w2X4Fjk5MmTxd69e4udnZ1puGfPnoJje3u7PKzdWVhZtlDZU0lpgWP5Vbkb2DHRlWVMOqQXgJgeWKJ9C/mSD2Xsa1bRRxmw7LDQPV5t42OykgzTuMx2PZcw3kKXi1596MEMKK4PzulbY5KuLPBsXCgGftWWPkiXaX8bgThTkHcbnXN5ljqJSaKqE9VdY2Bm6tu2DlPhEZcrlR51+eJu9Dp2ZfDU5ZfyehWB0zbHJl0ReHa7UHA3ILYLgjjTcba9hVF2Om3nelPhi2T2xpY9Ewhl1zX7TeEsAtQJB+4Q3CIc1AlCaO4Teyp0sjIaBsyyvnC5jFUoqxfcPzkJ7pMqN1VOOnapS+zmxH3HTpSNFT9ypXSheD2I17lUwjdKGrtUcAEEn9mMdRIqurQG4/x0LgSqEMCapc3YwUszuQi6xdb3GF1Uy+BJ+awuCIdwgS6jX9N7u7LAs3OheABooFVTJhotRB6so11kjqsk7MPe5S6hspnK4w6QCIFlEGDHjJFGWMTc1eaWSaure6tcgvSVdRfvYh1zebsi8Gx2oYQOUitMkQJh75qq2wNMqzjmrUKzSs10k2m9RAgsgwBuFHYumYRZXenOo82lEHZr4RKMXSeB1DeifeO2o+z05VR10Lbeu9qFst1WkSGep7FSaWH6OvNKuOVNZdaRNz6yMO0qnxd5G2IKl0EAwmbNxARCT/Htd/5TkX2fPiZv2vimtG/KSZ2MlbytHXURjsIC9wWl4WKR87p6mIb4n2biWNwQP4tvqugZaHSyAgK0O0jjxIkTM0/TtmhjLNSGKf3Mb21PyBPSZubIUSfBrVDqUPe7rueHQFcW+OgI3FcFVjcHFpEJnYyXLTgkQqBLBOpI3OdB+7MDI6JpO7TdPL5N+3bt87C47cBgAJGMCwER+LjqS9quCQI2A1zlv61D7F5IC+JeRXDpMBPV7HIV9NI/IwJPXwfSYIMRwFJmYT3+/EPfkNj7C5vi7+4bz1Tpi8BTIa98hYBDACsa/zTuDsL4pSZ368pRfOv42HGVyOJeGcasHhSBZ1UdUkYIfBQBI3Lb6hYvei7CiTc9IWnzo8dul0XP6/dxICACH0c9SUshUCKwyN/NYmfTBU9BOn4EuiLw7L6FMv6qUQmEwG4EzKre/YuuCIHVEdhe/VE9KQSEgBAQAikREIGnRF95CwEhIARaICACbwGeHhUCQkAIpERABJ4SfeUtBISAEGiBgAi8BXh6VAgIASGQEgEReEr0lbcQEAJCoAUCIvAW4OlRISAEhEBKBETgKdFX3kJACAiBFgiIwFuAp0eFgBAQAikREIGnRF95CwEhIARaICACbwGeHhUCQkAIpERABJ4SfeUtBISAEGiBgAi8BXh6VAgIASGQEgEReEr0lbcQEAJCoAUCIvAW4OlRISAEhEBKBETgKdFX3kJACAiBFgiIwFuAp0eFgBAQAikREIGnRF95CwEhIARaICACbwGeHhUCQkAIpERABJ4SfeUtBISAEGiBgAi8BXh6VAgIASGQEgEReEr0lbcQEAJCoAUCIvAW4OlRISAEhEBKBETgKdFX3kJACAiBFgiIwFuAp0eFgBAQAikREIGnRF95CwEhIARaICACbwGeHn0LgRdeeKG45557iqNHj751UbESATABGzCSCIEuEdiaBLEELUp4/fr16XH16tXCH1euXCkOHDhgjykUAsXtt99evPTSSyUSt912W/Hcc88VhJssNqi9+uqrU1xefPHFTYZEZf8YAidPniz27t1b7OzsTMM9e/YUHNvb2+WxtbVV3m1hFXiywKtQ0bWlEbDBnwch8meeeWbpNNbtgaeeeqow8qZs+/btW7ciqjyJERCBJ66Adcn+/vvvnynKww8/XEBgmyqU/cknn5wp/kMPPTRzrhMh0BYBEXhbBPV8icDdd9+9C4kHHnhgI0kc4qbssWy6SynGQ+ftEdhpn4RSEAL1CBiRxRZ6/RPj/mVTB61x19p4tZcFPt66y1pz7++F1GJ3QtbKr6icyHtF4PTYygisFYGzYPTYY491vmXr4MGDBSvBdFDbabEy4hvy4PPPPz+zaIf/F/zWVWLyZgB7/PHH17W4KlcmCKwNgUPe7LV99NFHC8iDeBdCWrZ/l4Up0hWJL0b2zjvvLOvBW+Lgt44kXkXetBstWi5uJ7qjHQJrQeBG3ka0QOK3b7WBCCK64447pklA3ljkdFDJfAQ2gcRj8qat0EYou0QI9I3A6Am8irwBzVt+bUDcv39/ES/AWZ64ayTzEYDIGFj9ILgulngVeTOw02YkQmAIBEZN4Eak3vI20Lq0gOqsedw1dOK6302XTQ/ZPgexrROJr0Le2ka46T2h+/KPdhsh09TDhw9P/dPdQ1OdIpb9+fPnpz9iTTKA8Op4DpbXE088UTz77LOlfgxiphNhl4PaFICPRU6cODFzifrxhEX+kDj7xe1esEOOHDlShmP4w2ANefs3TRmYKJthbeWIDQvK/fLLL9vPnYfkZ8YEoeV/33337ZpFdp65EkyDQHgFeirh+ycTjmvXrk3C904mly9fnly6dGly4cKFyblz5yZnz56dnD59ehLe458+kyJy/PjxSegsfMNleoRONHnwwQen53fddVdnqj3yyCPTdImHDjE9Nx3QB71SSfjGxuTee+/dpZfpN3T49NNPV0JBO6KuvD7BRVV5b24X0T0MgjO6UxauV0kYmGbu9WUeMk7bpG3QRiR5IBAG8smpU6cmZ86cKdsPHHvx4sWSc+FeONj4eJ7Go3OhYOmwE8QsjdARyql5bAH1aW1iOcZbxNAHvcyqRK8hhby9VThk3lV5mfUX/4aVSl1htZqAWe6uKKtfXy4sW84pU5UwC8lB0J22wYxVsl4IjMqFYh3dVwGdyEjTkzrT1WUWGe3ZuDPiBvDTXsgHYYsYv7HAaS4V0oCIOA+zgfK+of7kQhZW3qpX6+03I3EwtM/PUoeQYS6uKNOVkHplgIzJ29qdv9fHvQvJX08V9/qn0kH5dovAaD4nGy8aAQNWsN9r6z9p2i1Mb6WGZR9cJdMLEGeYnk79uvYDxD6kbzf+5GRwIZWqoG88KJmOPpxHuP4+4jaIVV0nPxvc4t+rzsHJSJzfeT4nEqd+47UWbzRUlclfgzRZlyCdKoypG8rcRBhImpCwv+/YsWMzSYfp+My5TtIg0NXnZAvvXzGfS04+cPyLoeHP+BLDQuIk9rGGTj9zT6iWXs7JOxZ0DJ16V374Hev8o3Eabc/j8rZNb8jnY+wCoWXhr61aa0HXsQj6+3bR5brQWDDIVc+N8IFjbcQvzeA7xQLE6vUyz4rhGSxSf3gfrE9nUZytg7FgRTGdjv3i+B1jf338bFfnZnFbelh8YxGwC8Q4VdfqvYm1OX2o4wh5x3WHjug6FsESl6w5An6EyskCZwU/EOOMBXHo0KG5Fi1WOfewU2RVwWLGmo8P9Gmyis9zWOmh2UwPytH3DhWsK58neoxNwqA6UwZwi2daQ5SpavfImCxvw4g24NsEbWTMQh9iVmtlIt6kT+ZY5q4s8CxdKMEvOq0kq6w2pDx0BTIIVJERxNCXrAOBV+FG/eNCC371vqCbpku7i9115E9djlHWicBjd5DxAoP8GEm8KwLPahsh01MW4/w0lRdnghVWfqQqVNooJDSqcrHJuwWYzlYtxI6iQAMpCW64x2L3FtdYCPTtomuVLH3y8oIu8TX/u+LDIFDluiRn+pXfyDCMNvnkkg2BUxH8Gy4v1nlif7e/J+c4hBP7xSHxISS3LWxNy2wkzsAdS59lqkrb2h86SdIiYG8XV2kR77Spumddr2VD4Cy6xYsu7L9OuZDVttIpj98i1za9ZZ6vIqRlnk95L4TJAmIsfS7MVqXNtr8xk/e8hf0Y2zGfVw32Yy7PMrpnQ+A0tuAjntEdAsRiXeaFnJkEEp4w8LAvPR6Abr311oRajSNrpsTxW6VYw+wZ70tImzy88F+E+nTb+Lz6iI958InxCJsT4kvTcwbaTZVsCJwKoBOFhZddn4K1r/6NpZLwmcZb0NCdRhgTeh9liomojzz6ShPCjP/9GmsJffuhITvyiLdjjn3dYl2sU9YoqsrCNX7bVMmKwKkERlNILiYhOjZ7wmM3S1xxTIXxic07qqbLcTrxOfk2IV/0rCLvsIumtCqHsIrG6j4Bu3iNgE8ScH0I3IzE/eIz7WDMJL4ubhTaNP0PIwjSZiZLPdGXh2gbMR9kc+63R+W0D5wtZezpDkDNHKEia/dUs9Uwvr/r83nbGcNMYVf+obFN2M7Vt/hthPN07FuPVdOv2nvd57bLRXqGxedddZlSn0X61v3u+8TY94HXlXGM17vaRpjlPnBfIf4TsUbGYcTd9YJH3T5Re6arsKoTMNgE98+uDh9mEXNfPPLlbBtnYLMyDjFgxPrywg17tVfJOybvoQa9uAzxeawX+K5C4mCyKjaxTsue+zJUtd1l09P93SDQFYGP4mNWVVPr0JnKRU/85iZMs9i50qeETjDjj8W1gsskdq8wvUPvocR/zIpps00rfbxPXfBDggV1wCJk068x4u/mfhOmx/iic5n6owvbWO2Lk+gZSLFcrzGd60LwYBcSaziGjW+vdc+1vU5e1h59nHQD/bRNXs93gEBXH7MaBYGDFw0S/7jvSFynQ9ChLG7b9iDQJp3FCI6OWiXkCznZwOAJnN/4Up33qUNA3N8k76r8Vr3mCXzVNLp8jpevFu3fj33LuZG34VHV9qjjRYNUneFh6aYIReApUN+dZ1cEnr0LxU9YcJPglghwzByB2EtXhXe3dOkH9n5E/PIILgNcOV6XsLBS65/35egj7vXIIQ4+8yQMcDPYDelumqdX3W+0PerXY0sZ5ol3X/jnUsVxTUnyQKArF0p2u1BC464VrGUsZaxgL1zDjTHvbS1//7Jxb2GjA/vSsbyZnpqgE5Zaqqk/Fi86xNiYfkOH5sKpyje2vNlxRB3Oe6YqnSGvUa/UL7qaLLKwcSflINYuhnTp5VDuTdBhVP+Rhwqhk9PZcVGYu4TrdK6+xBM4PltP3OTJVJopdUrBXbHIZQFGse6r6ow7y0vswqkiY/KO1wvGQN5WTmt7lD3+x8x8MqGqzPashcH+s2gZ0pa7EPJOZTx0ob/SWA2B0RG4FRNrgo4U7xu23/sKYwJsuqDVlz7LpDtkB4/zGjt5G851JM7gGHabzJB4Ews8HggtH4VCoAkCo3KhxAXCCqfTsPgVi1lI8fWuzskz+EXLmUBXaa5rOpBbbHmzyMz1JlZrbrgYiXt3ipXRD/Axgfv7cyuT9BknAqMmcCDHgqHzxJ0j/pZGm+qJBwPyIs/YymyTxzo96wdUIzZCk6G3WFq+XYZG4n7NgTLytrAvq89zjIOV11/x/BAYPYEDKZYOvkReszWBJLoSXts1IQ/yiq0r+31TQz+A2sBm5O2t0nUgb6tjI3Hf1lgviWcbdr9CIdA1AqP1gcdA0Jnwi/PSBHH/ckh877LnEDbpQdqkL9mNQGxdrjt5ewRsd4ctqpu/H/eeFw36Hg3Fu0BgbQgcMCCRPnaD2ODQBeDrmgauLPuwPi4nXAle1sny9uWyeB2J2++EInCPhuJdILAWLpQugFAa7RDwFrh3mZDqupO3IQeJe3dKjIO5lux+hUKgLQIi8LYI6vkSgTpy2hTytmYQk7hdJ/SDnL+uuBBYFQER+KrI6bmFCGwaeRsg80jc7lEoBLpAQATeBYpKY5d1uankbU2hisRlgRs6CrtCQATeFZIbng4uFL+Ns8tdQGOFlhfNTMCmzs1k9ygUAssisFa7UJYtvO7vFgGsTnYBsSNFZPXRl8zYSsiWSk/m3aKu1DYZgdF8D3yTK0llFwJCYL0Q6Op74HKhrFe7UGmEgBDYIARE4BtU2SqqEBAC64WACHy96lOlEQJCYIMQEIFvUGWrqEJACKwXAo0JPP6PK+sFg0ojBISAEBgfAo0JfHxFk8ZCQAgIgfVGoJbAsbhlda935at0QkAIjBuBWgL3xRKRezQUFwJCQAjkgUAjAs9DVWkhBISAEBACHoGlCFyWuIdOcSEgBITAaggYl1pIKj7eNNWlCLxporpPCAgBISAE+kdgJQJfZaTovyjKQQgIASGwWQgsTeAi781qICqtEBAC/SBgXGrhKrksJHAS9weZcD6ZTFbJT88IASEgBDYaAbjTSLsqtGtNQFpI4HEilvjVq1fjn3QuBISAEBACCxAw7jQuXXD73J8bEziZWYaEV65cmZuwfhQCQkAICIHdCMCdnkuNW+3a7ifqr8wQeJxAVcJ27c0336xPVb8IASEgBIRAJQJwp/EoN8S8W/lQzcUZArd7fOJcs3MLuSYfOChIhIAQEALLIWA+cM+nFif0Ep/734hXErjdZIlybnHC7e3tglHk+vXrdqtCISAEhIAQWIAAnHn58uUZPjVutUfjc7teFc4lcHvAEvThtWvXitdff91uUSgEhIAQEAILEIAz4U7jUoxh4ohdW5DEzM8LCdwStdAy5NxWU2dS1IkQEAJCQAhUIgBnwp3wqOdSrq0iuwjcEiK0OAkTtwwt8zfeeKO4dOnSKvnqGSEgBITARiEAV3IYjxrH+nBZQHYReJyAT9ziRuDcKwKPEdO5EBACQmA3AsaVxp8xkfOEcazFd6cye2UhgVtClrBlakqwmPnaa6/NpqozISAEhIAQmCIAR7J4abzpeRRuRSycPtQgUknglpCRtg+9AsTZEsPGdNwpEiEgBISAEJhFAG6EI+HKmD89t/KUce9sCvVnO/U/zf5CwkbYPiSOgmyP2dnZKY/ZJ3UmBISAENhMBFi0vHDhQrntes+ePVMCNz71BO7J28fnIVdpgfOAJWAZ2LV4BEEpDgj83Llz5RaZeRnqNyEgBITAJiDAdkE4EW6ENz2Bc27caly7Cia1BB4n5jMzEjeFjMC555VXXtH2whg8nQsBIbBRCGB5w4UIRO650vgzJnEjcgubADaXwC0hwvgwJbxiLGhyHcVx2EuEgBAQApuGANwHB8KF+L7hSDuMNwljTl0Fp7kEXpUgmVrmpowpRwiJE1KAj3zkI1VJ6JoQEAJCYC0RgPPgPjgQIjduNK600JO3B4Lry8jCRUwStI+v+IRRpE4g8be97W3l9kIKcfPNNxc33HBD3e26LgSEgBAYNQLwHORNuHfv3tKQZVOHEbgP4U5P4MuStgdqK5Dzwn+t428hzoFj3kJ8PJwT+sNGG6YRN954Y0nkELtECAgBIbAOCGCsQtzsxIO4jQc9YVvc+NBCI3HDYRUiX2iBkzgJG4lbJihhq6umQBzyu1njFNAKedNNN5WEzgglEQJCQAiMCQEWKOEy3qzEOEXM6oYXzfImXkXexqG+zFXX/O918UYWuD1sJE5ocUiaOCGHWeAWtxAFKZgVmDQ5x7VC4X2hVy2M6alQCAgBIdAWAeM1OA3ShrtwkRA3gbs4514j7KqQaxxwmz9Ipw3fLUXgZGbE7UNI2gpL3Ei7Kk4auFH4zQPBdYkQEAJCIHcEMDYhY7wLiJGzhVjdxC2EoDn3xO1J28eXLfvKBE5GkLYROYRsJG4hI5eRuA/tdwoFGCbcz28cEiEgBIRASgSMcCFiE4xOuIzfjLAXhZaODy09rrWRpQmczDzBWtyIt4rIq8jb7rPnLIzTrzrnmkQICAEh0DUCnlAt7onX4mZRe/Lmt/jcrqGnPWs6c95WViJwy9TIm3MjYB8aSfvQ4tzn45ZWHFpeCoWAEBACQyFg5OpDI2BCT+Dxuf3m70dvzk183K6tErYicDI0wrW4nRNyxCQdn9t9Flo6hCb8JhECQkAI9IlATKp27kPiMUHH59wTH15vS89fWzX+lgN6xRRQxgi2SjEKh3AP5G33x4RtacThimrpMSEgBITAygh4LiNu5xZvEpK5PRfHV1YserC1BW7pGfHG50bU9nvdOc/ZPXHc0lQoBISAEBgKASNfH8bx+BzduGbXTdf43K63DTsjcFPEkzDX7NyHPl51j6XlQ3vGX1NcCAgBIdAVAnUka9eXDdHLnulKxzid1i6UOEEU9mRbVQC7ZvdZ6NOquuZ/V1wICAEh0CcCxlOWh51byHWLW2j3+t/8ta7jnVvgXsE6EvbXfbzJs/4exYWAEBACfSBQRcjkE1+Pz6vu6UM/S7NXArdMCOuIetFvPg3FhYAQEAIpEagibNNn3m92T9fhYATuFZ9H5v4+xYWAEBACOSOQgrQ9Hp37wH3idfG40CL0OqR0XQgIgVwQiHkrB72SEHhc8ByBiXXUuRAQAkIgNwTq/61ObppKHyEgBISAEJhB4P8DwaDEjf4bVvYAAAAASUVORK5CYII=;" parent="1" vertex="1">
                    <mxGeometry x="-49" y="164" width="139.02" height="172.26" as="geometry"/>
                </mxCell>
                <mxCell id="AhNlXJ4hRKMXUMh4VS_F-13" style="edgeStyle=none;curved=1;sketch=1;orthogonalLoop=1;jettySize=auto;html=1;fontFamily=Architects Daughter;fontSource=https%3A%2F%2Ffonts.googleapis.com%2Fcss%3Ffamily%3DArchitects%2BDaughter;fontSize=20;endArrow=open;startSize=14;endSize=14;sourcePerimeterSpacing=8;targetPerimeterSpacing=8;entryX=0;entryY=0.139;entryDx=0;entryDy=0;entryPerimeter=0;exitX=0.586;exitY=-0.036;exitDx=0;exitDy=0;exitPerimeter=0;" parent="1" source="AhNlXJ4hRKMXUMh4VS_F-12" target="AhNlXJ4hRKMXUMh4VS_F-11" edge="1">
                    <mxGeometry relative="1" as="geometry">
                        <mxPoint x="-216" y="236" as="sourcePoint"/>
                        <mxPoint x="-52" y="190" as="targetPoint"/>
                        <Array as="points">
                            <mxPoint x="-185" y="197"/>
                            <mxPoint x="-111" y="170"/>
                        </Array>
                    </mxGeometry>
                </mxCell>
                <mxCell id="AhNlXJ4hRKMXUMh4VS_F-12" value="Double click to add more shapes" style="text;html=1;align=center;verticalAlign=middle;resizable=0;points=[];autosize=1;strokeColor=none;sketch=1;hachureGap=4;pointerEvents=0;fontFamily=Architects Daughter;fontSource=https%3A%2F%2Ffonts.googleapis.com%2Fcss%3Ffamily%3DArchitects%2BDaughter;fontSize=20;" parent="1" vertex="1">
                    <mxGeometry x="-408" y="245" width="314" height="28" as="geometry"/>
                </mxCell>
                <mxCell id="AhNlXJ4hRKMXUMh4VS_F-16" style="edgeStyle=none;curved=1;sketch=1;orthogonalLoop=1;jettySize=auto;html=1;fontFamily=Architects Daughter;fontSource=https%3A%2F%2Ffonts.googleapis.com%2Fcss%3Ffamily%3DArchitects%2BDaughter;fontSize=20;endArrow=open;startSize=14;endSize=14;sourcePerimeterSpacing=8;targetPerimeterSpacing=8;exitX=-0.008;exitY=0.571;exitDx=0;exitDy=0;exitPerimeter=0;" parent="1" source="AhNlXJ4hRKMXUMh4VS_F-14" edge="1">
                    <mxGeometry relative="1" as="geometry">
                        <mxPoint x="-506" y="356" as="targetPoint"/>
                        <Array as="points">
                            <mxPoint x="-477" y="379"/>
                        </Array>
                    </mxGeometry>
                </mxCell>
                <mxCell id="AhNlXJ4hRKMXUMh4VS_F-14" value="Click to add special stuff" style="text;html=1;align=center;verticalAlign=middle;resizable=0;points=[];autosize=1;strokeColor=none;sketch=1;hachureGap=4;pointerEvents=0;fontFamily=Architects Daughter;fontSource=https%3A%2F%2Ffonts.googleapis.com%2Fcss%3Ffamily%3DArchitects%2BDaughter;fontSize=20;" parent="1" vertex="1">
                    <mxGeometry x="-414" y="365" width="250" height="28" as="geometry"/>
                </mxCell>
                <mxCell id="AhNlXJ4hRKMXUMh4VS_F-19" style="edgeStyle=none;curved=1;sketch=1;orthogonalLoop=1;jettySize=auto;html=1;fontFamily=Architects Daughter;fontSource=https%3A%2F%2Ffonts.googleapis.com%2Fcss%3Ffamily%3DArchitects%2BDaughter;fontSize=20;endArrow=open;startSize=14;endSize=14;sourcePerimeterSpacing=8;targetPerimeterSpacing=8;exitX=0.458;exitY=-0.036;exitDx=0;exitDy=0;exitPerimeter=0;" parent="1" source="AhNlXJ4hRKMXUMh4VS_F-17" edge="1">
                    <mxGeometry relative="1" as="geometry">
                        <mxPoint x="512" y="43" as="targetPoint"/>
                        <Array as="points">
                            <mxPoint x="636" y="28"/>
                        </Array>
                    </mxGeometry>
                </mxCell>
                <mxCell id="AhNlXJ4hRKMXUMh4VS_F-17" value="Drag or click this arrow to rotate" style="text;html=1;align=center;verticalAlign=middle;resizable=0;points=[];autosize=1;strokeColor=none;sketch=1;hachureGap=4;pointerEvents=0;fontFamily=Architects Daughter;fontSource=https%3A%2F%2Ffonts.googleapis.com%2Fcss%3Ffamily%3DArchitects%2BDaughter;fontSize=20;" parent="1" vertex="1">
                    <mxGeometry x="558" y="65" width="338" height="28" as="geometry"/>
                </mxCell>
                <mxCell id="AhNlXJ4hRKMXUMh4VS_F-22" style="edgeStyle=none;curved=1;sketch=1;orthogonalLoop=1;jettySize=auto;html=1;fontFamily=Architects Daughter;fontSource=https%3A%2F%2Ffonts.googleapis.com%2Fcss%3Ffamily%3DArchitects%2BDaughter;fontSize=20;endArrow=open;startSize=14;endSize=14;sourcePerimeterSpacing=8;targetPerimeterSpacing=8;exitX=0.521;exitY=0;exitDx=0;exitDy=0;exitPerimeter=0;" parent="1" source="AhNlXJ4hRKMXUMh4VS_F-20" edge="1">
                    <mxGeometry relative="1" as="geometry">
                        <mxPoint x="501" y="138" as="targetPoint"/>
                        <Array as="points">
                            <mxPoint x="593" y="147"/>
                        </Array>
                    </mxGeometry>
                </mxCell>
                <mxCell id="AhNlXJ4hRKMXUMh4VS_F-20" value="Drag blue dots to resize" style="text;html=1;align=center;verticalAlign=middle;resizable=0;points=[];autosize=1;strokeColor=none;sketch=1;hachureGap=4;pointerEvents=0;fontFamily=Architects Daughter;fontSource=https%3A%2F%2Ffonts.googleapis.com%2Fcss%3Ffamily%3DArchitects%2BDaughter;fontSize=20;" parent="1" vertex="1">
                    <mxGeometry x="499" y="196" width="236" height="28" as="geometry"/>
                </mxCell>
                <mxCell id="AhNlXJ4hRKMXUMh4VS_F-24" value="See an outline or zoom in and out" style="text;html=1;align=center;verticalAlign=middle;resizable=0;points=[];autosize=1;strokeColor=none;sketch=1;hachureGap=4;pointerEvents=0;fontFamily=Architects Daughter;fontSource=https%3A%2F%2Ffonts.googleapis.com%2Fcss%3Ffamily%3DArchitects%2BDaughter;fontSize=20;" parent="1" vertex="1">
                    <mxGeometry x="395" y="619" width="320" height="28" as="geometry"/>
                </mxCell>
                <mxCell id="AhNlXJ4hRKMXUMh4VS_F-25" value="" style="edgeStyle=none;curved=1;rounded=0;sketch=1;orthogonalLoop=1;jettySize=auto;html=1;endArrow=open;sourcePerimeterSpacing=8;targetPerimeterSpacing=8;fontSize=16;fontFamily=Architects Daughter;fontSource=https%3A%2F%2Ffonts.googleapis.com%2Fcss%3Ffamily%3DArchitects%2BDaughter;startSize=14;endSize=14;exitX=1.006;exitY=0.464;exitDx=0;exitDy=0;exitPerimeter=0;" parent="1" source="AhNlXJ4hRKMXUMh4VS_F-24" edge="1">
                    <mxGeometry width="120" relative="1" as="geometry">
                        <mxPoint x="636" y="625" as="sourcePoint"/>
                        <mxPoint x="816" y="625" as="targetPoint"/>
                        <Array as="points"/>
                    </mxGeometry>
                </mxCell>
                <mxCell id="AhNlXJ4hRKMXUMh4VS_F-26" value="Expand to change styles" style="text;html=1;align=center;verticalAlign=middle;resizable=0;points=[];autosize=1;strokeColor=none;sketch=1;hachureGap=4;pointerEvents=0;fontFamily=Architects Daughter;fontSource=https%3A%2F%2Ffonts.googleapis.com%2Fcss%3Ffamily%3DArchitects%2BDaughter;fontSize=20;" parent="1" vertex="1">
                    <mxGeometry x="726" y="-39" width="233" height="28" as="geometry"/>
                </mxCell>
                <mxCell id="AhNlXJ4hRKMXUMh4VS_F-31" value="Right click to show a menu" style="text;html=1;align=center;verticalAlign=middle;resizable=0;points=[];autosize=1;strokeColor=none;sketch=1;hachureGap=4;pointerEvents=0;fontFamily=Architects Daughter;fontSource=https%3A%2F%2Ffonts.googleapis.com%2Fcss%3Ffamily%3DArchitects%2BDaughter;fontSize=20;" parent="1" vertex="1">
                    <mxGeometry x="36" y="505" width="263" height="28" as="geometry"/>
                </mxCell>
                <mxCell id="AhNlXJ4hRKMXUMh4VS_F-34" value="" style="shape=image;verticalLabelPosition=bottom;labelBackgroundColor=#ffffff;verticalAlign=top;aspect=fixed;imageAspect=0;image=data:image/png,iVBORw0KGgoAAAANSUhEUgAAAk4AAAGQCAYAAABYhe83AAAAAXNSR0IArs4c6QAAAJBlWElmTU0AKgAAAAgABgEGAAMAAAABAAIAAAESAAMAAAABAAEAAAEaAAUAAAABAAAAVgEbAAUAAAABAAAAXgEoAAMAAAABAAIAAIdpAAQAAAABAAAAZgAAAAAAAACQAAAAAQAAAJAAAAABAAOgAQADAAAAAQABAACgAgAEAAAAAQAAAk6gAwAEAAAAAQAAAZAAAAAAGlAh6AAAAAlwSFlzAAAWJQAAFiUBSVIk8AAAAm9pVFh0WE1MOmNvbS5hZG9iZS54bXAAAAAAADx4OnhtcG1ldGEgeG1sbnM6eD0iYWRvYmU6bnM6bWV0YS8iIHg6eG1wdGs9IlhNUCBDb3JlIDYuMC4wIj4KICAgPHJkZjpSREYgeG1sbnM6cmRmPSJodHRwOi8vd3d3LnczLm9yZy8xOTk5LzAyLzIyLXJkZi1zeW50YXgtbnMjIj4KICAgICAgPHJkZjpEZXNjcmlwdGlvbiByZGY6YWJvdXQ9IiIKICAgICAgICAgICAgeG1sbnM6dGlmZj0iaHR0cDovL25zLmFkb2JlLmNvbS90aWZmLzEuMC8iPgogICAgICAgICA8dGlmZjpSZXNvbHV0aW9uVW5pdD4yPC90aWZmOlJlc29sdXRpb25Vbml0PgogICAgICAgICA8dGlmZjpYUmVzb2x1dGlvbj4xNDQ8L3RpZmY6WFJlc29sdXRpb24+CiAgICAgICAgIDx0aWZmOllSZXNvbHV0aW9uPjE0NDwvdGlmZjpZUmVzb2x1dGlvbj4KICAgICAgICAgPHRpZmY6T3JpZW50YXRpb24+MTwvdGlmZjpPcmllbnRhdGlvbj4KICAgICAgICAgPHRpZmY6Q29tcHJlc3Npb24+MTwvdGlmZjpDb21wcmVzc2lvbj4KICAgICAgICAgPHRpZmY6UGhvdG9tZXRyaWNJbnRlcnByZXRhdGlvbj4yPC90aWZmOlBob3RvbWV0cmljSW50ZXJwcmV0YXRpb24+CiAgICAgIDwvcmRmOkRlc2NyaXB0aW9uPgogICA8L3JkZjpSREY+CjwveDp4bXBtZXRhPgpgtfwkAAAyDElEQVR4Ae3dW6wcV7kg4Nq2Eww4vgQGonCxEZkkKAE7giPIIMY20pmTBxBBOho/zEN25g0BkskjIBmk84giPyDxMjrePIxQJARBIE3OSGD7EJIRHMYOSWZIlAhbIZGBYDtOmFx86anVe9d273Z37+6u26qqr6R236pWrfX9y93/XrW6KkksBAgQIECAAAECBAgQIECAAAECBAgQIECAAAECBAgQIECAAAECBAgQIECAAAECBAgQIECAAAECBAgQIECAAAECBAgQIECAAAECBAgQIECAAAECBAgQIECAAAECBAgQIECAAAECBAgQIECAAAECBAgQIECAAAECBAgQIECAAAECBAgQIECAAAECBAgQIECAAAECBAgQIECAAAECBAgQIECAAAECBAgQIECAAAECBAgQIECAAAECBAgQIECAAAECBAgQIECAAAECBAgQIECAAAECBAgQIECAAAECBAgQIECAAAECBAgQIECAAAECBAgQIECAAAECBAgQIECAAAECBAgQIECAAAEC5QgcO3ulV07JSiVAgEA+gQ35Nrc1AQIEihX49fnlpOlfJU/FwiqNAIFCBCROhTAqhACBogT+35XlksLd4ytJVFFlK4cAAQJ5BSROeQVtT4BAYQLDh+jeTLOn/33BYbvCgBVEgEBuAYlTbkIFECBQhMCvzo1OkC5cKqJ0ZRAgQKAYAYlTMY5KIUAgh8ATFy73Lk6YDj48EpVjVzYlQIBALgGJUy4+GxMgUITAuUsL6xZjsvi6RFYgQKACAYlTBch2QYDAeIHjU/56LkwWf2zM4bzxpXuHAAECxQpInIr1VBoBAjMIhF/NTThCd01Jb6Ur//aV0XOhrlnZCwQIEChBQOJUAqoiCRBYX+Dp1670wq/mZl1evZwkv0+3nXU76xMgQKAIAYlTEYrKIEBgZoG/vDXzJqsbnMmx7WohHhAgQGAOAYnTHGg2IUAgn8CjU85rmrSXaedGTSrDewQIEJhVQOI0q5j1CRDIJRDmKBVxaqZwrG7cuZ9yVdDGBAgQmCAgcZqA4y0CBIoXCHOUilrCuZ9MFi9KUzkECEwjIHGaRsk6BAgUIlDG4bWQiP0fk8ULiY9CCBBYX0DitL6RNQgQKEBg1lMPzLLLP5ssPguXdQkQyCEgccqBZ1MCBKYTePLV+U49MF3py2uVMZo1y/6tS4BANwQkTt2Is1YSqFXgrxfL373J4uUb2wMBAkkicdILCBAoVaDKa8yFyeL/5szipcZT4QS6LiBx6noP0H4CJQqEJGaOk4PnqtFr6WTxp0wWz2VoYwIExgtInMbbeIcAgZwCIYmpY3nZZPE62O2TQCcEJE6dCLNGEqhe4FgBZwfPU2uTxfPo2ZYAgXECEqdxMl4nQGBugRjO6G2y+NzhsyEBAhMEFia85y0CBAiULjDLyNS+Gzf4zCo9InZAgMAkASNOk3S8R4AAAQIECBAYEJA4DWB4SIAAAQIECBCYJCBxmqTjPQIECBAgQIDAgIDEaQDDQwIECBAgQIDAJAGJ0yQd7xEgQIAAAQIEBgQkTgMYHhIgQIAAgS4J/Jenw4WKLLMISJxm0bIuAQIECBBokcB//2N6ev9fvSl5miGmEqcZsKxKgAABAgRaJ/BamjdJnqYOq8RpaiorEiBAgACBNgqkiZPkaerASpymprIiAQIECBBoo8DKCfklT1MFV+I0FZOVCBAgQIBABwQkT+sGWeK0LpEVCBAgQIBAewSWXrrc+48n01/T/fyN0ZPCJU8Tgy1xmsjjTQIECBAg0A6BB09f6idLi09eTP71T+mv6bIzESyMuHa25Gls0CVOY2m8QYAAAQIE2iFw02/e6j3w+0tJkuZOy0uaLGUJUy97baitkqchkOWnEqeRLF4kQIAAAQItEUhPNXDm7JXlxiwMfe2PS5pa0vQymjEkWMYulEmAAAECBAjUIhDOzxRGjrJl9eHKg2zUKXt/8H5LOir16betOY734z9fXi1hcNUuPZY4dSna2kqAAAECnRHoTwAfTJqSkAMtjzx9aeem5MTdbxtvccO1SdORFy/3vnjiYvKPT2WTo8Zv3uZ3JE5tjq62ESBAgEAnBUKS058Avqb16WDRpoV+wvS92zct3LV1zHBTSJr+w9qRplDe/U9d7Jf2wxcvJ8fOXunsyNOmNaaeECBAgAABAo0XuP/5kOSE3CYdHwkDTb10pGlL+jg99HbXpNaNSJrC4bkw0rRaXjpqte//LidRk4pq63tGnNoaWe0iQIAAgU4KhNGh5PW06f0xofSf/gTwheTYR64b7ZFNEB+RNIUNvviejSH1Spd+BrZcbnoIsKvznSROy73BvwQIECBAoBUC//zn7Bd0aaKzcjTuH9+3Mdl344aVBGiomWGdMUlTtmaYE9VfwrobllOH/3m2m0frJE5Zr3BPgAABAgRaIPDLv6Ynt8xGka4sJ1E/vPO60UlTaO86SVNYJcyJCvf9ckPZ6e17f0rPC9XBReLUwaBrMgECBAi0U+DEhTSjSfOm5cNq4S7NdybMZr7xxjQNGJoIPlZm88A7odw3Bp536KHEqUPB1lQCBAgQaLfAK6tnBl85jJZ+y9+4dfxX/dm/u378SNQQ1TfftykJidbgrZ+oDa3X9qcT8tC2N137CBAgQIBASwXCiFBY0iN1B27YkHxv+Vmuf//plpXDdQOlTPyF3sB6bXoocWpTNLWFAAECBAgEgTAPqT+RO0keenVlsnhOmW8+d6n3386tLet/3HZdMvZ8UDn3F+vmEqdYI6NeBAgQIEBgRoFtq4NCV0eczl5Ym+zMWOTq6v/0UjoZPJzmYGDpWtIUmj7+wOcAjIcECBAgQIBA/AL9RGZjqOfKHKcw8lTUj98Gk6ZQ7tqTi8ePU1ANJU4FQSqGAAECBAjEIPCZd6WZUzbHaeWcS3mvL/el36/MOg/lrty+dFM/Q4uhyZXWQeJUKbedESBAgACBcgX+63tWvtrDqFC4pUve68t97/TKsFUob+XcUP/pxql/kFdugysuXeJUMbjdESBAgACBMgXuf196iZRwGK2f12QjRL25ry+39tIqK+VuWRi4FEuZrYmvbIlTfDFRIwIECBAgkEvgyL8Pv/0KmdPKqFMvfZxeXy75+Ru9ac+9FNYLSdO9/25DcuTO7Dp3YQRrwnXvctW6GRtLnJoRJ7UkQIAAAQJTC4RRp8+8Z3gOUpo8pdf/vevxN5Mvp3OWJiVQ//mpi72w3hdPXEyWXrqSLN58NXmaeN27qWvY3BVDOmohQIAAAQIE2ijwqzd7/ZGm1batjEJlz9+eJN+8eVMSTm4ZztO05pQD/cGl5RGmMOIUkqeH/3Kls4foMjKJUybhngABAgQItFFgMHkKv4jrTxi/mkCFS6iES6/c+Ju3emfPZud8yt7P7pP+4br+/Kk2Gs3QJofqZsCyKgECBAgQaJzAp9+20L+Yb6h4L02MslMVTGpIyJf66y0nUuGwn6RpGUziNKnjeI8AAQIECLRAIIwoPXh7OmE8nFm8P+IUDsGF24glvJ/dtmxIjv3d9ckv77oupFKWVMAlV3QDAgQIECDQAYEHdi5fj+XIi5d7//znK8kvz14efVbxzRuScHLLcJ6mL75n48K+DthoIgECBAgQIEBgKoHs13XZ/VQbWYkAAQIECBAgQIAAAQIECBAgQIAAAQIECBAgQIAAAQLVCpglX633VHv73YXLvXOXFpIdm3rJx7am1xyyEOiQgP7foWBr6jUC+v81JNG94Es5kpAcPn2pdzA9rX1yITv52EDFtm5IDqdnbD248ouIgXc8JNAKAf2/FWHUiDkF9P854WraTOJUE3y22/5/mOfTn4ReHHM+jWzFcJ+eRmMpPQ/H4s1GoQZZPG6ugP7f3NipeX4B/T+/YR0lSJzqUF/Z54GnL/Ye+mOaNM24HHj/xuShO5yMbEY2q0cmoP9HFhDVqVRA/6+Uu9CdSZwK5Zy+sHn/02R7kDxlEu6bKKD/NzFq6lyUgP5flGQ95bjkSg3uYXh2npGmwaqG7ZdeujzF8b3BrTwmUL+A/l9/DNSgPgH9vz77ovZsxKkoyVnK+cWbvanmNK1XZjha99m3ieF6Tt6PS0D/jysealOtgP5frXcJe3OtuhJQJxXZnwz4+0uTVpn+vXRCeb88v7ZbY3bixIneK6+8suY1T6YT2LZtW3LXXXeVlozr/9PFoUlrHTt2LJqR77QupdOdOnUqCbdZlrRe/f9T+v8savGuW9oHZLxNrrlmj7/VG3nKgXmrlZ6qILn7+lxxnPTBN+2HxLTrDTbz/PnzycmTJwdf8riFAvfee2/y8MMPL/fREvt/up9eup8WCmpSkwWq6v9NNmpa3Y04VR2xUedpylOHgfJCAnT48OEkJCTDy6S/xPbt2ze8uucEChPYs2dPSJyWyxvor4XsYKC8NfsppHCFdE1g586dya5duwpt9he+8IVK+n+hlVbYRAGJ00SeYt88fvZKb+9v3iq20LS0cKbZcIbxkBytfkEVvpe1Be7evTvZvn372hfHPAvrhS+1vIsEL69gPdvv37+/P9pUdv/fu3dvcujQoXoaGelei/q/V1fzQhJTdCJTZVvCiHp26Lvs/l9lu7q+L4lTC3pAuDxLWD75yU8m4csjLPfcc0/ygQ98INmyZUv/+eA/Yf7PBz/4wcGX1jzesWPHmufZk3e+853JLbfckj295v6JJ5645rXshQ9/+MMj6xLeP3PmTPKnP/0pW3XN/Xvf+97kpptuWvNa9uS1115Lnn/++ezpNfchuRu3PPfcc8nf/va3kW9P2uekuvKZHMuR2AW8mPX/kKClX1Rr5ttMiqX+kySx+4TPquxzpez/X5cuXUpCn+j1rnahhYWF/nSC4VH8MDXh1VdfTT7/+c+v9uA33ngjCbdsOXjwYP/h0tJSb3FxcflDOnuzwPus/xdYpKLWEZA4rQPUhLe3p9e0C8vb3/72JP3y6D/+yEc+MnZEKHwIHD9+vL9e9s/gX6bDHxLZOufOnUtefPHF7OlM97/97W9nWj9bOdTlmWeeyZ6u3och9VDncXVdXXHMg/ABOW4CeZggPW4JH4zj9jn4gTtq+3HbhXXDh/a4ZdI+J9U1lDlpn+P2F14vw2fS/vK8l/X/UMZwe5vko/8k/cRjOIZZ3xj+/BmefjBpRPqrX/1qEpKdsAxvlyY1SbhlS0iWsuVnP/tZ8p3vfCd7uub+tttuS0K56y3Zftdbb973B/v/vGXYbjaBqz1ktu2sPa/Av7xx9c+ZecsY3u4fNvfj+K1vfauX3vrvhhGncSM1Yfh43KTscEht3GG1MNryyCOPDO999fngh8/qiysPwnZh+1HLpH1OqmtoX2jnuCX9S2/cW/3t5vX51Kc+NdI2fOCPcw0VmfTBHrYb94URDlXcfvvtY/c5brvNmzeP3CZDmfSBHmzC9tmyXlnZeqPu03Zf/Zwpsf+HfadfiiP/f42auxIS0nF9MpQV3MctYbvB0YXB9UJCH26jlhCrUfEKr41L5EeVU8RrYZ+hD4yqTyh/vZiHBGRcHwr/p0cZhH2F7cb9P5n0WVDH58+zzz6bPPbYY6vcIRHPPh9vuOGG5OMf//hYp6z/ZIeq+4WU3P9XK+pBqQJXP9BK3Y3CVwX8qmiVwoNuCFT1qyK/qutGf5rUymyqwvA6IYnLEp7h90KCkyU5g++tSXgG38jzuMTP/zzVsu1sAhKn2bxyr13oeTzS2hxOL/p7MNLzOB09enTkX/+5EecsYNKozpxFTrVZHfsNf9lnc0OmqmT5K/U/a0ru/1H1t/JJq9vDuIRkvRpMGmUd3HZc8jK4Tkh+sonWg6836XHJ/b9JFI2uq8SpjvA5c2wd6vYZi0BJ/T+2RL1O7lJGS+psUJv2XVL/bxNR7G2RONUQoSMvXu7d/9TF3Hs+cud1yf3v2yiGuSUVUKWA/l+ltn3FJqD/xxaR2evjIr+zm+XeIiQ7B96/MVc5YXtJUy5CG9ckoP/XBG+3UQjo/1GEIVcljFbk4su38YGnL/Ye+uPlmQsJSdNDd4Qr/FoINFdA/29u7NQ8v4D+n9+wrhJ8+dYlv7Lf/rDtM+k5fNIL9q67pLnSkds2GWlaF8oKTRHQ/5sSKfUsQ0D/L0O1/DIlTuUbT7WHB09f6j3w0pVk5AWA0wv5PnjzhuSBSH89N1UDrURggoD+PwHHW60X0P+bFWKJU4TxeiK99lw4jf6O9Izgu9Nr0EVYRVUiUJqA/l8arYIbIKD/NyBIqtgcgUcffXSK43nNaY+aEiBAgAABAgQKFwhnRE4L7X3hC1+QOBWuq0ACBAjEIRDORRYunfWjH/2oN+7yQXHUtNu1cJHfSOMf/gNlF5vMzr4bLhnwk5/8JNIaqxYBAgQI5BEI1/H79re/3S9i3rO159m/bacTkDhN51TLWuMuhFlLZeyUAAECBAgQSCROEXeCgwcPRlw7VSNAgAABAt0TcObwBsV81BW8G1R9VSVAgACBKQVOnz495ZpWq1pA4lS1eI79SZxy4NmUAAECDRI4depUg2rbrapKnLoVb60lQIAAgUgFwuRwS/wCEqf4Y6SGBAgQINAhgdtuuy1ZXFzsUIub1VSJU4PitX//fmcRb1C8VJUAAQLzCNx66639xMm5nObRK38biVP5xvZAgAABAgQItERA4hRxIMPxbse8Iw6QqhEgQIBA5wQkTp0LuQYTIECAAAEC8wpInOaVq3i7nTt3VrxHuyNAgAABAgSGBSROwyKRPncOp0gDo1oECBAg0CkBiVOnwq2xBAgQIBC7wMsvv5yEa5X2er3Yq9rJ+kmcOhl2jSZAgACBWAUef/zxxLVKY41Okkic4o2NmhEgQIAAAQKRCWyKrD6qMyAw+BfH9u3bB97xkAABAgTaLuB6dXFG2IhTnHHp1yoc4w63sOzZs6d/7x8CBAgQ6IaAxCnOOEuc4oyLWhEgQIAAAQIRCkicIgyKKhEgQIAAAQJxCkic4oyLWhEgQIAAAQIRCkicIgyKKhEgQIBAdwU+//nP969Tun///u4iRNxyiVPEwRms2r59+wafekyAAAECBAjUICBxqgF92l0uLi4m4WYhQIAAAQIE4hCQOMURh2tqsXnz5n7SJHG6hsYLBAgQIECgNgGJU230k3d89913L0xew7sECBAgQIBA1QISp6rF7Y8AAQIECBBorIDEqSGhS39dYQSqIbFSTQIECBBor4Br1bU3tlpGgAABAg0UeOyxx5IXXngh2b17dwNr3/4qS5zaH2MtJECAAIEGCfz1r39Nwm3btm0NqnV3qipxijjWS0tLEddO1QgQIECAAAECcQn00upkt7hqpjYECBAgUKjA3r17s8/7/v327dvDvSUyAZPDIwvIqOoYrh2l4jUCBAi0W+D8+fPtbmBDWydxakDg9uzZ04BaqiIBAgQIEGi/gMSp/THWQgIECBAgQKAgAZPDC4JUDAECBAgQKELgtttuS9KrR/SL8iOhIkSLLcOIU7GeSiNAgAABArkEbr31VtcqzSVY7sZGnMr1zVW6uU25+GxMgAABAgQKF5A4FU5aTIFHjx7tLSwsX2Xl0KFDxRSqFAIECBAgQCCXgEN1ufhsTIAAAQIECHRJQOLUpWhrKwECBAg0SuDEiRNOghlZxCROkQVkVHV27do16mWvESBAgEDLBZwEM74AS5zii8k1NZI4XUPiBQIECLROIPusf/bZZ5NwGgKnIogzxCaHxxkXtSJAgACBjglkidMzzzyThFtY7rvvvo4pxN9cI07xx0gNCRAgQIAAgUgEJE6RBGJUNfbt25eEm4UAAQIEuiPgwu5xx1riFHd81I4AAQIEOibg5MdxB1ziFHd81I4AAQIECBCISEDiFFEwVIUAAQIECBCIW8Cv6uKOj9oRIECAQMcEbrjhhsThuniDbsQp3tis1swE8VUKDwgQINB6gQ9+8IPJ4cOH+zcnwIwv3BKn+GKiRgQIECDQYYEXXnhhtfUnT55cfexBHAIO1cURh5G1CH9xWAgQIECAAIF4BCRO8cTimppkx7h7Pdd4vAbHCwQIECBAoAYBh+pqQLdLAgQIECBAoJkCEqdmxk2tCRAgQIAAgRoEJE41oNslAQIECBAYFsimZwy/7nlcAhKnuOKhNgQIECDQUYHt27f3W/7Tn/60f51Sp6KJsyNInOKMi1oRIECAQIcFXOg33uBLnOKNTbK0tNS/RVxFVSNAgACBEgQctisBtaAinY6gIMgyigmJU1juu+++/r1/CBAgQKAbAk58GW+cjTjFGxs1I0CAAIGOCrzyyisdbXn8zZY4xR8jNSRAgAABAgQiEZA4RRII1SBAgAABAgTiFzDHKf4YqSEBAgQIdEjg7rvvTg4cONBv8blz5zrU8mY01YhTM+KklgQIECDQEYF3v/vdSfhVXbgdO3as8a1+6rUrrbrgamNHnEIgXn4rSfbduGGh8b1qTAMWFxfHvONlAgQIEGibwP79+8P3WauSjBCjy1cWkmNnr/TefX2S3Lml+d/ZjUyc/tf55aSpbf9phtuTJU69Xuv+Hw031XMCBAgQaLlAGOz41bkrvU/vaHby1LhDdSFrfeNKy3uX5hEgQIAAgRYKXEzHAcL3eJMP3zVmxCk7NNfCfjSySStDtv33nnzySUNOI5W8SIAAgXYJHDp0KPnMZz4TrlXXn4by9a9/vXf8+PF2NTJtTZNHnxoxPygcmhs3ytTmOU6t+5+iQQQIECDQOYEnLvR65y6N//u/aXOfoh9x6uKhud9duJx2soVkx6Ze8rGtGxuR3Hbuk0CDCRAgUIJAFz//mzb6FO2X8rSH5toy4nT49KXewZfSyVsXRkzg2rohOXzzhuTgzk3RxquEzw9FEiBAoBMCbf/8X2/EaTDITRh9ivKLOMy6DxPIplmanjj1/8M8fzlJpmnwdQvJ0u2bksWbjUJN0zesQ4AAgZgFuvL5P0viFOK1Of3Z2qe2x/vLu+gSp3BobpaO3uTE6cDTF3sP/TFNmmZcDrx/Y/LQHWkWZSFAgACBRgp06fN/1sQpC2is3+/RnI4gwM6aNGW4Tbyf9z9NaGtItsL2TWy3OhMgQKDrAj7/p+sBIScIPw6bbu3q1opi1GKWQ3PV0cy2p1ky4/7w7O8vzbaDEWsvffQ6h+1GuHiJAAECsQrU9fnf9IGJWb5jy4597YlT04OZBWimoP7izd5Uc5qywsfdh6N1n31b7TEcVz2vEyBAgMCQQE2f/234ro1l7lNth+q6dmgu+68T/tooJGkKBaZH6/rlZYW7J0CAAIFoBXz+5wtNOJ9jDAlgLaMVbTg0Nxz+qUecHn+rN/KUA8MFTvs8PVVBcvf1tcRx2ipajwABAgRSgRo//2NIOIrsA3WOPlU+4hSC1+lpzaPO05SnNxVdXp662JYAAQIExgsU/XlddHnjax7dO3WOPlWWOP3bK1c69au5Ub3s+IynWhhVxqjXwplmR73uNQIECBCIQ8DnfzlxCIMxVf/yrrLE6c0RJ8Quh7F7pYbLs1gIECBAoHsCPv+TpOqhg8oSp0/v2LCwZWP3OnUVLd6eXtPOQoAAAQLdE+j653/IK0J+UWXkK0ucQqM+sW3DQrgOTVeXvTeWE9zdLgTc1S6l3QQINETA53/xgQo/ygp5RfElTy6x0sQpVOXOLRsWpv4F2uS6N/Pd8Cu4IpeiyyuybsoiQIAAgasCRX9eF13e1ZpG/SicwrDOPKLgb/Hprets9PS1LH7NwzcXS150ecW3WIkECBAgEASK/rwuurwmRKmOQ3PDLpUPcQ1XoC3ndJopEazpzLHD9p4TIECAQMUCNX3+t+E8TmGqTzhqVXHErtld7RUINQqnKnjt8jV1m+qFmRKWqUosf6UjL17u3f/Uxdw7OnLndcn979sYRQxzN0YBBAgQ6IBAFz//w5VCzqUXzcizxPRdX+xxozlVujZpPCQ7B96f7yeGYXtJ05wdzmYECBCoScDn/2zw4QzhMSVNofZRJE6hIl2bNP7QHdfNnTyFpClsH9wsBAgQINAsAZ//08UrHJr71Pb6D80N1zaaxCmrWGyZZVavMu7Df55wuC2ZNgdK1wvrS5rKiIYyCRAgUJ2Az//J1iEXiGE+06haRjtqMe2k8bYkWg+evtR74KX09Oqjrj2U/uT0wfTXeA/s3BRtvEZ1Lq8RIECAwPoCbf/8n2WOU50X710/UstrRP1FPM2k8bYkToMBeyK99lw4jf6O9IzgTm45KOMxAQIE2i3Qxs//aROnWH41t14PizpxCpV/6rUrvZffGt+MNiZO41vrHQIECBAg0CyBaRKnJn2XRzfHabg7dG3SeNb+p59+uvfwww/3b08++WS+33FmhbonQIAAgegFfv7zn69+5n/jG99YfRx9xeeoYN1nAZ+jyvH8qm69yjcpG12vLdO8/+tf/zrZvn17//byyy9Ps4l1CBAgQKAFAocPH06OHTvWC7dHH320BS0a3YQd6bTdqi/QO7oms70a/YjTYHNC8jTtD9AGt2vi4zNnzjSx2upMgAABAgTWFQjf57u3LkQ/XWhUQxqVOIUGhOw0XKum7csbb7zR9iZqHwECBAh0TKCJh+aGQ9S4xCk0IJxpPAzxWQgQIECAQNsEbr311rY1qd+eph6aGw7GpuEXmvK8qUN8TfFVTwIECBCoR+CZZ55J0gni/Z1v27atnkoUvNc2zVNu5IhTwfFUHAECBAgQiEbg1VdfTU6ePNm/RVOpHBVp20BHY0eccsSwEZueOnUqWVpa6tf1vvvua0SdVZIAAQIECLRdQOIUaYRD4nT8+PF+7Xbv3h1pLVWLAAECBAh0S8ChugbE+/z58w2opSoSIECAQBECe/bsKaIYZZQkIHEqCVaxBAgQIEBgHoFw8mNLvAISp3hjo2YECBAgQIBAZALmOEUWENUhQIAAgW4LbN26NVlcXOwj/OEPf+g2RoStN+IUYVBUiQABAgS6K7Bly5Z+4pQlT92ViLPlRpzijEv/4r4mCEYaHNUiQIBAiQIf+MAHSixd0XkFJE55BUvaPiRNX/va1/qlHz16tKS9KJYAAQIEYhN4xzveEVuV1GdAwKG6AQwPCRAgQIBA3QK9Xq/uKtj/BAGJ0wScWN46duxYLFVRDwIECBAg0GkBiVOnw6/xBAgQIECAwCwC5jjNolXhuqdPn65wb3ZFgAABArEI7N+/fyH9RZ3jdbEEZKgeEqchEE8JECBAgEDdAtlF3vfu3Vt3Vex/SMChuiEQTwkQIECAAAECBJonEIZp+7f0Lw5Dts2LnxoTIEAgj4DP/zx6JW5rxKlEXEUTIECAAAEC7RKQODUgnk888UQDaqmKBAgQIFCUgLlNRUkWX47EqXjTwks8f/584WUqkAABAgQIEJhdwK/qZjezBQECBAgQKFVg165dySuvvFLqPhROoG0Cq5PD04aZHN626GoPAQIEJgikV4zohZsfB01Aqukth+pqgrdbAgQIECBAoHkCDtVFGrN77rknCbewHDx4MNJaqhYBAgQIEOiWgBGnCON94sSJ3k033ZTs2bOnf4uwiqpEgAABAhUI+FV1Bcgz7kLiNCNYFauP+hXd0aNHzXOqAt8+CBAgEJHAqO+DiKrXyapInDoZdo0mQIAAAQIE5hGQOM2jZhsCBAgQIECgkwImh3cy7BpNgAABAjELHDp0KDl+/HjMVexs3Yw4dTb0Gk6AAAECTRAwxzWuKBlxiiseq7U5efJksrS0tPrcAwIECBAgQKB+AYlT/TEYWYOQOIVbtqRnkM0euidAgACBlgs4DUG8AXaoLt7YqBkBAgQIdFTAaQjiDbzEKd7YqBkBAgQIEFhz9AFH/QISp/pjMLEG27Ztm/i+NwkQIECg3QJGn+KKr8Qprnj0azM4tylcdsVCgAABAt0SOHz4cBJulvgETA6PLybJqL8uRr0WYdVViQABAgQKEPBHcwGIJRUhcSoJNm+x2QV+d+3a1T8J2uAoVN6ybU+AAAECzRHwh3NcsZI4xRWP1dqExGlxcXH1uQcECBAg0E0BfzjHFXdznOKKh9oQIECAAAECEQtInCIOjqoRIECAAAECcQlInOKKh9oQIECAAAECEQuY4xRxcAar5vT7gxoeEyBAoN0Cg9cq9fkfV6wlTnHFY2xt/KpiLI03CBAg0DqBwcTJ539c4ZU4xRWP1dqcOXMmOXXqVOLM4askHhAgQIAAgdoFJE61h+DaCoS/Lh555JHk9ddfd0qCa3m8QoAAAQIEahMwObw2+vE7HjxnRzgBpoUAAQIECBCIQ0DiFEccpqrFiRMnelOtaCUCBAgQaJXA0aNHff5HElGJUySBmKYaJghOo2QdAgQINFtAkhR3/CROccdH7QgQIECggwLhklsuuxVn4CVOccalX6vt27cn4WYhQIAAgW4JDCdOjjjEE3+JUzyxuKYm4UK/4WYhQIAAgW4LDP5oqNsS9bde4lR/DEbWIPy1sX///uT48eOr74fzOlkIECBAgACB+gQkTvXZz7xnidPMZDYgQIAAAQKFCkicCuUsprDBUaZiSlQKAQIECDRZwByneKIncYonFmNr4rIrY2m8QYAAgU4ImOMUT5glTvHEYmxNTBAfS+MNAgQItFIgJErh5g/n+MLrWnXxxWRsjfzFMZbGGwQIEGiVwMGDB/vtue+++5Lvf//7rWpb0xtjxKlBEXSMu0HBUlUCBAgUIOB6pQUgFlyExKlg0KKKe+SRR5Jer5fs27dvoagylUOAAAECzRTwo6F44iZxiicWa2py5syZ1efmOK1SeECAAAECBGoVkDjVyj/dzl12ZTonaxEgQKANAoPTMnz+xxdRiVN8MRlbI0O1Y2m8QYAAgdYIDP4QyBGH+MIqcYosJkePHu1FViXVIUCAAIEIBE6cOOH7IYI4qEKEAocOHeodOXJk9T/ID37wg/A4u0VYY1UiQIAAgTIEnnzyyeyzv+cP6zKEldlqgR//+MeryVSrG6pxBAgQILBGIHz+P/74474D1qjU88RP3etxn7jX31243Dt3aSHZsamXfGzrRjGaqOXNtgno/22LqPbMIqD/z6JVz7q+lOtxv2avh09f6h186UqSXEhvw8vWDcnhmzckB3duEq9hG89bIaD/tyKMGjGngP4/J1xNm/kirgk+223/P8zzl5Pk4hQjsNctJEu3b0oWbzYKlfm5b7aA/t/s+Kl9PgH9P59fXVtLnOqST/d74OmLvYf+mCZNMy4H3r8xeeiONIuyEGiwgP7f4OCpem4B/T83YW0F+PKtiX7e/zRZdSVPmYT7Jgro/02MmjoXJaD/FyVZTznO41SDexienWekabCqYfully5PcXxvcCuPCdQvoP/XHwM1qE9A/6/Pvqg9G3EqSnKWcn7xZm+qOU3rlRmO1n32bWK4npP34xLQ/+OKh9pUK6D/V+tdwt42lVCmIicI9CcD/v7ShDVmeCudUN4vz6/tZkCzap0C+n89+seOHat0dDpca23wsiH1tLqcvYZrx816GZR9+/b1/8DV/8uJSdWlGq2oWvzxt3ojTzkwbz3SUxUkd18vjvP62a5agRL7/1NPPdV7+eWX52pPmljMtd3gRqdOnUrCLe8SEo7Bi7zmLc/29Qrce++9ycMPP7z8GV1i/6+3ld3auxGnquM96jxNeepQdHl56mLbpOq/7Mv+ki0iGVhcXEzS2/IXR9H9daC8H/7wh8m3vvUtvZBAVAJhdCpNnJbrNNBfC6lk0eUVUqn2FyJxqjDGx89e6e39zVuF7zGcaTacYXxpaamX3govP8YCi/hCL6Nd6ZB8GcU2uszMpOz+32ikHJUPX8zh8NG0y6yH0Xbt2pWEWyxLrP/31/PR/9cTas77EqfmxGpsTcPlWbJl+JDDPffck4TbqOW5555Lvvvd7456q//a4cOHx74Xtgvbj1om7fORRx5Jwm3UcssttyRf+cpXRr3Vf+3gwYNj3wvbhe1HLZP2OamufJJ+38nbf/7+7/++1JGgrP9/9KMfTSb1Wf1nvv9fIVH53Oc+5//XnJ8/d9xxx6iPpcJey/p/YQUqaF0BidO6RPGvsD29pl1Ywgfc8HLTTTfNPJExK2PSBMgtW7Zkq11zP2mfkyaMhjIn7fOaHQ28EJKmcdtO2uekug4UP/LhuP2Flfkkq/FIvziuZvYjJfO9mPX/v/zlL6v7nLXEGPvP7t27R44kffKTnxzbznPnziWvv/76yOaHUaNJfXbv3r0jtwsvfuITnxg76jRpn5PqunPnzuRd73rX2H1OquuXv/zlsfPAQjs/9KEPjSx327ZtSajTqGW9Sd9Hjx4dtdnqawsLo7t5NjF8dcWCH2T9v+BiFTdBYHSkJ2zgrZwC//JG8b9u+YfN/Tim8zt6w3M8wofPuA+gM2fOjB39Ca0Mc1PGLWEUJ2w/apm0z5DEjEtkQhIzbnQj7GfSYciwXdh+1DJpn5PqOsknfOhP8gn7HDfBN3ywh9uoZdxhiFDP0L5xbQxljUqcs32E7TZv3pw9XXMf6jmuruHLZPAw0Lh6rylw6Mn+/fuvfs6U2P+HduspgfgE9P/4YjJHja5+oM2xsU3mECjxVxXprzd6q5MQ06qFL/d5vuhGtSp8cQ9+gY5aZ5bXQr2Kqtvwftd8UQ+/6Xm9AiX2/3obZu8EphDQ/6dAin8ViVPFMSr0PB5p3Q+nF/096DxOFUfR7uYV0P/nlbNdGwT0/zZEMUkkTnXE0Zlj61C3z1gE9P9YIqEedQjo/3WoF7pP16orlHO6wo7cVsyc/KLKma7W1iJQjEBR/baocopplVIITCdQVL8tqpzpam2tQQGJ06BGRY/vf9/GhQPv35hrb2H7UE6uQmxMoAYB/b8GdLuMRkD/jyYUc1fEF+/cdPk3PPD0xd5Df7w8c0EhaXrojnCFXwuB5gro/82NnZrnF9D/8xvWVYIv37rkV/Z75MXLvfufSS/6m16wd90lzZXC8KyRpnWlrNAQAf2/IYFSzVIE9P9SWEsvVOJUOvF0O3jw9KXeAy9dSUZeADi9kO+DN29IHvDruekwrdU4Af2/cSFT4QIF9P8CMSsoSuJUAfKsu3givfZcOI3+jvSM4LvTa9DNur31CTRZQP9vcvTUPa+A/p9X0PYECBAgQIAAAQIECBAgQIAAAQIECBAgQIAAAQIECBAgQIAAAQIECBAgQIAAAQIECBAgQIAAAQIECBAgQIAAAQIECBAgQIAAAQIECBAgQIAAAQIECBAgQIAAAQIEGi7grNQND6DqE2i6wLGzV6a4UONyK/fduMFnVtMDrv4EGi6woeH1V30CBAgQIECAQGUCEqfKqO2IAAECBAgQaLqAxKnpEVR/AgQIECBAoDIBiVNl1HZEgAABAgQINF1A4tT0CKo/AQIECBAgUJmAxKkyajsiQIAAAQIEmi4gcWp6BNWfAAECBAgQqExA4lQZtR0RIECAAAECTReQODU9gupPgAABAgQIVCYgcaqM2o4IECBAgACBpgtInJoeQfUnQIAAAQIEKhOQOFVGbUcECBAgQIBA0wUkTk2PoPoTIECAAAEClQlInCqjtiMCBAgQIECg6QISp6ZHUP0JECBAgACBygQkTpVR2xEBAgQIECDQdAGJU9MjqP4ECBAgQIBAZQISp8qo7YgAAQIECBBouoDEqekRVH8CBAgQIECgMgGJU2XUdkSAAAECBAg0XUDi1PQIqj8BAgQIECBQmYDEqTJqOyJAgAABAgSaLiBxanoE1Z8AAQIECBCoTEDiVBm1HREgQIAAAQJNF5A4NT2C6k+AAAECBAhUJiBxqozajggQIECAAIGmC0icmh5B9SdAgAABAgQqE5A4VUZtRwQIECBAgEDTBSROTY+g+hMgQIAAAQKVCUicKqO2IwIEhgWeuNDrDb826fms608qy3sECBCYR2Bhno1sQ4AAgUkCIcE5d2mmnGhScXO/tzn90/BT2zf4nJtb0IYECAwLGHEaFvGcAIHcAru3LixcF0G6ImnKHUoFECAwJCBxGgLxlACBYgQ+vaPekZ59N9a7/2IUlUKAQGwCEqfYIqI+BFoksGNTPcNO776+RYiaQoBAVAISp6jCoTIE2iVQxyG7MK/pzi1Gm9rVk7SGQDwCEqd4YqEmBFopUPUhO/OaWtmNNIpANAISp2hCoSIE2itQ1SE785ra24e0jEAsAhKnWCKhHgRaLFDFITtJU4s7kKYRiEhA4hRRMFSFQJsFyjxkt2Vjm+W0jQCBmAQkTjFFQ10ItFygjEN24XxRn9hmMnjLu47mEYhGQOIUTShUhED7Bco4ZFfmSFb7I6KFBAjMKiBxmlXM+gQI5BIoMtExrylXKGxMgMAcAhKnOdBsQoBAPoEiDtmZ15QvBrYmQGA+AYnTfG62IkAgh0DeQ3bmNeXAtykBArkEJE65+GxMgMC8AnkO2eXZdt762o4AAQJBQOKkHxAgUJvAPIfszGuqLVx2TIBAKiBx0g0IEKhNYNZDduY11RYqOyZAYEVA4qQrECBQq8C0h93Ma6o1THZOgMCKgMRJVyBAoHaBaQ7ZTZtg1d4YFSBAoNUCEqdWh1fjCDRDYL1DduY1NSOOakmgCwISpy5EWRsJNEBg3IiSeU0NCJ4qEuiQgMSpQ8HWVAKxCwwfsjOvKfaIqR+B7glInLoXcy0mEK3A8CG7caNQ0TZAxQgQIECAAAECVQscO3ulV/U+7Y8AAQIECBAgQIAAAQIECBAgQIAAAQIECBAgQIAAAQIECBAgQIAAAQIECBAgQIAAAQIECBAgQIAAAQIECBAgQIAAAQIECBAgQIAAAQIECBAgQIAAAQIECBAgQIAAAQIECBAgQIAAAQIECBAgQIAAAQIECBAgQIAAAQIECBAgQIAAAQIECBAgQIAAAQIECBAgQIAAAQIECBAgQIAAAQIECBAgQIAAAQIECBAgQIAAAQIECBAgQIAAAQIECBAgQIAAAQIECBAgQIAAAQIECBAgQIAAAQIECBAgQIAAAQIECBAgQIAAAQIECBAgQIAAAQIECBAgQIAAAQIECBAgQIAAAQIECBAgQIAAAQIECBAgQIAAAQIECBAgQIAAAQIECBAgQIAAAQIECBAgQIAAAQIECBAgQIAAAQIECDRL4P8DEZp+x/J8LU0AAAAASUVORK5CYII=;" parent="1" vertex="1">
                    <mxGeometry x="294" y="17" width="237.48" height="161" as="geometry"/>
                </mxCell>
                <mxCell id="AhNlXJ4hRKMXUMh4VS_F-36" value="Check if your diagram was saved" style="text;html=1;align=center;verticalAlign=middle;resizable=0;points=[];autosize=1;strokeColor=none;sketch=1;hachureGap=4;pointerEvents=0;fontFamily=Architects Daughter;fontSource=https%3A%2F%2Ffonts.googleapis.com%2Fcss%3Ffamily%3DArchitects%2BDaughter;fontSize=20;" parent="1" vertex="1">
                    <mxGeometry x="286" y="-162" width="327" height="28" as="geometry"/>
                </mxCell>
                <mxCell id="AhNlXJ4hRKMXUMh4VS_F-37" value="" style="edgeStyle=none;curved=1;rounded=0;sketch=1;orthogonalLoop=1;jettySize=auto;html=1;endArrow=open;sourcePerimeterSpacing=8;targetPerimeterSpacing=8;fontSize=16;fontFamily=Architects Daughter;fontSource=https%3A%2F%2Ffonts.googleapis.com%2Fcss%3Ffamily%3DArchitects%2BDaughter;startSize=14;endSize=14;exitX=1.009;exitY=0.464;exitDx=0;exitDy=0;exitPerimeter=0;" parent="1" source="AhNlXJ4hRKMXUMh4VS_F-36" edge="1">
                    <mxGeometry width="120" relative="1" as="geometry">
                        <mxPoint x="145" y="246" as="sourcePoint"/>
                        <mxPoint x="813" y="-149" as="targetPoint"/>
                        <Array as="points"/>
                    </mxGeometry>
                </mxCell>
                <mxCell id="AhNlXJ4hRKMXUMh4VS_F-39" value="" style="edgeStyle=none;curved=1;rounded=0;sketch=1;orthogonalLoop=1;jettySize=auto;html=1;endArrow=open;sourcePerimeterSpacing=8;targetPerimeterSpacing=8;fontSize=16;fontFamily=Architects Daughter;fontSource=https%3A%2F%2Ffonts.googleapis.com%2Fcss%3Ffamily%3DArchitects%2BDaughter;startSize=14;endSize=14;exitX=0.219;exitY=0;exitDx=0;exitDy=0;exitPerimeter=0;" parent="1" source="AhNlXJ4hRKMXUMh4VS_F-26" edge="1">
                    <mxGeometry width="120" relative="1" as="geometry">
                        <mxPoint x="145" y="246" as="sourcePoint"/>
                        <mxPoint x="884" y="-101" as="targetPoint"/>
                        <Array as="points">
                            <mxPoint x="804" y="-93"/>
                        </Array>
                    </mxGeometry>
                </mxCell>
                <mxCell id="AhNlXJ4hRKMXUMh4VS_F-40" value="Hover to see tips" style="text;html=1;align=center;verticalAlign=middle;resizable=0;points=[];autosize=1;strokeColor=none;sketch=1;hachureGap=4;pointerEvents=0;fontFamily=Architects Daughter;fontSource=https%3A%2F%2Ffonts.googleapis.com%2Fcss%3Ffamily%3DArchitects%2BDaughter;fontSize=20;" parent="1" vertex="1">
                    <mxGeometry x="-564" y="573" width="173" height="28" as="geometry"/>
                </mxCell>
                <mxCell id="AhNlXJ4hRKMXUMh4VS_F-41" value="" style="edgeStyle=none;curved=1;rounded=0;sketch=1;orthogonalLoop=1;jettySize=auto;html=1;endArrow=open;sourcePerimeterSpacing=8;targetPerimeterSpacing=8;fontSize=16;fontFamily=Architects Daughter;fontSource=https%3A%2F%2Ffonts.googleapis.com%2Fcss%3Ffamily%3DArchitects%2BDaughter;startSize=14;endSize=14;exitX=0.497;exitY=-0.071;exitDx=0;exitDy=0;exitPerimeter=0;" parent="1" source="AhNlXJ4hRKMXUMh4VS_F-40" edge="1">
                    <mxGeometry width="120" relative="1" as="geometry">
                        <mxPoint x="145" y="246" as="sourcePoint"/>
                        <mxPoint x="-493" y="492" as="targetPoint"/>
                        <Array as="points">
                            <mxPoint x="-464" y="535"/>
                        </Array>
                    </mxGeometry>
                </mxCell>
                <mxCell id="-lLK8x3hQrBcMN-jiT6f-1" value="diagrams.net sketch/board editor theme tutorial" style="text;html=1;align=center;verticalAlign=middle;resizable=0;points=[];autosize=1;strokeColor=#666666;sketch=1;hachureGap=4;pointerEvents=0;fontFamily=Architects Daughter;fontSource=https%3A%2F%2Ffonts.googleapis.com%2Fcss%3Ffamily%3DArchitects%2BDaughter;fontSize=20;fillColor=#f5f5f5;fontColor=#333333;" parent="1" vertex="1">
                    <mxGeometry x="-379" y="-165" width="456" height="28" as="geometry"/>
                </mxCell>
                <mxCell id="2" value="" style="shape=image;verticalLabelPosition=bottom;labelBackgroundColor=#ffffff;verticalAlign=top;aspect=fixed;imageAspect=0;image=data:image/png,iVBORw0KGgoAAAANSUhEUgAAAzIAAANKCAYAAABRRHuBAAAAAXNSR0IArs4c6QAAAHhlWElmTU0AKgAAAAgABAEaAAUAAAABAAAAPgEbAAUAAAABAAAARgEoAAMAAAABAAIAAIdpAAQAAAABAAAATgAAAAAAAACQAAAAAQAAAJAAAAABAAOgAQADAAAAAQABAACgAgAEAAAAAQAAAzKgAwAEAAAAAQAAA0oAAAAAAvYTyAAAAAlwSFlzAAAWJQAAFiUBSVIk8AAAQABJREFUeAHs3QeAFOX9//HnCoKAiFixgWLBjgWxSzT2rrHEXmLFEmNMrP/oz0SjsUaNPfYaY0ssUaNobIgodsUGClZERUEQ7u6/n2fvmXtubnZv93Z2bnb3/STH9JlnXrPu7HeeMnUtmWRICCCAAAIIIIAAAggggEAFCdRXUF7JKgIIIIAAAggggAACCCBgBQhk+CAggAACCCCAAAIIIIBAxQkQyFTcJSPDCCCAAAIIIIAAAgggQCDDZwABBBBAAAEEEEAAAQQqToBApuIuGRlGAAEEEEAAAQQQQAABAhk+AwgggAACCCCAAAIIIFBxAgQyFXfJyDACCCCAAAIIIIAAAggQyPAZQAABBBBAAAEEEEAAgYoTIJCpuEtGhhFAAAEEEEAAAQQQQIBAhs8AAggggAACCCCAAAIIVJwAgUzFXTIyjAACCCCAAAIIIIAAAgQyfAYQQAABBBBAAAEEEECg4gQIZCrukpFhBBBAAAEEEEAAAQQQIJDhM4AAAggggAACCCCAAAIVJ0AgU3GXjAwjgAACCCCAAAIIIIAAgQyfAQQQQAABBBBAAAEEEKg4AQKZirtkZBgBBBBAAAEEEEAAAQQIZPgMIIAAAggggAACCCCAQMUJEMhU3CUjwwgggAACCCCAAAIIIEAgw2cAAQQQqFKBXf83w0yf21KlZ8dpIYAAAgjUugCBTK1/Ajh/BBCoWoF3v28x+z03k2Cmaq8wJ4YAAgjUtgCBTG1ff84eAQSqXOD9HwhmqvwSc3oIIIBAzQoQyNTspefEEUCgVgTe/7GZkplaudicJwIIIFBDAgQyNXSxOVUEEKhNgaamFkMwU5vXnrNGAAEEqlmgriWTqvkEOTcEEECglgQe/2KueeSzuea5r+eY72bXBafeZJpNQ0OdWW7eenPzBr1Nv8a2ZcFKjCCAAAIIIFBBAgQyFXSxyCoCCCCQS+Dt6c3mt+Nnmok/tK1hgxfTVvBOMNNmwxgCCCCAQOULtN3hKv9cOAMEEECgJgVUCrPX8zPMpBltBewuiNHQpQYFNU11Rh0A3PjRT242QwQQQAABBCpSgECmIi8bmUYAAQSyAvd+MsccN26WmZsJUFpastXFGupbjA1aMqu4odZ2Qc2OSzaaY5bvmd1B5t8XpzUF44wggAACCCBQKQIEMpVypcgnAgggEBKY8mOLOeOtWcFcBTBKvxw0j7l7o97BfI24EhoFMees3itYdvJrs8xBL/xoVDWNhAACCCCAQCUJEMhU0tUirwgggIAn8JuXZ9qSGDurocXMU9di/rhaT3PySj3NSv3avt7zBTEPTJ5rmjPbnfH6j96eGUUAAQQQQCD9Am13uvTnlRwigAACCLQKqF3MG9+1tYlR25e/De9jdlmqRzsjF8QowPFLYlSaoyBGSZ1Xal+qpkZCAAEEEECgUgQIZCrlSpFPBBBAwBP4+4d+Y/0m87NFG8y6Axq8NbKjaiOjICYc4Cwxb51RNTOTKcnROgp4Hvk8G9h02AkzEEAAAQQQSKEAgUwKLwpZQgABBDoT+OAHv4F+gzl55bZ2L/62UUGMW360GvxnSnKUFMyMnUYg42wYIoAAAgikX4BAJv3XiBwigAAC7QSmz20xP8xpe6Flrx7NRiUs4ZQviNG62mbBnm3V02Znghoa/YcVmUYAAQQQSKtApl4BCQEEEECgkgTeCfUwtkq/jlXKdD7h6mRR53hVpl3N95nAyKUlencMiNwyhggggAACCKRJgEAmTVeDvCCAAALdIEDo0g3oHBIBBBBAoGQBApmSCdkBAgggkKzAUK9rZR35zVAJTTG5OXzsDPP17LZQRu+f6devbbqYfbEuAggggAACSQrQRiZJbY6FAAIIxCDQr7HO9O3RVh1sVqa9jLpTLjZpGz+IaWxobvf+mWL3x/oIIIAAAggkKUAgk6Q2x0IAAQRiEhjSt61dTF3mhZZ/fntW0Xu+7L3ZmW2yvZ+p++X1BrR/B03RO2QDBBBAAAEEEhQgkEkQm0MhgAACcQkcvOw8wa5aWurME583mRen+V0yB4sjR9peiNlg3yGj7pe3XozaxpFYzEQAAQQQSKUAgUwqLwuZQgABBPIL/HzRRrPq/HU2CNGaDfUt5shxM829n8zJv2FmqbpYDl6IaTeus/sqpJezTnfOCggggAACCCQkUNeSSQkdi8MggAACCMQooFKVbZ/+3sxtyj6TamxoyYzXmf2W6WF2WqJHh/YuWv/yTHWy+yfPNTst2WjOXr2XOfm1WeaBzLQa+a8U6kQgxqyyKwQQQAABBGIXIJCJnZQdIoAAAskJqATmtNdnB9XDdGSVzjQ1Z1522avFXLVOH5uZw1/K9E42q86oPY2qoim5YEZV0tYd0Nbmxi7kHwQQQAABBFIuQNWylF8gsocAAgjkE1B1sEvW7mV6ZuIQBSlKCmLUeF+Bi152qT+Na56CGA2bMqU3KpkhiMmnyzIEEEAAgTQLEMik+eqQNwQQQKAAAbWXuWP9vmZQn2xJiwIVNd4PJzdPwzX61pvr15uXkpgwEtMIIIAAAhUjQBc1FXOpyCgCCCCQW0DtWx7cpK95/Iu55qHP5poxU+eYb39q/2JLvSdGXSyrdzIa9ue2ZAkCCCCAQGUI0EamMq4TuUQAAQSKFrC9k/XOBjNTZrbQmL9oQTZAAAEEEEizAIFMmq8OeUMAAQQQQAABBBBAAIFIgY6VqCNXYyYCCCCAAAIIIIAAAgggkB4BApn0XAtyggACCCCAAAIIIIAAAgUKdFtj/7GZ9xaMyfyN/XqOeSfzlmmloZnGqsMX7GFGZN5nMJx3GhR4CVmtKwJ8/rqixjZxCfD5i0uS/SCAAAII1LJA4m1k9D6DUzJvkn7i86a87pst1mDfOj1fY/ted/JuxEIEOhHg89cJEIvLKsDnr6y87BwBBBBAoMYEEg1k3vm+2Rw9bqb5bGZhygN7G3PZ2r3N0PmoAVeYGGvlE+Dzl0+HZeUW4PNXbmH2jwACCCBQawKJBTJ6ErnLMzMKDmLchVAwc+9GfQwlM06EYVcE+Px1RY1t4hLg8xeXJPtBAAEEEECgTSCxog5VJyu0JKYte8Zuc85bs/1ZjCNQtACfv6LJ2CBGAT5/MWKyKwQQQAABBFoFEglk1LC1szYx+a7I/ZPnGu2DhEBXBPj8dUWNbeIS4PMXlyT7QQABBBBAoL1AIoGMeicrNcWxj1LzwPaVKRDHZyeOfVSmHrkuVSCOz04c+yj1PNgeAQQQQACBtAkk0v2yulguNdl9LDdPqbtJxfZPPfVUKvJR7ZlYb731TM+ePW0X36Weq/v8/fDDD2bcuHF5d7fpppvmXc7C2hLg+6+2rjdniwACCCCQnEAigUz2PTGldaPs3jUjGhcITJw40eivkDR69OhCVuuwzvjx4823337bYT4z0i/Q0tJiMxnn569v375m5MiR6T/5TA67I5/9+/c3w4YNS72P8qi8ljO5gDbOz18588u+EUAAAQQQqDSBRAKZuFHcDzQFJ4MHD+6we7c8vCBXMMP6Walq9Ql/DkqdDjul9fMTzmd42jmkNf8uf25Yafl3gbTLP0MEEEAAAQQQiFcgkUBmaL9689LX2afjXc2+9qH06quvdnUXVb/dGmusUdBTZvekuFCQNK+f78n67NmzbdWyOD9/M2bM6MD2hz/8ocO8fDNYP5+OMV3xyRXkRB2p3J9nd8xJkyaZQYMGmTg/f27fDBFAAAEEEEDAmETeI3PZ+z+ZKyb8VJL3kSvMY46ukjYyJUGwcdECfP6KJmODGAX4/MWIya4QQAABBBDwBBLptWzdAQ3eIbs2OiKGfXTtyGxV6QJ8/ir9ClZ2/vn8Vfb1I/cIIIAAAukVSCyQ2WyxrgczOy3ZaIYTyKT3U5TynOmHJJ+/lF+kKs4en78qvricGgIIIIBAtwokUrVMZzh9bovZ9ZkZ5rOZxZ3vwN7G3LNRH9OvsbRez4o7KmtXmwCfv2q7opV1Pnz+Kut6kVsEEEAAgcoQSKRERhQKRC5dq7dRYFJo0rrahiCmUDHWyyXA5y+XDPOTEODzl4Qyx0AAAQQQqDWBxEpkHKyeTJ762izzxOdNblbkUNXJTlq5J0FMpA4zuyrA56+rcmwXhwCfvzgU2QcCCCCAAAJZgcQDGQf/4rQmM+bruWbstLnm3enNdvaKmS6Whw9oNCMWbDRxNJB1x2KIQFiAz19YhOkkBfj8JanNsRBAAAEEqlWg2wKZagXlvBBAAAEEEEAAAQQQQKD8Aom1kSnkVKJeNljIdqyDAAIIVLqAvv+mTp1a6adB/hFAAAEEEEhMIBWBjN7K/dRTT5mXXnopsRPnQAgggEAaBBZYYAFTV1dn+vbta9544400ZIk8IIAAAgggUBECqQhkKkKKTCKAAAJlEPj222/LsFd2iQACCCCAQPULNKblFEeOHGmz0tLSkpYskQ8EEEAAAQQQQAABBBBIqQAlMim9MGQLAQQQQAABBBBAAAEEcgsQyOS2YQkCCCBQVgGqlZWVl50jgAACCFS5AIFMlV9gTg8BBNIrMH78+PRmjpwhgAACCCCQcoHUtJFJuRPZQwABBMomoJ4blWgjaBn4BwEEEEAAgYIEKJEpiImVEEAAAQQQQAABBBBAIE0CqSmRcU8k04RDXhBAAAEEEEAAAQQQQCCdApTIpPO6kCsEEKgBAdrI1MBF5hQRQAABBMomQCBTNlp2jAACCOQXoNey/D4sRQABBBBAIJ9AKgIZqpXlu0QsQwABBBBAAAEEEEAAgbBAKgKZcKaYRgABBGpJYOTIkUZ/JAQQQAABBBAoXIBApnAr1kQAAQQQQAABBBBAAIGUCKSm1zL3NJL3KKTkk0E2EEAAAQQQQAABBBBIsQAlMim+OGQNAQSqW4Bey6r7+nJ2CCCAAALlFSCQKa8ve0cAAQRyCtBrWU4aFiCAAAIIINCpQOoCGXow6/SasQICCCCAAAIIIIAAAjUvkJo2MjV/JQBAAIGaFXAPcGgjWLMfAU4cAQQQQKALAqkrkenCObAJAggggAACCCCAAAII1JhAakpkeCJZY588ThcBBBBAAAEEEEAAgRIEKJEpAY9NEUAAAQQQQAABBBBAoHsECGS6x52jIoAAAggggAACCCCAQAkCBDIl4LEpAgggUIrAq6++WsrmbIsAAggggEBNCxDI1PTl5+QRQKA7Bdx7ZP7whz+YkSNHdmdWODYCCCCAAAIVJ0AgU3GXjAwjgAACCCCAAAIIIIBAagIZPY3kiSQfSAQQQAABBBBAAAEEEChEIDWBTCGZZR0EEEAAAQQQQAABBBBAQAIEMnwOEEAAAQQQQAABBBBAoOIEUhHIuJdhVpweGUYAAQRiEOjfv7/di2v8H8Mu2QUCCCCAAAJVL5CKQKbqlTlBBBBAII/A8ccfb/RAZ/z48XnWYhECCCCAAAII+AIEMr4G4wgggAACCCCAAAIIIFARAo1pyaWrXtbS0pKWLJEPBBBAAAEEEEAAAQQQSKkAJTIpvTBkCwEEEEAAAQQQQAABBHILEMjktmEJAggggAACCCCAAAIIpFSAQCalF4ZsIYAAAggggAACCCCAQG4BApncNixBAAEEEhF48sknzciRIxM5FgdBAAEEEECgWgQIZKrlSnIeCCCAAAIIIIAAAgjUkEBqei1zTyP1ZJKEgC9AT3a+BuPVKOA+4xq68Wo8T84JAQQQQKA2BOrq6hI50dQEMomcLQepCAF+yFXEZSKTCCCAAAIIIIBApED4t1y5AhsCmUh+ZnaHQPhD3x154JgIIIAAAggggAAC8Qq433hxBzQEMvFeJ/bWBQH34c61afvlrUWVoRLL0GSuXTEfgVQJuC90Dd1fqjJIZhBAAAEEEAgJdHh1fTAjGLH3tNBmdtL9pnP3v6h1iplHIFOMFuvGKuA+zOGdts3PhCf6f2s9y+z81v9I2v5bsZuHJsO7ZBqBVAuojaD+1Eaw7fOf6iyTOQQQQAABBDoIBL/ZtMT+OMv+QnPz3QbuXhee75YXOiSQKVSK9WITcB/e8A6z87NPprXMTmc+/36Qkmvb8L6YRqCSBPzPtT9eSedAXhFAAAEEaltAQUn4HuYClUxfNpnUEjycdlJufbeem1/oMDWBzOjRo22e3QkVegKsV1kCUdc3Oy8bwGg8+2HPnld4/fB0ZZ09uUUgWsD/XPvj0WszFwEEEEAAgfQLhAOb7LTyHR3QdCWYSU0gk/7LQQ5LFYj6gaZ57oPuAhi3nhvquNnxbFUzTbs2Mf46mk9CoJIEor60+UxX0hUkrwgggEDtCrh7mKs509KssbYgRfczt477rSctN+6WOUF/fTevsyGBTGdCLI9FIPzjLDvdVgqjg7h12oaZmYpYXIST+Y8j+x+J/jPJndz2uddgCQLpEmhubrYZ0mfXjacrh+QGAQQQQKCWBcJBhyzCv7fcOna+2je3Vifz3fwgJvvzri3Ycft0+/G3yzVOIJNLhvmxCYQ/6G0f8Gw1MrdcQ3+ZMhAELq3BTOugrUgmlEu3r9BsJhFIp4DryKI1d/p8Nwcf8nRmmVwhgAACCNSgQObelDPAaH26XFeXHbHrta5vb2lqO5N5YBe5fWu7Gn+Zfsv50/m0CWTy6bCsZIFwYNEhUMl8WN06rf8d2A+7Dqz52f8A7ESQF7u+W7l1vWAhIwhUkICrIvn0U0+Zc845x5x88snB57+CToOsIoAAAgjUgID306tDoKHAw/5myzjY9TL/KLCxAUlmgV0uI7dSZtQty4zY33x2Wutkkn7r+dPZuR3/JZDpaMKcMgnYACTzYXUf4myg0hbI6LDBvOyEndZ/EXZbuzzzT+uvPzfP/RjUJiQEKklg/vnnN9OnTzfffvtt8IXtPteVdB7kFQEEEECgtgRc7YEg2Mi0j9FPPKVgXuYHm4Ia9ztNQxvkaKXWZNdVcBMRzLh18g1TE8joHQpKeo8CqToEOv4gy3yEWyNxLcv+Zc+1/bRb1r5Exu3PVTdz/2noPwq3rDrkOItaEVhttdXMs88+Z15//fXMKddl2se0mKambHuZWjHgPBFAAAEEKkugLVBRYJK9Z2leNh7JBi+KWIISmWBZtpTFrevCmiCYCUKerId+2/nHilJKTSATlTnmVY+A+zDqQ67x7J/Oz41nhppqaQ6WaU6PxkbTo0cPU19fXz0YnAkCrQKu23lAEEAAAQQQqBYBdVozZ84cM2fuXKNmM20BTea3nH4IZpJKb1pa2spoFLBk53UevPhOBDK+BuOxCShQcaktiPGCltblbUGNW9ba2DmzvHfv3gQwDpEhAggggAACCCBQAQJ6+NyzZ0/7IHrmzJmZx9J1pl6lLeqhU9FKa8oGLm4qO8yW1rQFM+43ZPu12qZ4zN1mwVjZBLKNuMK7DwcxqlZjS2QyH/Q+ffoQxITBmEYAAQQQQAABBCpEQAGNfs+pxzL9vsv+znMPrrPD8Knot2Em2gnPzjlNIJOThgVdFch+CLNbZyPptnEbvLTu2I1rqA+3qpmpOFIf+s7qRLbuggECCCCAAAIIIIBASgX0e06/67LvSMv+3vN//ynb9hdg5reg5iu5KmZ2IvOPm++m/SGBjK/BeBkE2pfG2A9j64dVn9dslK7DZoOYRtrDlOEasEsEEEAAAQQQQKB7BFQyo993Lpjxf//5vwtd7rKBS2GlMqlpI+MaveaLutwJMkyvQIfrp8+hApbW4EVhdjZ4sfG3na8u/Oy8zKo955knvSdHzhBAAAEEEEAAAQSKFtDvO3UAoGCmLlOMojYz6gRAQY1SXSbYcb8hba2cUByjZVG1dSiRyfrxbxkE7IcuvN/WT6wNYxTAZEfsUMEMvZOFwZhGAAEEEEAAAQQqW0C/74JaOK2//+xDbndarb8P3aR9Dh6a55b5w1SUyLjSmFmzZpkpU6b4+WO8ogXaqpXZD2tr1K1xRS52mCmuyX6Q26Lyij5lMo8AAggggAACCCDQQcDGJa2lMK40pk6/BzNrqrTFLs9MZcft3A77CM9IVYlMr169zJAhQ8J5ZLpSBVqLBbMBS+YkMtM2aLFxTDZwyQYxmWX2g6wPLQkBBBBAAAEEEECg2gRsyNIauET9HnSdlfm/Gzsz6LYSmbHTmsyYzN/Yr+eYd6Zn3wo6tF+9Gb5gDzNiQIMZnvkjVZZA8MHLZFvjNqL2TyEbatuAJht+Z9azXS63BTX+6owjgAACCCCAAAIIVIeADV6yT7WzPwNdcYprD6PfieqyrDVpzP2e1Cx/vHWVzAs3NTfB9P3cFnPKa7PME5835T3qZos1mLNX72Xma2w7obwbsLDbBfyPkvuwaai/bE8VeheS+hLPTmeHGm/K/Gm9ZjNgwIBuPw8ygAACCCCAAAIIIBCvwLRp0zJxSn2mPXTmBZn1DXaoh95qP+OGOqKbdlXMNHTJH7frugVJDN/5vtns8syMToMY5UWBjtbVNqTKFFCg0pbaPoRunpbrf0p2zF/drcQQAQQQQAABBBBAoOIF9LOw/e++qB9+bb8X2/+OjD59V6gTvTTGuSqJOXrcTPPZzMJ3qnW1jbYlVZpA9oNogxV9cjOT2fHsefgxTiEf1Eo7e/KLAAIIIIAAAggg0FHA/93nfg/aIKfd70X3278tsOm4J3XjnFBSdbJighiXLW1zzluz3STDKhCwH+DWz2X2w2yjnCBKr4JT5BQQQAABBBBAAAEEPAFbGmMjl7Zebd2Dbm+1okYTCWTUsL+zNjH5cn3/5LlG+yBVkEAogA4mg5HWRluZU/Ij8wo6Q7KKAAIIIIAAAgggUKSAfvfp52C733+tvw+9n4nZvXaY0f5giQQy6p2s1BTHPkrNA9t3XaDdhzWzGzdth60fUjev60dhSwQQQAABBBBAAIE0CgS/8zK/+9y4G7r8hqfd/FzDRAIZdbFcaopjH6Xmge3jFmgLs4v94MadE/aHAAIIIIAAAgggUF6B9r/32n4HdvWoiQQy7j0xXc2ktotjH6Ucn23jE9CHuPSPbnz5YU8IIIAAAggggAACyQvo92D74Ka4PCQSyBSXJdauNYHsB5jQptauO+eLAAIIIIAAArUm4DX0j+HUEwlkhvYr/TBx7CMGL3YRo0ApEXiM2WBXCCCAAAIIIIAAAgkLxPE7sPQIo4CTHr5gjwLWyr9KHPvIfwSWximQq3wljg9tnPlkXwgggAACCCCAAALdK5Dr92Gu35Mut41upJzDdQc0mCtKPMCIzD5IlS2Q60Na2WdV3tz/9NNPZu7cuZEHqa+vN7169YpcVo6ZM2fONFtuuaXd9VZbbWVOP/30chyGfSKAAAIIIBCLQFNTk/nhhx8i96V76HzzzRe5rFwzzz33XDN79mzT0NBgTj311HIdpmL3q9+JdXWdhS7tTy+xQGazxRq6/C6ZnZZsNMMJZNpfOaZqQuCkk04yzzzzTM5z1ZfhAgssYFZddVWz++67m3XWWafoL4GcOw8t0A1BgZXSN998E1rKJAIIIIAAAukSuOeee8xbb72VN1MKaHr27GmGDh1qtthiCzPvvPPmXb+UhXowqR/rup+S4hFIJJBRVv+0ei+z6/QZ5rOZxWV8YG9jTlq5Z3EbsTYCNSKgL8OpU6ea0aNH27/FFlvMXH755WappZaqOIHjjjvOvP766zbfjz/+uNHNhYQAAggggEBXBQqpCdLc3Gx+/PFH88orr5jx48ebDTfc0Gy++eZdPWS3bXfLLbeYDz/80B5ftSZGjBjRbXlJ8sCJBTL9GuvMpWv1Nse8PLPgYEZBjLbRtiQEal1gxx13NAsuuGDA8N1335nPP//cvPTSS0FJiab32GMPc9lll5m11147WLcSRr744ougCkAhN59KOCfyiAACCCCQDoHevXu3u4eqdERVplX1zJWQ6N6jWhCfffaZ2XfffdOR8QJzoXNx906N10pKLJAR6EqZ3svu2aiPOfW1WZ1WM1N1MpXEEMTUykeR8+xM4IADDogsadEXsEowzjrrLBvQaPqEE04wDzzwgOnXr19nu2U5AggggAACVS8wePBgWwU76kRffPFF89hjjwVtUj/44APzwgsvmPXWWy9qdealSCDRQEbnnS2Zmde8OK3JjPl6rhk7ba55d3qzJVkxE+gMH9BoRizYaNRBAAkBBDoXUDsZFSOvvvrqZp999rFPl/Q05s9//rM5++yzc+5AT24mT55s//RkavHFFzeDBg0yjY2lfy3MmDHDTJw40Xz55Ze2Dc/SSy9tBgwYEJmX77//3s6fM2dOsHz69OlBPvr27RvZ7kfrT5o0yUyZMsV2erDEEkuYJZdcMtgHIwgggAACCBQisO6665pVVlnFVs1WNTMlBTaan6+as+4/utepVGfhhRc2yy+/fCwdCKhDgAkTJtiSIbXf0b1tyJAhkaeie6juh37HQDqHadOm2fV1D51nnnkity1X/iMPVqaZpf9i6WLGFKhkgxXav3SRkM0QaCcwcOBAc84555hjjjnGzlcpjXoWi2q4+Oijj5qLL77Ytq/xd6Ki9wMPPND++fMLHVcnAOeff769AYS3GTZsmDnllFOMnoq5pC/arbfe2k0GQwVmLl1xxRXtqsmpPvNVV11lbr311qBKnVtXbYR+97vfmY022sjNYogAAggggECnAn369DH777+/ufrqq20VLd1rnnvuucj7idrT6D46a9asDvvVQzvdR7vSI5qOeeONN5pPPvkkqCbmDqCHjGr38vOf/9zNssNLLrkkqBrnFowdO9boT0ltZg8++GC3yA7Llf92B0loIlWtaV999VXzzjvvJHTqHAaB6hPQl9xyyy0XnNhTTz0VjLuRJ5980px22mkdghgtV0nO3/72N3Pddde51QseqkezI488MjKI0U7UiFJfpu4pkea5+rwaLzSdd9555vrrr+8QxGh7tRH6zW9+Y15++eVCd8d6CCCAAAIIWAE9DFPtBJf0gz+cVO3sX//6V2QQo3V1j7vyyiuNgpJikx7Sffzxx5H3RpW4PPvss/bP329n99Hw8nLm389XUuOpCGRGjhxp9IPr22+/NXfccUdS585xEKhKgW233TY4rzfeeCMY18jbb79tfv/73wfzVPLxpz/9yVxwwQW27rCqqSnpy1TF6oUmfVFqv67HlEUWWcQcfvjhRqUpCixccKXi98MOOywIQtR1tJ5+6W+hhRYKDqdgys1faaWVgvl33XWXUXeaSioq33PPPY2eRp1xxhlm0003DdYbNWqUfaIVzGAEAQQQQACBAgRUncwlVXP2k4KU22+/PQg0VONh5ZVXNptttplRFWpXDU0PBRXMFJPuvPNOWx1b2+hdKqplsckmm5g111yzXXtX1bZ47733gl2rIyC9480vAVp22WXtPM33aziUM/9BhhIe6baqZQmfJ4dDoGYE9KXqktqouKSnQ/qB79Lxxx9vfvnLX7pJs/HGG9v6wCeeeKKd9//+3/+zXVC6L+ZgxYiRu+++O3hKpODktttuC7541XvabrvtZtRZwfvvv2+fNt18883mkEMOsV/6qnKmpI4J1JW0kr64XVBlZ2T+UZCkamsuKdhSnWaXFMBpuYIddXig4KYrJUtufwwRQAABBGpPYLXVVjP33nuvPXHXm5lTuOGGG4JqXAocdB91L3DUPfSjjz4yur/p4d5XX31lq3cNHz7cbZ5zqHfd+DWSdD/Te+H8pHueah0oKX+qRq20xhpr2KFeX+DanKpNzfrrr2/n+/+UK//+MZIeT0WJTNInzfEQqGYBv4tmP5AZN25c0L2xvuD8IMZ5qFRDT3eU9AXuSljc8lzD++67L1ikUphwb2k9evSwjSjdSqpmVmx68MEHg0108/CDGLdAvbWpaoDSu+++62YzRAABBBBAoCABBSYuOPGrZalGgQsUtPyoo44K1nM7XmaZZYwfuOjhXSFJbXFcWnHFFTsEMVqm2gyuM56otjlu+1zDcuY/1zGTmE8gk4Qyx0CgmwT80pTnn38+yEXUkxq3cK211nKj5s033wzGc40o4HHF3KrupSLtqKSSGv0pFbLf8D78/OfqElM3F1fCozY7ehcACQEEEEAAgVIF/LaX6gmsV69ekbtUD6Iu+Q8T3byooUpvXPK3d/M01P3NPSRUgKXe0opJ5cx/MfmIe12qlsUtyv4Q6GaBr7/+OsiB3+5EL5x06cILL7QvzXTT/lABgEsqqt5pp53cZOTQP562zddjmNu3ngzphZ7zzz9/5D6jZvpf9Pvtt1/UKnaeO4YmFDCpnjEJAQQQQACBQgQUJLiSGFcyo+38jmpUMvN///d/ne7OleB0tqLfdbKqaudKLl9arjavg71eQHNt4+aXM//uGN0xJJDpDnWOiUAZBfzSDjW6d0mdafjJ/8Hvz/fHCynRUEDip0L2q/UVWBUTyCj4canQYxSSf7dPhggggAACCLz22msBgqvKpRlqwO8nP6jw5/vj4TY2/jJ/3O/hrJD9als/MPH3lWu8nPnPdcwk5qcmkFHPZUp/+MMf7JB/EECgawIPP/xwsKEazbvUv39/N2rbx+QqvtZKehmXXsLl2psEG0aMhIMRvcsmV3L71fJiX16ponwXNKmnNb/anH88PdnSUzR1FuB3fOCvwzgCCCCAAAJRAi+++GIw279v6j1rLqndp39/dfPdUC+o1Dq5XkTp1nND3c9cMKM2Nn5JkFtHQ7eO1h86dKi/qNPxcua/04OXcYXUBDJlPEd2jUDNCKiPede4UD/k1YuKS3rrsEtLLLGE7ZHMTZcy1Mu/XNKX9uabb+4mYx2qEwMXyOjtycUUqceaEXaGAAIIIFCVAnrT/aeffhqcm99m1A9q1D5mm222CdYrdUQlP66mgToM8F87UOq+3fblzL87RncMaezfHeocE4EyCOhNwKeeemqw56233rrd0yC9LNMlvRQzV9KXqfalv3BRdNQ2+gJ2Dfy1bb7ewtTORfvtrMpXuBqcjus38H/66aejsmLnqd9/l/9Ci/Vz7owFCCCAAAI1IaD2LLfccktwrnoY6N839SoBl/wewNw8f6gHiuoEx3WX7C+LGvd7G/Ub5YfXVZtU7Vd/KvXJlfyq2G6dcubfHaM7hgQy3aHOMRGIUUDBg7o/3mOPPYLAQ9Ww3Ptg3KH0ki9XtKyumNVNcjip2Fp90+u9L/rTi7cKSX6HAEceeaTtPz+8ndrubLfddna/+++/f3hxkDcteOGFFzos33777YN5l112mRkzZkww7UYUxOy+++5B/gvtMcZtzxABBBBAoLYE1CZFL2XXy5X9bo31Lhe/ipfeG6N7q5K20Yubo4IJvTDz1ltvte9T00suC0l+T6IKgpSfcFIQo2PqPW36U+mRn/xqbHqfTTiVM//hYyU5TdWyJLU5FgIlCCjwcN0Xazf60a4icL1Iyy950JeZvpBd0OIOqadLCgAOPvhgO+v66683r776qu1lTCUqkydPtk+j3BMkfWEXWnS+11572cBCfeHrSdCee+5ptthiC/uCTQVHCjoeeOABlxVz6KGHBuNuZNCgQeaNN96wk2pno8BH74pR9Th1ObnccsuZX//61+biiy+262hcbet0A5CLenC56aabguL5DTfckB7LHC5DBBBAoMYFPvjgA3PllVcGCrpv/vjjj/YBYLiBvdpX+tXK3EZ6sbPuxbqvKeg577zz7H1G9y/dkxWE+DUZNttsM7dp3qFewqn734QJE+x6o0ePNnrf2tJLL20UgOj+/PHHHwe9qWleuHq1qo9PmjTJbv/NN9/Ye6XypffSuPai5cp/3pMr80ICmTIDs3sE4hIopHREP/Yvuugis+iii0YedtVVVzV/+ctfgtIaFWFHFWMrGLruuutsY8XIHYVm6qmVvtAPOuggW+StYEZvHnZvR/ZX33nnnW3pkT9P47/4xS+Me+mlSpnUBaX+dNNwReJ77723Dd7uuusuG7z997//NfoLJwVm6hCAhAACCCCAgATU2Yz/GoIoFd3L1M5TD8Kikl5psM8++9iHfgp+1LmMq8ocXn+dddYxClAKTXpJ9VVXXRVUR1MV66hq1ro/Rz0M3GSTTYxqW7igTG1K1QObejdzgUw581/oeca9Xmqqlin61B8JAQTaBFSKki+p1EVPbHbYYQejEhYVN+cKYtx+Nt10UxvMhJ/maLmOp4BCpSdqcOgnPy9+l5RuHX256mmXAhV/Xbdc+VQQdcopp7hZ7YYqfVFJkgta2i30Jk444QQzatSoyK6bVYqkkhqVzIRLpLxdMIoAAgggUAMCuXq3dKeuwEX3M5VwqHRf7UxzBTFuGz0oU9VrV83MzXdDzd9ll11sVWo3r9DhYYcdZoYMGRLZK6fyusIKK5jjjz/e5je8T52D7t9+BzzhdTRdzvxHHa/c8+oykVtLuQ/S2f5VPeTMM8+0q6kR8hlnnNHZJixPoUD4o6Rp/09Fsc2alxlqflOThs2mSdPNLZllzWbhzNMOUnICemKj6mm6NnrnjN+zWSm50FMqVVFT8fa8885ru1rO9RbkqOOoyF5/Coj05RyV9BmaOnWqUTsY3azUnXOudaO2Zx4CCCCAAAKlCKj2gap8aagqzgoSoh7kFXsM3d/UBkb3Ud3f9OCxswDFP4ZqNaiqm+7tuq8rCIpK5cp/1LE076vMPbu+rt7U1WdekZA5r7rMeEODhnWZefWZZXX2fO205rX++fsLnwtVy3wdxhGoMQG9Ayb8Hpg4CPSES4FFse+KccdW0NNZ4KMvM31BxxV8uWMzRAABBBBAoBABlb64aluFrF/oOrq/lXIPVQ0JVSPrLJUr/50dN87lqalaFudJsS8EEEAAAQQQQAABBBCobgECmeq+vpwdAggggAACCCCAAAJVKUAgU5WXlZNCAAEEEEAAAQQQQKC6BVITyIwcOdLoj4QAAggggAACCCCAAAIIdCaQmkCms4yyHAEEEEAAAQQQQAABBBBwAgQyToIhAggggAACCCCAAAIIVIwAgUzFXCoyigACCCCAAAIIIIAAAk6AQMZJMEQAAQQQQAABBBBAAIGKESCQqZhLRUYRQAABBBBAAAEEEEDACaQmkBk9erTRHwkBBBBAAAEEEEAAAQQQ6EwgNYFMZxllOQIIIIAAAggggAACCCDgBAhknARDBBBAAAEEEEAAAQQQqBgBApmKuVRkFAEEEEAAAQQQQAABBJwAgYyTYIgAAggggAACCCCAAAIVI0AgUzGXiowigAACCCCAAAIIIICAE0hFIDNs2DAzcuRI++cyxhABBBBAAAEEEEAAAQQQyCWQikCmf//+ufLHfAQQQAABBBBAAAEEEECgg0AqApkOuWIGAggggAACCCCAAAIIIJBHgEAmDw6LEEAAAQQQQAABBBBAIJ0CBDLpvC7kCgEEEEAAAQQQQAABBPIIEMjkwWERAggggAACCCCAAAIIpFMgNYHM6NGjjf5ICCCAAAIIIIAAAggggEBnAo2drcByBNIgMG3atDRkgzwggAACCCCAAAII5BEYMGBAnqXxLkpNiUy8p8XeEEAAAQQQQAABBBBAoJoFCGSq+epybggggAACCCCAAAIIVKkAgUyVXlhOCwEEEEAAAQQQQACBahagjUw1X90qOrck61tWERunggACCCCAAAIIVK1AakpkRo4cafRHQgABBBBAAAEEEEAAAQQ6E0hNINNZRlmOAAIIIIAAAggggAACCDgBAhknwRABBBBAAAEEEEAAAQQqRoBApmIuFRlFAAEEEEAAAQQQQAABJ5CKQGbYsGEuPwwRQAABBBBAAAEEEEAAgU4FUhHI9O/fv9OMsgICCCCAAAIIIIAAAggg4ARSEcgoM6NHj7Z/LmMMEUAAAQQQQAABBBBAAIFcAqkJZHJlkPkIIIAAAggggAACCCCAQFiAQCYswjQCCCCAAAIIIIAAAgikXiB1gQwvxUz9Z4YMIoAAAggggAACCCDQ7QKpC2S6XYQMIIAAAggggAACCCCAQOoFCGRSf4nIIAIIIIAAAggggAACCIQFUhPIqEoZ1crCl4dpBBBAAAEEEEAAAQQQiBJITSATlTnmIYAAAggggAACCCCAAAJRAgQyUSrMQwABBBBAAAEEEEAAgVQLEMik+vKQOQQQQAABBBBAAAEEEIgSaIyamfQ8tY1paWkxEydONH379k368BwPAQQQQAABBBBAAAEEKkwgFYGMMxs8eLAbZYgAAggggAACCCCAAAII5BTotkBm7LQmMybzN/brOead6c02g0P71ZvhC/YwIwY0mOGZPxICCCCAAAIIIIAAAgggECVQl6nS1RK1oFzzvp/bYk55bZZ54vOmvIfYbLEGc/bqvcx8jXV512NhegTCHyVN+3/Nzc2mWfMyQ81vatKw2TRpurkls6zZLLzQQuk5IXKCAAIIIIAAAgggEIvAV1Onmvq6elNXX2ca6jPDzHhDg4Z1mXn1mWV1pt7Oz0xrXuuff3DN81Oijf3f+b7Z7PLMjE6DGGVQgY7W1TYkBBBAAAEEEEAAAQQQQMAXSCyQUUnM0eNmms9m+ofPP651tY22JSGAAAIIIIAAAggggAACTiCxQEbVyYoJYlwGtc05b812kwwRQAABBBBAAAEEEEAAAZNIIKOG/Z21icl3Le6fPNdoHyQEEEAAAQQQQAABBBBAQAKJ9Fqm3slKTdoHPZmVqsj21SDw9ddfmzfeeMNMmTLFTM00nBswYIBZYoklzIgRI0zv3r2r4RQ5BwQQQAABBAoWePvtt82HH35opk2bZn766Scz33zzmYEDB5oNNtgg05i8MnrBPeuss2xHSLqP//a3vy343POtOHv2bDNr1iy7SmNjo+nTp0++1YNl3333XTA+//zzB+NpHEkkkFEXy6Umu4/l5il1N2yPQMUK6IWxl19+uXnqqadynsN2221nTj75ZDPPPPy3khOJBQgggAACVSHw5JNPmjFjxhj9YA8nBTdavsIKK5i99torvDh10+rZVWnOnNJ/M7uTu+eee8yECRPcpDn44IPNUkstFUxHjTz44IPmpZdesovUQ9jxxx9vA8OoddMwL5FAJvuemPbdpRV78u5dM8Vux/rGfPvtt+bVV18tK8X48ePtcfyDuO6Ycw+1tuuiOTt+9tln+7tgvFVAX9S//vWvM11W5y/d1BfQ66+/bq644gqz8MILx+6nz5G+1JT2339/c+CBB9px/kEAAQQQQCBJgRtvvNHoAV++pN8f7777rrnkkkvMEUccYXr27Jlv9apbtueee5pzzz3XllLp5G6//Xbzu9/9Lud5fvHFF2bcuHHB8nXWWSfVQYwymkggE4jENBLuQ3r06NGRex45cqTRXzidccYZ4Vl2uivz9R9R+D+kfPmJOnA1rD9s2DBbJOrOT9foZz/7mZu0fYHbicz8hx96yI7qPTIKZLLvlmkxu/1iN0MgE5AFIwoSjznmmGBaxeT77LOP2XDDDc0CCyxgn7Zonbvvvtuu8/HHH5tddtnF3HTTTWbZZZcNtotjZObMmeaHH36wu1KATEIAAQQQQCBpAd3f/N9eevfIiiuuaJZbbjlblez99983kyZNMt9//73Nmu5XF1xwgTnuuOMKrl6V9DmV43hy+cUvfmFuu+02u/sff/zR/POf/zS77bZb5OFuueWW4Ldcv379zLbbbhu5XppmJhLIDO1Xb176urQulLUPpWJLFnIFCVEXoZh1tX2x60cds5LmbbrppkVl9/TTT2+3vp6MZP6fM/3mN7/JuaxWF8ydO9ecdtppwekvvvji5oYbbjD9+/cP5g0ePNhsueWWZtdddzWjRo0y33zzjX36Iv9bb701WI8RBBBAAAEEKl1AQcpHH30UnIbuh0cffXS7tjBrrLGGXe5Xk1KVrTvuuMMccsghwba1MLL88svb6nWuipna2KpN7ZJLLtnu9P/1r38FDyr1MLpSalzUZX5c5vlp2e4cuzxx2fs/mSsm/NTl7bXhkSvMY47OtJFR42ZdBJcKCSYUtfuRu9s2aphENayo41bbvHCpWTCd+Y9DlQyz03prq53IzMuMZP4/u7VRWrV5dPV87rrrLnP++efbzdXu5aFMaZaekuRKn332mdlpp52CxX//+9/NqquuaqdV/3bGjBl2XA3+9KQmKqmhpOoba7lrGOjmvfDCC+bUU0+1m6nURzcPpR49ephevXrZcf5BAAEEEECgXAIXXnhhUNKi+46qSgW/MSIO+sADD5hXXnklWHLKKafYe5Zm6N7mahkoIHL3RbWv+eSTT8yQIUNszYbw/r/88ktbZU3VvVUjxX+4GBwoYkSd9bz33ntGjekVSCjIcG1azzzzTLuFptXWtbN06aWXGj3sHDx4sK2FkW99/dRXFTPXlkgdCpx44onBJvrtcPXVVwfTIzO1mYp9eB1snGfkq8xv+Pq6elNXX2caMr8x6jLjDQ0aZn4FZqbrM0NdAzutea1//i7D1yKREpl1BzSYK/xcdGF8RGYfSgsttJAZmQF2yR9385IcFhMkuXwpWFJVoFJSV45b6PHyNSYvdB+sF4+AAheXjj322LxBjNZTLy1bb721eeSRR+xm//vf/4JA5rHHHjOulEylPDvuuKPbdbuhvtyef/55O++ZZ56xX7Kq8ufnRQvvvfde+6dxFenffPPNGiUhgAACCCBQFgH1wOWqi+kAO+ywg/2xm+9g22+/vXnttdeCNqYvvviirZqtbfSw8IMPPrCbqzr85MmTjUp83DN+3QvV25eOs/rqq9t11YBe1axd0m8mraNaESuttJKb3W6o3tRUHc7vDcytoGBGbVmKTdqnkvLcWdKPf3V4oHZFSsq/zkN5VvJrb6h9bTmCGHugMvyTWCCz2WINXX6XzE5LNqa26+XBmUhYf8WmnXfeudhNUr+++w/fZVTT/p9KBLLtYZrtfLWRaWlpNk2Z+S3NaiuT7bHDbV/rQ31Zv/XWWwHDFltsEYznG1EgotISJQX+USl8rfx1XM8pmufG3dBfj3EEEEAAAQSSFNDDNZfUXnTllVd2kzmHesKvdqUqdVBSOxqX/Huhavt89dVXblEwVKnHfffdZ6c19LdxK2mdf/zjH2bvvfdut38tV6nNNddcE3SD7LZxQ5XQ+KUhbn7cQ/1WVQ0NV6tJHQOtu+66tnG/q60h04MOOijuQ5d1f4kEMjqDP63ey+w6fYb5rC2ILejEBmZei3HSyj0LWpeVEKgmATVUdElFzWrYX0hS//lrrrlmIasWvM6RRx5pn9yoeF49oilttNFGtucyjae9n3nlkYQAAgggUNkCn376aXACxbw3bZllljH6y5cUxKjkQp3kqJRE72rTj373QFa1EJRUlVolL3p/m+7Tqobm1vnvf//bIZAJBzF6wKguoRX8KIhRu1ZVVUsiqZG/3rfjSpRUQqN8uLTNNtuYeeed101WxDCxQKZfY525dK3e5piXZxYczCiI0TbaloRArQmoLq1L/hMkNy/Joaqs6U89nri09NJL27rBbpohAggggAAC5RRwP8B1jEIf7hWTH7UxdR0FaDt1P3z99dcHu1AQo15E9cBQSSUaqqr28MMP22kFJX56+eWXjbo0dknV1zbZZBM3aRQ4/Pvf/27X5XGwsEwj++67ry0hUvDlBzFqs7P22muX6ajl2210a98yHW+lTM9j92zUx6iaWWdJ1cm0rrYhIVCLAn4gozYoJAQQQAABBGpZwH+Ypl4840wqKfGDGO1bD+z8d8+sttpqQRDjjq1gxjVAd43p3TKVuLikQMEPYtx8teFZcMEF3WTZh3ooqQ4K/KT8691wlZgSK5FxONmSmXnNi9OazJiv55qx0+aad6dn20asmAlahg9oNCMWbDTqIICEAAJZgag6udgggAACCCBQSwIuYNA5x31fzPXGe1W1cgGK6wU0bK6SGvWAFk5+lbG11lorvDiY1n6jOlpSl9HqdS1fUqN/vRsmnNRoPypw0nrhkiNZqn1MJabEAxmHpEAlG6zQ/sWZMETAF/Cf0Lzzzjv+IsYRQAABBBCoOQF1t+x6/vLby8QBUUgXysW2H/F7WMvVo5nyPnTo0MhARgGHa5yf7xyj1lFeowIZNfKPeiWJei7bb7/98h0mlcuot5XKy0KmEGjf45ga55EQQAABBBCoZQH3bjMZhEsV0uji2qCoJCnfu9YWW2yxRLKvUiO/hEfdRruk3xl+T6luftqHbWeQ9pySPwRqTMDvYUVfPio+HjBgQNkV6Gq57MQcAAEEEECgCwLqKcw92PPby3RhV4lsokBB1cNUdUtdHPuBmJ+BXO+CWWSRRczuu+/urxqMq7tnJbXhiXovXNTLs/UuGxdcKW96meiVV15pf19oX+qZTT22qapcpSQCmUq5UuSz5gTUtaQaFqoYWEm9oqgv/M6SXnJ17bXX2tXUp716KAknVzQfnq/pzz//PGo28xBAAAEEEOhWAXX7rxc9K+n9LHq5eLjhelQGL7300qBKmt7JNmLEiKjVYp+nYMJ13KMq4rl6BZswYULOY3f2rhwFR52to52PGzfOdintDqT3GSpgOfDAA81FF11kgy0FOQp2DjnkELda6odULUv9JSKDtSyg3kxcuuyyy4KnJm5eeKiuKS+88EIzdepU+6cvfZfUY4pLH3/8sRttN1R93kLrHbu3CrfbARMIIIAAAgiUSUDvVPPfW/bII4/YgCbf4dQ9su5XCnxU4yBfo/t8++nKskUXXTTY7KWXXgrGwyOvvfZaeFas07NmzQq6iNaOVeNjlVVWscdQV9KbbrppcDyVDqnb6EpJBDKVcqXIZ00KqE9718WkvoRVuhL15mHhqK/6o446Kug5RV/WgwcPDtxUXOzSgw8+aIu53bSGKvq+4IIL8t4U/BeQjRkzxt+ccQQQQAABBMouoJIEl9Sb2MUXXxz0Kubmu+ELL7xg/vOf/7hJ+7LLJKtNqRG/S6rt8Oijj7rJYHj33XcHpUXBzJhHbrjhhuDervMP19RQIONXXX/ooYeMgp9KSFQtq4SrRB5rVqC+vt6cc8455oADDrAGKmnZbrvtzK677mo23HBD+8Wj0pU333zTdr+oYMelI4880o3aoZ5kKShSiYvW0z5GjRpl306sNxirvu27777bbpvwhPrUd0kNLQ8++GCz9dZb25uDXhxGQgABBBBAoJwCekCnd6u5+9UPP/xgzj33XFvKMGjQINtmRPdF3eu+/fbbICtqcL/DDjsE00mMqHr42LFjzSeffGIP9/zzz9v7te6leng4adIko/yXM+mY/ks5d9ttN6PfFuHkVzHTb4Qbb7zRHH744eHVUjdNIJO6S0KGEGgvoC4br776anP00UcHpS1qB6O/qKRid9UH9p8EufVU4qInMfqSUiDyxz/+0S2yw759+9oXgOXquURvUlYdX9W1VVKXj/rTTeXmm2+28/gHAQQQQACBcgrstdde5o477giCGQUF6gTAdQQQPra6ItYPdb9aWnidck0fdNBBtsq3C1imT5/eoUtlBTa5qnyXki8d8/HHHw92sdxyy9n7dTDDG1EVM3XX7N5noxKk5557zmywwQbeWukb7RiSpS+P5AiBmhdQY0aVmOR7mqQSFzVivP/++yODGCEOGTLE9lDiVzNzuApQ1MjP70s/6qnNn//8Z6MvZgU9JAQQQAABBLpDQMHMVlttZfwqz+F86B6m9iAnnniiUQ9g4eTf4/xxfz3/JZyFrONvq3Ftf9hhhxm9oDKctEz3d91TXfKP5+ZFDdXAX/fyfG1+br/9dtsuSNurdzN1AJQvjRw5sl0VsyeeeCLf6qlYVpeJYltSkRMyUfEC4Y+Spv0/NbJr1rzMUPObmjRsNk2abm7JLGs2Cy+0UMU7lPsE1CBfPZyoOpietqg7Sn2hRX1J5suLSmU++ugj2zWkiuPz3Qyi9qNrqN7P9KWrXlP8/uij1mceAggggAAC5RBQ1a3331aogMUAAEAASURBVH8/aEOqatSrrrpquwdz5ThusftUuxOVGunePXDgQLPUUksVu4uKXv+rTPX4+rp6U1dfZxoyQWZdZryhQcO6zLz6zLI6W+3NTmte659/0prnJwIZX4PxkgT0w9ZPfhCjcQIZX4dxBBBAAAEEEECgdgTKEchQtax2Pj+cKQIIIIAAAggggAACVSNAIFM1l5ITQQABBBBAAAEEEECgdgQIZGrnWnOmCCCAAAIIIIAAAghUjQCBTNVcSk4EAQQQQAABBBBAAIHaESCQqZ1rzZkigAACCCCAAAIIIFA1AgQyVXMpOREEEEAAAQQQQAABBGpHgECmdq41Z4oAAggggAACCCCAQNUIEMhUzaXkRBBAAAEEEEAAAQQQqB0BApnaudacKQIIIIAAAggggAACVSNAIFM1l5ITQQABBBBAAAEEEECgdgQIZGrnWnOmCCCAAAIIIIAAAghUjQCBTNVcSk4EAQQQQAABBBBAAIHaESCQqZ1rzZkigAACCCCAAAIIIFA1AgQyVXMpOREEEEAAAQQQQAABBGpHgECmdq41Z4oAAggggAACCCCAQNUIEMhUzaXkRBBAAAEEEEAAAQQQqB0BApnaudacKQIIIIAAAggggAACVSNAIFM1l5ITQQABBBBAAAEEEECgdgQIZGrnWnOmCCCAAAIIIIAAAghUjQCBTNVcSk4EAQQQQAABBBBAAIHaESCQqZ1rzZkigAACCCCAAAIIIFA1AgQyVXMpOREEEEAAAQQQQAABBGpHgECmdq41Z4oAAggggAACCCCAQNUIEMhUzaXkRBBAAAEEEEAAAQQQqB0BApnaudacKQIIIIAAAggggAACVSNAIFM1l5ITQQABBBBAAAEEEECgdgQIZGrnWnOmCCCAAAIIIIAAAghUjUBj1ZwJJ4JAjQh8/fXX5o033jBTpkwxU6dONQMGDDBLLLGEGTFihOndu3eNKHCaCCCAAAK1LPDZZ5+Z119/3eieOGPGDHv/W3DBBc0GG2xg5ptvvoqgOeuss0xLS4vN+29/+9tE8lwNbj4UgYyvwTgCKRaYOHGiufzyy81TTz2VM5fbbbedOfnkk80888yTcx0WIIAAAgggUKkCb7/9tnnkkUfM9OnTO5zCe++9Z1544QWjgOZXv/qV6dWrV4d10jSjubnZZmfOnDllz1Y1uflYVC3zNRhHIKUCY8aMMb/85S/zBjHK+oMPPmj23ntv89VXX6X0TMgWAggggAACXRMYPXq0ueuuuyKDGH+PKqW58MILzeTJk/3ZNTtezW6UyNTsx5oTrxSB8ePHm2OOOSbIbkNDg9lnn33MhhtuaBZYYAEzYcIEo3Xuvvtuu87HH39sdtllF3PTTTeZZZddNtiOEQQQQAABBCpVQCUt4RoJSy65pFlppZXsvfDDDz80n3zyifniiy/sKaqU4+9//7v5xS9+YVZeeeVKPe2S813tbgQyJX9E2AEC5ROYO3euOe2004IDLL744uaGG24w/fv3D+YNHjzYbLnllmbXXXc1o0aNMt9884356aefzOmnn25uvfXWYD1GEEAAAQQQqEQB3dMef/zxIOuNjY3m0EMPNYssskgwTwGNktrN3HfffUbVttT+5IEHHqjZQKYW3Ahkgv8EGEEgfQL33HOP+fLLL23G1O5FpSz9+vWLzOhyyy1ng5yddtrJLlddYXUKsOqqq0auryBJpTdq+Kcv+8UWW8wMGjTI9OjRI3J9zZw5c6ZpamoyuonMO++8dr0ff/zR6EmY8ql9KLByy/wduW3r6+tNnz59/EXtxnXzUcNNpZ49e9Lep50OEwgggEDtCSgw0b1Hqa6uzhxxxBG2HUyUxGqrrWYb+99444128ezZs83YsWPN8OHD7bTud3rgp6R7ke4zSq4RvO5jQ4cO7XDv+f777827775rpk2bZgMjlQYVklTNTffj7777zmib5ZdfvsO+C9mP1tHDSd1rle/DDjus083idOv0YN20AoFMN8FzWAQKEXjooYeC1Y499ticQYxbaeDAgWbrrbe2DSE173//+1+HQEaBwpVXXmluu+02W3LjttVQwdJuu+1mdCxVYQunzTff3N5M9EV8zTXXmCuuuMLceeed7VbTdnvuuafdh4IWlxRg6YtcSQ011dtaVHrsscdsaZKW7bjjju1KpKLWZx4CCCCAQHULfPTRR8EJKshQY/58SQ/UdI9R0KGkUhoXyLzyyivmX//6l52vHj+1P7UhcYGSFihYWmeddcy2225rFMAogHBV1rT8+eeft+usvfbaRp3sRCUdWw8f3X3PX0f3UN0ni02ffvqpfaDoHvZ1tn2cbp0dq7uWE8h0lzzHRaATAX15vvXWW8FaW2yxRTCeb+TEE0+0bWS0zkILLdRh1bPPPtsWtXdYkJmhYujbb7/ddhag9XIlfeEfd9xx5tVXX+2wipYpSFKJj9+dpAIsF/Q8+uijZq+99uqwrWb4wdv2228fuQ4zEUAAAQRqQ0ClJ7NmzQpOduTIkcF4vhG1JX3nnXfsKgsvvHDkqj/88IN54oknbK0EfwWV2qgUR72eaegf362ndV566SVbQ2GrrbZys+1Q90E97IvaTiuohObqq69ut03cE+V0izuvpeyPQKYUPbZFoIwCkyZNCvaukhI17C8kqf/8NddcM3JVfbGqvrCSSk70JGnjjTc2Kjl55plnbK9nrk7toosuaoOVqB2pKpmS8qVgY5NNNrG9yOiplm4KSupZRnWW3dMqteFxgYx6V4sKZPSlryddSvPPP78ZNmyYHecfBBBAAIHaFHj//feDE1dJid8uJlgQMaISGb1TJl9ypSWqTrbKKqsYBTbqPEfV0ZRUq0FJxx0yZIitFqaqXXqIp4d1SuPGjTPhQCYcxOih4gorrGC3URCjIMNVG7c7KcM/5XQrQ3a7vEsCmS7TsSEC5RVQvVqX1P6l1KQ+5PXl6tKll15qi87dtAIaBR3qe19JRekKUHIFRVpHPcLoy9kllbrccsst5q9//auddeaZZxpVR9NTrWWWWcYsvfTStl2Oq2ccrl729NNPu10Z19YnmMEIAggggEDNCbj2LDpx154lTgS1I1WVapd+9rOfmfPPPz8IVBTE7LHHHrYKmltn/fXXt+91U6mMekfTA0A92FN6+eWX21VD0/50L3Vpm222Mf/+979tAOTmlWNYbrdy5Lkr+2yrwN6VrdkGAQTKJuAHMiuuuGLJx1EpiEsHHXRQuyDGzV999dVtz2duWl+2uZKqsPlBjFtv3333Deoia56ePrmkUhmX/B5o3Dy/WtnOO+/sZjNEAAEEEKhRAf/Fl6pxEGdSzQQ/iNG+FSypvalLqg2hdjR+Uhsdv9MaPZxzyb/nqXG/H8S4dVSTobN2Pm7drg7L6dbVPJVjO0pkyqHKPhGIWUBPfUpNqsvr0mabbeZGOwz19Ojyyy+381U3OFfK12bn5z//ua1XrG1VEqReZJRU4nPxxRfbcTW21FMul1St7LnnnrOTKoEqtEcYtz1DBBBAAAEEihFQFeaopOBF76RR0msPopKCKlVFU1KpjEt+lbG11lrLze4wVElQ+L04biW1I1U72XBS759KaoPzz3/+M7zYtteptdoMBDIdPgbMQCAdAv7TGtdgsZSc+SU8quaVK/kBhOvxJbyuitD9d9mEl/slNeoC2gUsummo5xgFSHqCpaJv1/bH1UXWvvySm/C+mUYAAQQQqB0BP9jwSxniEIh6VUB4v67KWHi+3yunv8wPQNy7bfzlblylPLkCmRdffLFdL2puG3+oe2tUcoFMOd2ijttd86ha1l3yHBeBTgT8Hsdc4/pONsm72D056t27d1CXN2oDfTm7L0DV+41KuZ5QuXX95XpXjZ/0lmWX1NWyS37VN9UhJiGAAAIIIOC3pcx1T0qTkusEQG1r1D40V1IHA+VMlebWVQtKZLoqx3YIlFnALzXRl7dKR/wvpmIP37dvX9ufvYqmVY0r1xes3jPjenJR0BOV1Jd9vuSK5LXO4Ex//n5SpwJ6wqVzctXLlJ8xY8bY1dTLjF/32N+WcQQQQACB2hLwO7tRNevPP//cvnw5rQp6YbSqmimvet9LrvvZ5MmTc56Cuo7Wy6bDSdXJdI9W2n333cOL273/rdLcOpxMgTMIZAqEYjUEkhZQEKG2JXqRl9LDDz9s9OXWWbrnnnvMtddea1fbe++9jRrfK6kffReg6CVZuYq8/W6fc1Uf6yywmjBhgj2m/ll55ZWDcY3oS169m6kbaFe9TN1Xqs6vUrjhpZ3JPwgggAACNSmgGgKqAuZ+2KuLf93bOkt333138B6ZZZddtqBtOttnIcv79etnXFVuVQvXSzOjkn+fDC/3H2T6y1RzQQ8j1UlB+N7qr6fxSnML57/QaaqWFSrFegh0g4D/QsjLLrsseEtxrqzoC+7CCy80U6dOtX8bbbRRsOqIESOCcb8aVzCzdeSRRx4JZq233nrBeHgkV49megrl9z6mvvnDyQ9WVL3M5UclNRtuuGF4daYRQAABBGpYQO9wcUm9gqlUJl9yL5TWAzL95XuNQL79dGWZ3sHmkt/Jjpvnhq+99pobLduwkty6ikAg01U5tkMgAQE12nPtTfRlrNKVr776KvLIX3zxhTnqqKNslS2toN5S/GpdflCkl1VGNTJU9a7rr78+2P8OO+wQjIdHFFjppWDhdNVVVxnXCFFPjZZffvnwKrY0yL3UTE/NXnjhBbuO8pirAWWHnTADAQQQQKAmBNQdv0rzXVKtg1xVs9Qu829/+5ut2qX1VbshVw0Et784h35XzQq41ANZOOm+52pIhJfFOV1Jbl0977ZPRVf3wHYIIFA2Af2oP+ecc8wBBxxgj6GSFnVhrF69VHKhNjP60n7zzTdtV4yuepZWPvLII9vlS09mfvvb39oXfWnBSSedZPehUhs1Snz22WeDtxhruYKiqNIULXPpiCOOMOquWSU3aueiIn+9DMylP/7xjzk7Fthll12Mgp6JEye61emtLJBgBAEEEEDACeihmDqBUbtKJd3rrrvuOqMHYnpYpt4v1XZTf+HSmqj3uLj9lmOoKuHqmdO1FX3++eftPVovhFaNBVXfdp3vlOP4/j4ryc3PdzHjBDLFaLEuAt0goCdJV199tTn66KOD0ha1g9FfVFK92EsvvbTDC7y0rrpB1pf8LbfcYm8ETz/9tNFfOClQOvDAA8Ozg2k1ItSNQ1/WerFl1Mst999/f7P55psH24RHdtxxRxvIuPnqwcXvttnNZ4gAAggggIBqGah9pko4FBAo6Z0t/ntbfCU9CFQpf5LVytzx9dJpVfN2AYu6jXY1Fdw6CmzCvXq6ZXEOK8mtK+dN1bKuqLENAgkLDBs2zPzjH/8w+ap6qX2JXlJ5//33RwYxLsvHHnusOe6444Iult18DdWzmUpyfv/73/uzI8cvuugic+ihh7brJUUrKh+HH364GTVqVOR2bqY6H/CL4FVCQ0IAAQQQQCCXgEr/9ZDMfz1BeF3VMNCDNt3rooIYv/qy1o1K/jr+uL+uv214HS077LDDbCc7/jYa1zLd0xXsuOTvy82LGup8VAK1+uqrRy3OOS8Ot5w77+YFdZmotvRXhnfzSXD4dAiEP0qa9v/UZWCz5mWGmt/UpGGzadJ0c0tmWbNZeKGF0nEyKc6FGjGqt5MpU6bYpz1LLLGE7b1EgUExSddAVdXc0ywV0evmkO8Ldf3117clOSqRue222+zhtB/lRW101Mhx4MCBHYKbXPlSqYyrBqAOAvLdnHLtg/kIIIAAArUnoBcqv/XWW/YepqrNeom0evLyX+qcBhXlTe+CU+mM7o9LLbVUt2arO92+yvzmqK+rN3X1daYhU2JWlxlvaNCwLjOvPrOszraTtdOa1/rng4V/o1C1zNdhHIEKEJhvvvlsd465unQs9BT0ZaDgp9gAKLx/7Uc3jmJvHuqpzAUxm266KUFMGJZpBBBAAIGcAip1qYReLvXOts66Ss55kmVYUCluhZ46gUyhUqyHAAIlC6iesEpunnvuOXPNNdcE++usGlqwIiMIIIAAAggggECrAIEMHwUEEEhM4KabbjL685M6Fhg8eLA/i3EEEEAAAQQQQKBTAQKZTolYAQEEnIA6A9DbldUzWqlJffurW2m/wWOp+2R7BBBAAAEEEKgdARr71861LvuZqtG3nzTt/9HY39epzfEZM2YYNTRUIKS2PiQEEEAAAQQQqA0BGvvXxnXmLBGoWoE+ffoY/ZEQQAABBBBAAIFSBXiPTKmCbI8AAggggAACCCCAAAKJCxDIJE7OARFAAAEEEEAAAQQQQKBUAQKZUgXZHgEEEEAAAQQQQAABBBIXIJBJnJwDIoAAAggggAACCCCAQKkCBDKlCrI9AggggAACCCCAAAIIJC5AIJM4OQdEAAEEEEAAAQQQQACBUgUIZEoVZHsEEEAAAQQQQAABBBBIXIBAJnFyDogAAggggAACCCCAAAKlChDIlCrI9ggggAACCCCAAAIIIJC4AIFM4uQcEAEEEEAAAQQQQAABBEoVIJApVZDtEUAAAQQQQAABBBBAIHEBApnEyTkgAggggAACCCCAAAIIlCpAIFOqINsjgAACCCCAAAIIIIBA4gIEMomTc0AEEEAAAQQQQAABBBAoVYBAplRBtkcAAQQQQAABBBBAAIHEBQhkEifngAgggAACCCCAAAIIIFCqAIFMqYJsjwACCCCAAAIIIIAAAokLNCZ+RA6IQBcEpk2b1oWt2AQBBBBAAAEEEEAgSYEBAwYkdjhKZBKj5kAIIIAAAggggAACCCAQlwCBTFyS7AcBBBBAAAEEEEAAAQQSEyCQSYyaAyGAAAIIIIAAAggggEBcArSRiUuS/ZRVIMn6lmU9EXaOAAIIIIAAAgggEIsAJTKxMLITBBBAAAEEEEAAAQQQSFKAQCZJbY6FAAIIIIAAAggggAACsQgQyMTCyE4QQAABBBBAAAEEEEAgSQECmSS1ORYCCCCAAAIIIIAAAgjEIkAgEwsjO0EAAQQQQAABBBBAAIEkBQhkktTmWAgggAACCCCAAAIIIBCLAIFMLIzsBAEEEEAAAQQQQAABBJIUIJBJUptjIYAAAggggAACCCCAQCwCBDKxMLITBBBAAAEEEEAAAQQQSFKAQCZJbY6FAAIIIIAAAggggAACsQgQyMTCyE4QQAABBBBAAAEEEEAgSQECmSS1ORYCCCCAAAIIIIAAAgjEIkAgEwsjO0EAAQQQQAABBBBAAIEkBQhkktTmWAgggAACCCCAAAIIIBCLAIFMLIzsBAEEEEAAAQQQQAABBJIUIJBJUptjIYAAAggggAACCCCAQCwCBDKxMLITBBBAAAEEEEAAAQQQSFKAQCZJbY6FAAIIIIAAAggggAACsQgQyMTCyE4QQAABBBBAAAEEEEAgSQECmSS1ORYCCCCAAAIIIIAAAgjEIkAgEwsjO0EAAQQQQAABBBBAAIEkBQhkktTmWAgggAACCCCAAAIIIBCLAIFMLIzsBAEEEEAAAQQQQAABBJIUIJBJUptjIYBAXoGffvrJfP7553nXYSECCCCAAAIIICCBRhgQQCC9AvphP3fu3MgM1tfXm169ekUuS+vMmTNnmi233NJmb6uttjKnn356kNX33nvP7L///qapqcnsuuuu5qSTTgqWMYIAAggggIAv8Pbbb5sPP/zQTJs2zeheOd9885mBAweaDTbYwDQ0NPirpnL8zTffNP/85z9t3gYPHmzvf3Fn9IcffrD31Kj96vdDz549oxZV1DwCmYq6XGS21gT0Y/6ZZ57Jedr6sl5ggQXMqquuanbffXezzjrrmLq6upzrd/cCBSm64Sh988037bJz//33B1+499xzj/nd735nFKyREEAAAQQQcAJPPvmkGTNmjJk9e7abFQwV3Gj5CiusYPbaa69gfhpHlP+WlhabtahziSPPF154YXCMqP3p94J+Ryy00EJm4403NiuvvHLUaqmex6+EVF8eModAfgEFBlOnTjWjR482o0aNMjvttJP55JNP8m+U0qXrr79+kDMFZmkJYl599VWz2Wab2b8bbrghyCMjCCCAAALJCtx4443m6aefjgxiXE4UHLz77rvmkksuybueW7+Wh7JSrQ9V6f7HP/5hFPh8//33FUVCiUxFXS4yW8sCO+64o1lwwQUDgu+++85++bz00ktBKYe+jPbYYw9z2WWXmbXXXjtYtxJGNtxwQ3PzzTebyZMn2ydDacmzqsOpeF7p22+/TUu2yAcCCCBQUwI33XSTmThxYnDOeti14oormuWWW86WKrz//vtm0qRJwQ9xfV9fcMEF5rjjjjN9+vQJtqvVkaWWWqrdqf/4449G9zf9uaQgRgHgQQcdZJZYYgk3O9VDAplUXx4yh0CbwAEHHGDCX0RaqlKZxx9/3Jx11lk2oNH0CSecYB544AHTr1+/th1UwJhuSvojIYAAAggg4AQUpHz00Udu0vTv398cffTR7drCrLHGGnb5gw8+aPSAT2nOnDnmjjvuMIcccoidrtV/VIXs4IMPjjx9VfO+7777zMcff2yX6zfErbfeaqt3R26QspkEMim7IGQHgWIFVL9VDedXX311s88++9jSAz1h+fOf/2zOPvvsdrtzRcZq4DfPPPO0W+Ym9CXmntDoKZZfxUvztbyxsdHMO++8dhM91VGDyy+//NIstthiZnCm0aJb5vZZ6NDlT40Qe/TokXMzNe7Ul66+gJdZZhkzaNCggtsGqY2Oboiffvqp3XbppZdud47uoFpP9ZZdaYzm61xdHpW/XJ0tzJgxwz45lInaMOkYAwYMcLtmiAACCCBQhIAezLmk791jjz0253f+dtttZ+9Tr7zyit1EpfwKaNw9Rd/t7ntdAZG7x6l9japmDxkyxCy77LId9q/vc1VZ0z1w2LBhNphyeco31L1KJUk6rvate2RX27JeeumltiqY9rHLLrvkO2zBy3SPUgmM2hap2p6S7nX33ntvbMcoODNdWJFApgtobIJAGgXUW8s555xjjjnmGJs9ldKoVzAXVOhHvwIepZ///Ocdghy7IPPPXXfdZS666CI7qaGqfLm0+eab2y/x5Zdf3lxzzTXmiiuuMHfeeadbbIcKrPbcc097o3E3iHYr5JjQDWS33XazS/UFffLJJ3dYc8KECebcc881r7/+ertlOuZKK61kzjzzzMhSK62sG5A8dEMJp6FDh5rzzjvPBmJumYLAhx56yE3aob7Y9aekkiNVhfOTjM8//3zz2GOP+bPtuG58p5xyir2JdVjIDAQQQACBSIFZs2YFD5C0wg477NBpILD99tub1157zd6vtM2LL74Y3Mt0j/vggw802/zsZz+z1ZlV4uMa3j///PP2YZ2OoweEWlcd0LgHfNruqaeesuuoh03de6KSjq97iN+Q/9lnn7WlSGoTqgCi2KSHeEoKzuJOspCDHvIp6Z5ZCYnG/pVwlcgjAgUKjBgxwtYXdqvryzYquS/szpY1NzdHrWJvDqp3HA5itLKeVt1222220WDkxjlm+nnyx93qCnRUNB4OYrRcx3zjjTds+6DnnnvObRIM7777brPffvtFBjFa6Z133rE93KgLaJdynbtbHh7qaduRRx4ZGcRo3fHjx9v8uxtReHumEUAAAQQ6Cvg9d+qhVSE9a+khmmoobLHFFvZPD99c8u8vum/oe9+fp/XUAF7VrRSMqJqVH8S4/WgdNZDXj/9w+uyzz+z2fhDj1tH9Suf08ssvu1mpGfo9vSnvU6ZMSU3ecmWEEplcMsxHoEIFtt12W/PXv/7V5l5f0ltvvXXsZ6KqZEqqnqYnX5tssomZPn267T3tiSeesMv01EtPqlTMX2pSSYeCGAULSipW135XW201ezNQ6ZPypBvEr3/9a/Pf//7XvlNA6+oGpAafLqk0atNNN7VVB/Tk6dprr7VPnrSequNdd911dlUFJXrapuoJKnlS2mijjYK+/ueff347T//oJvj73//e5kHTiyyyiC2SVymMbpKqFqGbnaozHHbYYTbQy1W1T9uTEEAAAQSyAq6EQFO9e/cumEXVjvWXL3311Ve2dEdVyRTs6Ie77pv6TtefK4FXtTTdz9QAXh0KqBqaW0f3G3U44JICgBsyPVxquZKCKtWYUCn+F198Yas2636TxiBB7+JRlXJVj1bSeaa90T+BjL1U/INA9Qj4T6tUp7ec6e9//7vtr98dQ0HTLbfcEgRSquql6mi52pK47TobnnbaaUa9tCnphqEqXXoyp7TWWmuZX/3qV+bQQw816ipZSS8ZO/DAA+24bjIKcJRUVcB/CaduXKo6t/POO9s2Pm+99ZZRSYy78ejmo7rCLqmti4KTcFKJj6oMKKm6gEqkXEcL6j1OVebUWYOCGdWXVv5rvfFp2JBpBBBAIErALw3pSnWsqH368/TaAtdRgObrfWzXX399sIqCGFXZ1o98pXXXXddWVXv44YfttB60+UmlNO6hm2tkHw4G1LPo119/7W+WmnG153SBTCX01EnVstR8dMgIAvEI+F00lzOQOfHEE9sFMS73++67rxk+fLibtCUSwUQXRtS4fuzYsXZLBS9q7OiCGH93atOiIEelNf67dBS8qH60/vwgxm2rjgtUoqSkgMevXubW6WyoKgguqfTGBTFunm6El19+uZu01cyCCUYQQAABBHIK+A+TFl988ZzrdWWBXgTpBzHahx5Y+W+8V8m/C2LcMRTMuAb74epj/n1X7U7CQYz2oZJ53XvSmPr27Rtky3VuE8xI4Ug6FVMIRZYQqESBYhrbF3t+qnucK6n6lgs+VDStG0FXk4r5XdJ+/EDNzddw4YUXtiUh/rxCxsNtYfybZiHb+8GPqoupikJU0pNE/enp3Ztvvhm1CvMQQAABBEICLmDQbFddK7RKlyejXmmgnamTHBeg6AXNUUkPqFzJi7/clWZo3sYbb+wvCsZ1r1AVZL/anFuoHtb8XtrcfH+otpaqeRBOug+6B3PhZV2Z9u27sn0S2xDIJKHMMRBIUMAvrtbTpnIkfQmr28pcaYUVVggWKRDRSzq7mlSH2SW/2pybV+hQPbCoa8kXXnjB1lNWexXdqFy1s0L3E17P99ZNTe1ociV309OxVVXOb2eTaxvmI4AAArUsoKrJrmpx1A//Umzy3cfcfl3Pn24631AlGO7hWGftIPW6gqjz0cMu/wFeruNFraO8lhrIuK6pddxwSVSuvHTnfAKZ7tTn2AiUQcB/2q8nPuVInRXv+8vdS7a6mg+/aNvfb6H7001F1brCXSUXun1n67kbrFvPBStuOtdQjT4JZHLpMB8BBBDICqjxuUvh9ihuflqG/v3Or54Wlb9FF100ana3z/N71iwk0OvuDBPIdPcV4PgIxCzgGiBqt2uuuWbRe3dPk/JtGPUUyV/fb6OiNiulJP+LNOodMJ3t+6qrrmoXxGywwQa29xndRPS0SftXkBPVbXNn+9bycDCid/nkSioBcje3JZdcMtdqzEcAAQQQaBVQGxPXU2axVX+TRvTvd3r/Tb6kLpqjkh5A7r777lGLbHfPWqD7yI477thhnXD7zA4rdDJDDw79qnGlVAvv5FCxLSaQiY2SHSHQ/QLqOcv1aa8G8bnq5+briSTXl6t/dip10FObXG+r14srXSqlOpj24T+1Uq9ixSb1WubSX/7yF9v1spt2Qz/4c/MKHfoGqkqgXtpICCCAAALxCKi67v/+9z+7M1UF1ju5onqPDB9NHcO4EnO16dR71sqdVHqke6/yqbYuatOTq52JSuVzpc7umzpOZ+vk2ne++bfffnuwWFX6ylWrIzhIDCP0WhYDIrtAIA0CKgU59dRTg6yoK2S/jq5KHlxvX36JSbBB68i4cePCsyKn//3vf0fO1xe33mbs0iqrrOJGuzTUm5VdvtXOxS+693eonmL0AjS1x9H7YJT09M6tr5ITvT8mKuV6cWh4Xb/I3S1TzzOugb8CvHxvQ1Z7H9kXEiy6/TNEAAEEallA9zG/5PuRRx7ptG2jeqnU97UCCtUyUDf9SSX/XTf+gzT/+Cr18Hs385d11/hjjz3W7t6Uq5OD7spfruMSyOSSYT4CFSKgH8/q/lc/4F1/++o+Ud0j+0lPhdzLwfQFqhc9hpMCEFeEH14WnlY/+O69Lf4yVeVyjRAVgPhvVPbXK3RcN7GRI0fa1XVTOuqoo0y4yF43qhNOOMF2nazqZ+o+U0kNH91NRUGN397GrpD5x39q5+b5Q7e95o0ZM8ZfFIzrPQQu6UWafgcFbr7aLuklnnqnzP777+9mM0QAAQQQ6ERA7/pySVV0L7744qBXMTffDdWhy3/+8x83aR80qYexpJLeP+aSaklEVYm++uqrOw3G3D7KPVTJ0DXXXNOuerVKfOJ4mXW58679U7UsCWWOgUAMAno/if8ysOnTp9seT1TdSj/wXdIP/0suuST4Ae/ma6jSDVf1TAGB+rLXUxdVNVOpxKOPPuqv3un4EUccYdRP/nrrrWeDiyeeeMK8/PLLwXZ//OMf25UKBQuKHNH7X9SNs9rmKAjbddddzZZbbmnbAOn8n3zyyeBmoeBpl112CY6gvClfCvh++ctf2nrFeknlRx99ZB5//PF2+Q028kZcUKRZamh68MEHG5V2qRRGL05T2muvvWyQo3Y26vFlzz33NKrKoHcNKMhSAOR3p6mXd5IQQAABBAoTUNuTFVdcMSjx1vfsueeeax/ODRo0yLYZUem77hF+1Wk9wNO7xJJMeqh4/vnnBw/cbrrpJqMeRNXVs/I2ZcqUnEFYufKpmhJXXnllu93rgaD+XDfTbqFqGVTSwzYCGXflGCKQcgH96O4s6YWQF110Ubt2Jf42xx57rH2/i6o3KfhRcBROauORqzjcravjKKjSu2KUr6i86YswrvYiKhW59tprbamTbmBTp06174y57bbbXJbs0AVxfneZv/rVr2yXyyqtUhCk/ejPJW2j7iqjzkHr6DwV+Lgqdypt0p9uqq4nNN0szzvvPHPQQQfZUiHl8d5777V/7jhuqCeLpXRH7fbDEAEEEKglAT0wuuOOO4JgRj/OVYMgVy0C3QcOPPDAdtXSkvDSwzTdd/72t7/ZB1nKp0rpwyX1uo+6B4tJ5Ctfmxx3fN3v9IBT7WMqJVG1rFKuFPmsSQHXNiTXyesHvkoM9MTp+uuvtz/u/cbx4e1cQDB8+PAOJSXq015fvH5PZ/mOr4BJJQvhdRQYHH744WbUqFHhw7dbN/xWY//lnf6424meaN14442RfeTrmDonvSBMQYefdLO48847IxtG6o3OCkZcGxdtF3VstblRkOK/8dg/hsaVBz3xUqASNtFyXSd1NnDKKadokoQAAgggUKSAgpmtttoqssaB25W+w1WNWtWroxqr+9/x/rjbXkM9nHKpkHXcum6oFzcrr37X0W6Zqrlts802tjaEm5frGG65G6qBv6prx9XmR8dVD2gqLTrggAOMHnZWUhAjl7pMpNjigBgiUIpA+KOkaf9PVWyaNS8z1PymJg2bTZOmm1syy5rNwmV6gWMp51XN26rurtqOKIjxq63lOuf111/fluQoOHClIbqWKirX0x4FUaofHPVDPtc+uzJfxeFqMK82L3q3TKEv/tRnUE/v1JuMAouom0y+/Ohc1QuObnLaNhyMuW3nzp1rPv/8c1sVTU8F1dVypd0c3LkwRAABBNIooJoFKtFwJR26F6iqtN9lfxryrepkrtRocKaKnN/TZRryl2QevsrUpqivqzd19XWmIRNE1WXGGxo0rMvMq88sq7MPE+205rX++XnUPD8RyPgajJckoB95ftK0/0cg4+tU5nhUIFOZZ0KuEUAAAQQQQCBJgXIEMlQtS/IKciwEEEAAAQQQQAABBBCIRYBAJhZGdoIAAggggAACCCCAAAJJChDIJKnNsRCocAE1dlejdv/lZBV+SmQfAQQQQAABBCpUgO6XK/TCkW0EukNAb/4lIYAAAggggAACaRCgRCYNV4E8IIAAAggggAACCCCAQFECBDJFcbEyAggggAACCCCAAAIIpEGAQCYNV4E8IIAAAggggAACCCCAQFECBDJFcbEyAggggAACCCCAAAIIpEGAQCYNV4E8IIAAAggggAACCCCAQFECBDJFcbEyAggggAACCCCAAAIIpEGAQCYNV4E8IIAAAggggAACCCCAQFECBDJFcbEyAggggAACCCCAAAIIpEGAQCYNV4E8IIAAAggggAACCCCAQFECBDJFcbEyAggggAACCCCAAAIIpEGAQCYNV4E8IIAAAggggAACCCCAQFECBDJFcbEyAggggAACCCCAAAIIpEGAQCYNV4E8IIAAAggggAACCCCAQFECBDJFcbEyAggggAACCCCAAAIIpEGAQCYNV4E8IIAAAggggAACCCCAQFECBDJFcbEyAggggAACCCCAAAIIpEGAQCYNV4E8IIAAAggggAACCCCAQFECBDJFcbEyAggggAACCCCAAAIIpEGgMQ2ZIA8IdCYwbdq0zlZhOQIIIIAAAggggEA3CwwYMCCxHFAikxg1B0IAAQQQQAABBBBAAIG4BAhk4pJkPwgggAACCCCAAAIIIJCYAIFMYtQcCAEEEEAAAQQQQAABBOISoI1MXJLsp6wCSda3LOuJsHMEEEAAAQQQQACBWAQokYmFkZ0ggAACCCCAAAIIIIBAkgIEMklqcywEEEAAAQQQQAABBBCIRYBAJhZGdoIAAggggAACCCCAAAJJChDIJKnNsRBAAAEEEEAAAQQQQCAWAQKZWBjZCQIIIIAAAggggAACCCQpQCCTpDbHQgABBBBAAAEEEEAAgVgECGRiYWQnCCCAAAIIIIAAAgggkKQAgUyS2hwLAQQQQAABBBBAAAEEYhEgkImFkZ0ggAACCCCAAAIIIIBAkgIEMklqcywEEEAAAQQQQAABBBCIRYBAJhZGdoIAAggggAACCCCAAAJJChDIJKnNsRBAAAEEEEAAAQQQQCAWAQKZWBjZCQIIIIAAAggggAACCCQpQCCTpDbHQgABBBBAAAEEEEAAgVgECGRiYWQnCCCAAAIIIIAAAgggkKQAgUyS2hwLAQQQQAABBBBAAAEEYhEgkImFkZ0ggAACCCCAAAIIIIBAkgIEMklqcywEEEAAAQQQQAABBBCIRYBAJhZGdoIAAggggAACCCCAAAJJChDIJKnNsRBAAAEEEEAAAQQQQCAWAQKZWBjZCQIIIIAAAggggAACCCQpQCCTpDbHQgABBBBAAAEEEEAAgVgECGRiYWQnCCCAAAIIIIAAAgggkKQAgUyS2hwLAQQQKFLgxx9/NM3NzUVuxeoIIIAAAuUQ0HfyxIkT/z975wEmRbG14VowYc45gDlgzjmLIhhQMaNgugIGLpgjZsGLYgQjihnM4aqgmHO8ijlhDphFRQX+feu/p29tb/fszOzk+c7zzHZPdXV19duzXXXqnDqVVdF//PGHmzx5clZ5lSk/AtPld5rOEgERKAeBX375xb399tvujTfe8Jfv2LGjW3HFFd0ss8xSjupU/TVREGho0mTmmWdOO1TUdJ7x0KFD3VtvveV+++03f62rrrrKrbzyykW9bkuFU5dtttnGZ+vUqZM76aSTWjql1cf//PNP995777nx48e77777zi2//PKO3/18883X6rJbU8DTTz/tjj76aF/E8ccf7zp37tya4nRunRP48ssv3euvv+5/45MmTXK8e+aZZx63wQYbuNlmm60q6Jx++ulu2rRpvu4DBgwoep1/+OEHz2zChAn+WksssYRbZZVV3Jxzzpl67XHjxrknnnjCH19ttdXcDjvskJo36cB//vMfd8cdd/hD888/vzv00EObZeM9df311zva6ylTpvjjSy65pNt3332b5S12wq+//hrVIX6tmWaayc0444zx5Kr7LkWm6h6ZKlyPBF555RV3wgknuIkTJybe/oILLugGDRrkO3mJGZSYSOC2225zgwcPTjxmiXPMMYdr376923nnnd1WW23lZphhBjtUlO0777zjevbs2azxsQaxKBfNslDqgGKB0Ikopnz77beuf//+XnFPug4dvaOOOsptv/32SYeLnsaorLGg4ykRgXwIMFjxwAMPuJ9//rnZ6Sjwzz77rFdoDjzwQEfHs5LFLMd//fVXUavJIMIjjzzS7B354YcfOhSV6aabzg8srL766s3qgXUEZQvJx1LyzDPPRGV+88033lreps3/nJt4Lw4bNsz9/fffUT524t+bHCzilyFDhkT3m3SZhoYG17ZtWzfvvPO6jTfe2A+MJuWr5LT/0a/kWqpuIlDHBG699VZ3yCGHpCoxoPnqq69cjx493F133VUUUkcccYTbYost/Mcaq6JcqMSFWoOW6bI//fSTe+2119ypp57q7/+pp57KlL3Vx6677rqogUZBZcTv/PPPd8suu2yryy52ASNGjIh+JzDLV1599VWvOGKZShOsQwMHDnRnnHFGxCvMy/XtN0u9JCJQaQQeffRRx/s9SYkJ68oIPx3Szz77LEyuy/1bbrnFjRkzJvF/3oCgNNx9993u9ttvt6SCbZdZZpmoLBTLUInhwGOPPRYpLSgJvMM33HBDt/nmm0fnsfOvf/3LnXbaaf5TzkEq2kB40YcYNWqU/51hSaomkUWmmp6W6lp3BO655x533nnnRfeNW83uu+/ueJmiULz77ruOju8nn3zi85x55pkO8zom80LK119/7TBRI9l0/gt57VKVBbNwBA+XM9w93nzzTcfIG8IIfL9+/VyfPn3cfvvtV5Sq4V5igjtZuV2orC7ZbH/88cfod2IucdmcF+ahs3bwwQdHSVjEDjroIK/I4TLCKPWDDz7oHn/8cZ+HDguMUPZD4fr2m6VeEhGoJAJYWuj0hrLooou6FVZYwc0111wO68Knn37qePciWDmuvvpqt+uuu1blqHl4n/nu33nnnU0stLhFwQuLOe0h81awcJlFiHfpwgsv7NZbb718L9nsPAZH5p57bt/x32yzzZod/+KLL6K0VVdd1e24447R93CHtsTaUuqOVaTYsthiizW5BFZl3pPhuxolBrdmvAIWWWSRJvkr9YsUmUp9MqqXCDQSGD58eMRh7733docffrhjlMcExaZLly5+VOf+++/3ybhLFVqRsevV8pa5H3QSkgS/6JNPPtlZI3XJJZc4GqlicGZkDGEkr5qUmCRu+aSF1hPmwlx88cXe597KotOy9dZbu/vuu89bZEhn5DWuyFh+bUWg0gjQiR07dmxULVyhUNaZc2FCBx2hM04Hns4uHV8Ud+ZF1qPY3FDuHQUFd7uwPWQgijkvl112mZ9rRL7nn3++oIoMZWZ679vgCflw1aoUgVOvXr0Sq4M7HL8xGxDFQnTDDTdEcwATT6qgxDYVVBdVRQREICDAqJJZAkimoQtf2pYV0zZzCWxEhwYykz8u/vxMnMaXGBee77//3opqtmV0ho+NcJEBNwhLtxGlZie2kECjzEuTEUnqYnMNWjjNH+YliyWKcxmBo6xiCxNIb7755iaT7Zmf0dK1mdP08ssve9bhxP14fbknY2rHmANiaWzThOfJc3zyySeb/F6S8lNfKzNT3Xke5Mt27gcjeuRnhM+EBt2ulen3aPltG3ZWUE7SAi4wN2bppZf2p9EQ23lW97BDQb2sLhbcga2lZWLBBeBA3nDk0uqbzTbb30E2ZSlP9ROg02juRLzT//GPfzRRYsI7JMBHOEmceR0vvPBClIV3MO9wPuGcD6zJDz30kGMQJun9yu/5xRdf9HlycVnDzQ1rElbRXN/dUaX/u0NnGbfZyy+/PH6o2XfuzZhxcI899khsD2kHGfQz4d2QdP923Lbc18MPP+yYjxpex46H2yTelhZ/l1i6lUl9SAvzWRrpLbWpF110kWdmAQfCeuW7jwUQC8wmm2wSFcE7s5DXiAouwo4sMkWAqiJFoBAErMNFWXTm0jp0HCeqDW4HKBk0jIzwxYWXJW5q+BfHhREmIi+1bxztNuGluu2229rXaEu0KhNGvtZcc0372uKWOjCvgcmaccECceKJJ7p11lknfsh/xxpy7LHHNnEtsIxE9qFc3JCKJfhDExiAET8aRubO0Ogl3T9zOwi+YJ3rsE5EtyLaVfg8saKFLoTkx7Vkyy23jE6l40CDY8J3zqEeoRCMYNNNN3WnnHJKs8AEPHuLNAbrtIg9KGk2qRUFqaUAB1iy4oEoCE5hsv/++7vevXvb14zbUFlYaKGFMubl/nG/QXCpRM466yxn1kmf0PiHBtka5eWWW86NHDnSWzFtVByXTKw8SUIHZ7vttvOHGDG/9957k7IlpuX6O0gsRIk1R+Cjjz6K7gmrOtHJMgnvZdyZeCcjWGnWXnttv887CBdkBFcgymPujXWcSadNWGuttfwEeBQYFAhzWeM4/+vk4V2WFjyDa+PGHH/fcD6uzrg85yq80/l/z2bAJHwvUNdMkdx4T3bt2tW3hwz0ZXp/MaDHvMeQF1Yv3s9YMOLPBtfWG2+80d8qFnPeawxSMdcpLigdJrDlGYReFnaMdtSEgDLMqUkT+w3konymlRVPZx7P+++/H3keEHimGkQWmWp4SqpjXRLgRU0kEYSXOC/cTIIrwrrrrpuoCNDxZtJ4khJDmYzo89K2lyRpLY0MkScXYfSOxiVJiaEcXKr69u3brBPKseeee87tsssuiUoMxykTX2QsNMUUOhPdu3ePLmEdiCihcYcGBpeHJCWGfHSyjzzyyCYjcmEjGpYV7ocjeCidKCRJnQqeNc8Z5YFOS5pker7htcL9tLJaqn82ZVjZa6yxhu1GHYYoIbaDewm/eT7Wscn2WmGHDTe1NGFU2wQ3zmwln99BtmUrX/USYDAnHKRKmmeRdHdYGVC2+aS5LGGFTIrmxf86VhyOXXrppU2UGLsWebDQMEASF/6/r7jiisT3DXnp3GdjVYmXm8t3lBPzOqCuSfUMy+M9AtvQyhAeZx9ljrl2Se8v2lyUjvg7NOm9mZQWvxZ5ss0XP7eU37F0mWAF+/zzz+1rxW6bD9tWbFVVMRGoPwKM4BCaEznmmGN8ZDI69C2NVIekeHlyLiP8CKPKhBLGCkMDxOgTozA0gkyyZrSJESwaDmuc6DjbiDsNoVl8comkhTXDTPyM4FGHlVZaybsj4Wph98laBFiCwmgwWDesseEYE+2pH6ORjK4zIZ+Gh/oyIl9MYXSeNQKQcGI+32n0YGj3iVsI+ds3jqi+9NJLbvTo0b4zgOJIPbGKINyT+cTbRHcsVES1MeF+Ec41SwLfcTuh0WZ0EAsAo4AoODxTIvygVBVbuCb8GbHFgoOgOFvwhFwmjWKRM4sKc19wrzzggAP8byWb++C63bp1878NG+ncaKON/P8O55vVbv311/ejrtQbRZnOZVJ4W6sL56ZN3OVYKPn+DsIytF+bBPi/NMGyEM6LsfSkLYMoWJ4ziQ1s8O7g3co7nfeFuZzZ+ilcd6mllvKWFP6/iPBn7p+8p0KrO9dDiQmVLwbYePdzDm0IylnoBp2pjq05xv+uDbbh3sZgAVZr3q/5CNZWhGeAmyrBRHBbtmeESzUuxbh1ZxJY2vpaKIvG0tI4F0sw5VsabmzWphFAwNpU5gWWUxgQYl06s5Jhbcrl/V2OukuRKQd1XVMEsiRAhCzmWFgjQUeRz+KLL+4tL3Rgw9HopGLpPFvIYDrDKCqzzz67z4q5G8UIxYCXN/NWUAzoOKJI2KRG8psiQ+fURsaSrpeUhr+2malpdK688krXrl27KCv3gcLFKBsvdxQTe6HjfmDuQ6SFnXsaMTqkjCJh0WF0jRH5UAmKLlKgHZuXQXE04KHgzmWc6HTg/02nAUEpxZVrt91284oOCuROO+3k75PnYoqKlUejbfwtja2FFOUZcL3Q/Y/OBSzpyCO4jJRCkTGFFpcWE1xckupvx9O23A+KmilEbPnAg+hD3B/bNGWedD7hfB3+X+J14TeChQWXEH5zdPLi7mV0mux3S0ck7Zrxe8n3dxAvR99rj0D4zijGYoS8I3mnm+AuhAumda55H2FV5v/ThHcoAUx4B9N5ZyDG3LFof0I3NMoLrRwM1OBuiQJUbKHeKFWmAKDIXHvttW766af3rne4l9IeovRlK3FeuOzh/WBREU1xylQezxGGCO8RY21p4bmWFrr/8T7jHipF4GeKTDVEfJRrWaX8clQPEUggQOcWxYLOfygoHCgoWErozLPOC5Pfk0zXWDtMGKE2JcbSeIHSiJkwgldooQNIp5oIMnQcQyXGroVvsAmNpwkLI5rYqJV9Z4svM0oBZdPhLaYSw/XoCNj8lviEcut8zzrrrH6OjCkxnIfAgfVoTJiIm6ugyHGv8AyVGCuHEK4WZhOFsNqE50fHK65UMNqMonv22Wd7y8hee+3llTosKvkKVkGTJPey0K3MlEPLn7ZFgSrF7yDt+kqvbALhmjHmDlmoGjO4ESoxlEsnO1TAaVNCJYY8zANhFN7ElHe+Y3Ex4d0SKjGWzoBAfC6JHSvkdoEFFvDWkXinH+ULZYv3ItZh1mjBvTapPQzrQzlxXhxHWbN2JLREhefW8j7tl0nctc7SK2kri0wlPQ3VRQQSCNDw0PnH5M1oPKNf5rpk2enU8sFEjcuSvYQZubKGiBG2JZdc0k5psuUafBgtZC5LqYUGJ1RSws6puVxRJ5Qs5pcw/4Pwx3FFodT1Dq8XupkR5cxGNMM87IeWgfCceL58v9Oo80Fs5DLfssp1Hr9fJuDzrFnkld+9WbqsTlgQzznnHDdixAg/KsvvN1fBJQSlD4tfkntZqNzE3W3SrhU+03L+DtLqp/TaJWBuk/E75H/DrNrMK0sSlCobmLH3B/nMG4B9rKFpgmUjvi6O5WVAIKlDbO953lMEPIkLbULcnRNlhgE83OGYG8lAV1xh4T44RlvGkgXWHsbLx9UrTVAAzaqLVSJT3rQy8k2HP4NzmQRLURIzXIyTlM1MZWU6VkltbFo9pcikkVG6CFQYAdx3iNrFfJcJEyb4OQCYpxmFsg4r/rnkYU4JYj7A7KP8MFcgTUw5ohFg9DutUUw7P5t0GkXqTCPDnB2uRWNh9U8qA4UAVzcWh0Q4lw+jjygzmzVO6CQSWNzSlFRWIdJoNK0BDkeuQvcL6peJtdUj7PRaWjZb6oDiynWwXvGccQWwZ5hNGdWQh0YZ1zg+dFjovGDt4DdkzwCXQiZCY6E0S1ku94ZV5sILL/S/wdC9DKXeRqbpGGRbdil/B7ncp/JWBoHwvRpaZwpRuyRLd7zctAGWtM5+qICEg0rxcrHypCkyYRsVP8++pwVHiSsylp93Px/ehcwNxPr8cWOwF1PGyEc7xv82AyJJYsF0ko6FA2txRSkpfyHTePek8Qivk5SH30BrFZmQYaGthmH9C7UvRaZQJFWOCJSIACMk7RtdzfjQCaOhYYI8nTuELZ1aXAVs8qc/0Pgn244unbGwwbXzW7NlciOT2zMpLWnls54InVpCTNsIIeXQieczZMgQP0GVuQlhA5RWXmvSzcJFGaEvdj6sQ0Uz2zrxvAmPHLrfZXtuNefj+eN+yId5UPjG22R+rDVEZSLsdK5C9DI6OwgWGHNpCyP8ZetWRhml+h1wLUn1EQjfGdm+j8t5lzbfg3YnKRiG1Y0AA+UQ6oWCZUoWloowTDT/j2kWlWqwNpSDaTgvqJSWqHzvVYpMvuR0nghUCAFGTHCxYcI7I1II0bywCMSVEeYXpAmRbWzyKb7QhRQ63ccdd1xUJBOnCTTAdbCkUM8PPvjAXXDBBVGe+A6dST5EUWHkHFeg0KLB/AlG7YcNGxY/taDf//3vf0flhW5iIWuUzEwrzRvrTB2D6CKxnT59+kRhqLFK0fHGRYoOkrHhVAjOAABAAElEQVRkBNIsFrHTs/qabQjjrAorQiZGj1nADUXQ1m/IV5HB7YbfIpOVQ/cyWy8GSwyTcbOVUv0Osq2P8lUWgTBYCCP9WBTLpQRkQ4aBIVydqKsNkCWdx8T7NMFiam5aYR5co+xdQxCUuPB+y1V4D+JORptoLnKElQ7nYOZaZqnzE0UtiQf1GDVqlK8ObXXSOmCt9UxgoMwm+nMhIm9WukiRqfQnpPrVLQE6VbaCMx34NN9mANGxI0qWKTLmDx2O/uFSQGCAcggubya8oLEoxCVbNwsbfSNMMSZ4QgxjqUFQmFBmGL0vhjDyTzhOk3BdkTCMKs+qGKxRTnCjMCE0cNLcEFzeWlJk4pYDK5MtnatyCL9b5sQgRB+yRf/S6sLCcabI2G8+LW+mdCb8oshg5UNJJsKcceYZp7ndJJVZit9B0nWVVh0EUHRx/7GOPe9GAle0JLhO2m+SuY7ZnNNSmdkcp2NslmOuj9KfJMzhTJMOHTokHsICynsKhWXFFVdMzGOJeBow2IUwGT9tvifH+X/FbYxomUh8fp1PrPA/LfHA46KlPPnc4k033RSdxkBb+D6LDlTYjqKWVdgDUXVEwAgQdtjCLdt6LnYsaYsfsokpPYym2QsfNwbz+bd84RYFgM6gvfzDY+F+PuEYiflvsn/jRP0kSfOvpqFDYeG6cV9lOvH/+Mc/mqyvkE8ksKT6xNOox4ABAyLXOF7w+GibhCNXBCXIpEgwegnr0IRv5WTahu5kjDAmKTG43pn7Xbys0NJG5LskYUSO315rJZ/fCa4e9pvHTbAlMUWffGFkpvh5LXHGJc1Gf+lchW5lhMjORUrxO8ilPspbeQSwoJrgqtrSwAH/k8wBQdHmY+szWRnF3DK53gTLRpoU671r10OZ4r3JJ1zbyY7Ht6Z8kR4O6MXzVcL3SlG0eO+F7T8BHKpBpMhUw1NSHeuSAFGSrHPFi5vY9mnCqLQt4kWesDMVTpZksUAUlrgQ3YW5AoxM9+jRI364yUTnUClpljElwcIBczhppWCUmDDUbVgM8xdgwUJizIVJkrCjykJwhRSUJ6xjrGEQhjNmgc/QxxoXJFsjACWmb9++kdIT1od1fLCwwZoww7lIqIgkKRtcN3Thi5fNQqQmdNhDFwLSuVdCl9JZykfCCfEEIshVuD/cDhEad0KpptUF90mzxpA/br0J68LzyySEYSVgBEJeRr8RBgRCVyCf2MKfUvwOWqiCDlc4AZTjcC4f62qluWYx4MAixDaIw+/L5oOU4jbDUM0oXEnvaf5fMll4C1FPW0iSslBScCVOE94L4fwjogdWmoRW3nAQshz1ZE4s6/OE72wsPvQJqkHkWlYNT0l1rEsCNFjMf7AV74lWRvjLzRqjdDGiR0OIhYVJ9ERzMsFvNhyBYu4MnTNeUkQj2X333X25rKCOfzLHwlCPSasYs9CYRUhhng2KDwrDxhtvnFW0MEa8bVFOOvgoV7gFMdKIYkSnOk123XXXaBFI3MhwyeC6MMCqQSfAXC6Ym5KvvzkMPvroo6garB9Aw82cnDCKCxlwjUvqTLDGCwqPRZ1hHxczLDc0vsyvCReO69WrV3S9bHa4P9zGqA9KFeezlgxWN+YL3XHHHRlHd3EvpHOOEoSCgELFnBtWbkbBxP86k9WupTryOzGho8FcIOZqoVinuZdYftvuueee7tRTT/VfWUOJclD6uEfWqiDaHZapcFSWZ467SSgsgmnC8whZ4ToWFwJn3HPPPZ6LuWhy3Xyk2L+DfOqkcyqHAANULCTJ7w3hf5GojFh5GWzA0sr/KJ+4taa1EalypcD/LpZPc90kWiLvf/6/UK6IoBl/P+Z6jWzyMxeUds0GrWg3sAIxSMY7jfYQpY+Pue1RLm7G+bYJ2dQr3zwoCrZGDe03lhCsyrwvi7EmD88qPn+U6/PhPR0KLJMGNMM8lbQvRaaSnobqIgIxAieddJJf8dcaPDpwoXtRLLvbZ5993GGHHdYkGasB4ZiZHI0bA40OHV4+cWGkkM53XFAmTNlgpIsROD5EjUrzmQ7LQCEzqxHn02G2SYuWj7kz8TSOMSIeHkPhCBUvOx/f84EDB9rXnLcoQ6YQpZ2MEoEVJW09BepwzTXXeIbcJ40/65wkCZHmch3tpxyUKHO7Qrk0BdOugbJDQxRa6OwYWywu/E7oPNHBP+OMM8LDXlGikxJan5pkyPAFBRMF3Nzq8GvnQ6OIApuNYBmhcWWyLoKbnEUnSzqfgAvnn39+s3ksdAZtEj/nGSssPihIccGNAr/60M0jnAMVz5/peyl+B5mur2OVT4B3CO8ILBxmbcnkFsoIPr/HUrqVGUXaDqzhprAwnzH+3uGdkeauauW0dsu8SAau7H+U9wwDL2mDLwzQELq/EgXrvQUU4fljFeGDEpNN6P587onyWxLem3DOJxBNS2UX67hcy4pFVuWKQAEI4PKCMkMHPWk+hF2CkTwWECRaS+juZMcZiWc0BkXF3NXsGFsaIVylWGgsSbC+DB06NCulJel8Rp/o0GM9iK9jQOeRRjJcpT5eRzrvRDSzuT/hNVAuUJTuvPPORCtJmDe+T4c/k1BXRvMIpACfsWPHpioxVg51JDQwk9WThPQbbrjBu8slHbd7t208DyO5dOyTRhmxxtHQZ1pPAksWv4XQzcyuQcefOSphyM3QBSKsUxI7lBgUOZSRMK+Vn+0WSxHKBkpZmvDc9913X38v/L6SBGWIThh5s5GuXbtG2VCQMv3PhfefdK+t/R1EFdFOzRIgGh5Kfqb1THif8zvk3Z6kxIT/n0nvfuCFecL9EGx4bjwPx+jcJgVR4Rj/K/yfmYRlWVrSlvvhPZSt6xeRurAgowTG6xiWz/8jrqasPxWvS3he/FhYRpgv3A//15POT0oLy7V93rW5rE9l5zHBH2Zpg2mWL9st9wZXLFv77bef/51VkxLDfTY0aoLTsr1h5ROBTATiPyW+hx/cmKaS1rglfcoUtlPdFL5PndZ4bKqbr7FTK0kngMkcq4qNtrNIJp+4cpBegnOsC4C7AqPxdHiZl5DLi8vM0bzQ810sC39wJoPTGc/UiCfdB78jRv6Y34EClm8dksoudBrPC5cBRjLpjDBCGDaKrb0e5eMGhcILi1x+B1wbqwzudIQpxS0MRaRQwu+MZ8TzQjHKtoGPX9/qiIsf99u+UbnBbz+XMKO8b/Dhpw4oPaESEl4Pt0mzVGIxY25WIaTYv4NC1FFllJcA72OsoFhleMcyMk+nNZwXV94a/v/VqZstZowrVDj/sdT1470KM7ME8Q7DspppIKfUdczmerwn+fBeCt3Cszm32vJ82zj3sU1DG9fQpsG1bVSiGhr327Zl29CY1qbxWINvI/130v77Ce+TtFCkyIQ0tN8qAnQWQgmVGPalyIR0tC8CIlBJBFCusQQhuIYxNy0cfa2kuqouIiACIlCNBIqhyGT2q6hGSqqzCIiACIiACGRBAKsRo7n4++MOaMJiplJijIa2IiACIlC5BKTIVO6zUc1EQAREQASKSIBoQYQkDwUXvVzXjgnP174IiIAIiEDpCGiyf+lY60oiIAIiIAIVSgALDKGyWecnbQ5NhVZd1RIBERCBuiWgOTJ1++gLf+OaI1N4pipRBESgeAQIckBIUoJd5Bp0oni1UskiIAIiUJsENEemNp+r7koEREAERKAMBIj2VmlRocqAQZcUAREQgaolINeyqn10qrgIiIAIiIAIiIAIiIAI1C8BKTL1++x15yIgAiIgAiIgAiIgAiJQtQSkyFTto1PFRUAEREAEREAEREAERKB+CUiRqd9nrzsXAREQAREQAREQAREQgaolIEWmah+dKi4CIiACIiACIiACIiAC9UtAikz9PnvduQiIgAiIgAiIgAiIgAhULQEpMlX76FRxERABERABERABERABEahfAlJk6vfZ685FQAREQAREQAREQAREoGoJSJGp2keniouACIiACIiACIiACIhA/RKQIlO/z153LgIiIAIiIAIiIAIiIAJVS0CKTNU+OlVcBERABERABERABERABOqXgBSZ+n32unMREAEREAEREAEREAERqFoCUmSq9tGp4iIgAiIgAiIgAiIgAiJQvwSkyNTvs9edi4AIiIAIiIAIiIAIiEDVEpAiU7WPThUXAREQAREQAREQAREQgfolIEWmfp+97lwEREAEREAEREAEREAEqpaAFJmqfXSquAiIgAiIgAiIgAiIgAjUL4Hp6vfWdefVROD777+vpuqqriIgAiIgAiIgAiJQlwTmnnvukt23LDIlQ60LiYAIiIAIiIAIiIAIiIAIFIqAFJlCkVQ5IiACIiACIiACIiACIiACJSMgRaZkqHUhERABERABERABERABERCBQhHQHJlCkVQ5RSVQSn/Lot6IChcBERABERABERABESgIAVlkCoJRhYiACIiACIiACIiACIiACJSSgBSZUtLWtURABERABERABERABERABApCQIpMQTCqEBEQAREQAREQAREQAREQgVISkCJTStq6lgiIgAiIgAiIgAiIgAiIQEEISJEpCEYVIgIiIAIiIAIiIAIiIAIiUEoCUmRKSVvXEgEREAEREAEREAEREAERKAgBKTIFwahCREAEREAEREAEREAEREAESklAikwpaetaIiACIiACIiACIiACIiACBSEgRaYgGFWICIiACIiACIiACIiACIhAKQlIkSklbV1LBERABERABERABERABESgIASkyBQEowoRAREQAREQAREQAREQAREoJQEpMqWkrWuJgAiIgAiIgAiIgAiIgAgUhIAUmYJgVCEiIAIiIAIiIAIiIAIiIAKlJCBFppS0dS0REAEREAEREAEREAEREIGCEJAiUxCMKkQEREAEREAEREAEREAERKCUBKTIlJK2riUCIiACIiACIiACIiACIlAQAlJkCoJRhYiACIiACIiACIiACIiACJSSgBSZUtLWtURABERABERABERABERABApCQIpMQTCqEBEQAREQAREQAREQAREQgVISkCJTStq6lgiIgAiIgAiIgAiIgAiIQEEISJEpCEYVIgIiIAIiIAIiIAIiIAIiUEoCUmRKSVvXEgEREAEREAEREAEREAERKAgBKTIFwahCREAEREAEREAEREAEREAESklAikwpaetaIiACIiACIiACIiACNUNg2rRp7t13383qfv766y/366+/ZpVXmbIjMF122ZRLBESg1AR+//13xwsyH5l++ukdn2JKrvWbaaaZXJs2Gjsp5jNR2SIgArVBgM7uiy++6L799lv3888/uxlmmMHNMcccbo011nCLLrpoVdzkBRdc4OtOZU866STX0NBQ1Hr/8ccfbvz48e6DDz5wkyZNcgsvvLBbaaWVMvL65Zdf3Pnnn+/rNc8887g+ffrkVMfJkye7wYMHuylTprjpppvOHXfccc3aOdrxq666yn399dfu77//9uXPPPPM7qijjsrpWoXIDCPqnK3MOOOMjra7kkWKTCU/HdWtrglsv/32eY/cbLnllu7ss88uKr/tttvO/fbbb1lfY8CAAa579+5Z51dGERABEag3At9//70bPXq0+/LLLxNv/ZVXXvEdy7322ssttthiiXkqJRHrgw3GsS2WIvPZZ5+566+/vlkH/ZNPPnHPPvusv+6qq67qdtxxx2ZoUCysjrl08K2gJ5980isxfKes559/3q233np22G8vvPBC9+OPPzZJmzp1apPvpfpy6aWXOpS3bGW22WZz//znP7PNXpZ8UmTKgl0XFYHiErAXc3GvUh+lv/baa65fv37+Znv06OH233//+rhx3aUIiEBJCXz00UfuhhtuiDrGaRdnVP2aa65xW221ldtggw3SstVF+jPPPOPGjBkTKSNJN017+Oqrr7rPP//cHXTQQQX1VlhttdUcyoxJx44dbddvP/300yZKzJxzzumWXXZZt+CCCzbJhyL24Ycf+rROnTq5ddddt8lxfUknIEUmnY2OiEBZCfDCjY/iUKHHHnsseuFtuummbskll2xWzxVXXLFZWjETevbs2WLxjIhVo2B1Mp/mpOdRjfekOouACFQWASwxI0eObNIhp9O7yiqruIUWWshbaD7++GNHx5iOOR868N99953r2rVrZd1MiWrz/vvvu4ceeii6Gq7Lyy23nFt88cW9Gx6K4TvvvBO5t+Gmh8KQTXsVFdrCDu5oBxxwgHv55Ze98jHrrLM2OePNN9+Mvs8111zu8MMPj76HO7QzNgCZi6dDWEau+/POO69r165dxtMWWWSRjMcr4aAUmUp4CqqDCCQQ2HPPPRNSnWM0zkZuunXr5tZff/3EfKVKxNf30EMPLdXldB0REAERqDkCWGKsI8vN4Vq81lprRfe5/PLL+/2JEyd6a4x1dulA0wbQKa03efDBB6NbZh5H7969Ha5QJiussILr3Lmzu+uuu7xFhnTc0AotzFlKm7fEvBiTZZZZxnYrYrvNNtu4SqtTPmCkyORDTeeIQJURwHcXf2H8rmksMWsvscQSBTWx54KE+hAsAJlllln85EjqxSTNCRMmeCtThw4dmhVJ483xr776yp/HSGUmP3HKNGsKDZ0FQKCc119/3U/OxKLFSFlc/vzzT+9zbedznDqbfzFlVfokyPg96bsIiEDlEXjrrbccFhmTrbfeuokSY+lsUVj69+/vzjrrrMgF7f7773e4vZr89NNP/hgBAsxCwHuL4AGMwDMBPuzwcx7zWYi8hfsVnXKUgGzmtDCpnvO++eYbN/fcczsUrnjZVq+Wto888ojDlRc58MADWyyHIAgmuGKlXZe5MVhGeKczN+WFF15wa6+9tp2auGXA8KWXXvLHcB+jnUoT2MKPNsHqYGlc06Rt27bRc2YAkPbD8tEmmtDO2O+B58dzTBMUYNhTv4MPPjgtW02nS5Gp6cerm6t3Ary0hw0b5m688Ub/Eg958HLcZZddvKmbF2wpBfM+kw6RSy65xDcsYR0ZKTrjjDOiKuHSNWjQIDd27NgozXZQQog0s8MOO1hStH377bfdfvvt57/vu+++3qf8xBNP9O4ZUabGnfbt27tzzz3XhcoTHQU6CKHccccdjg+CCwOuIBIREAERaA0BJqSb0BFuad4LLlS46mKNQb744gs73W+JFoYQcYr337XXXttkIjyWDJQVlB8ibY0aNcrxrgwtQpzPQFGmzjHzdBggC4V3JsrWHnvsESZntY8SZcoJCpIpBWknhxPmiVCWSXbfffeorksvvXRqVu6Htiic+E+7AycC3BA1Li5EPYMdeU444QR/2NLCvMzn4YPgkta3b183dOjQSCG1vChafBAG6nr16mWHmm159gzMwateRYpMvT553XddEKAzfvfddyfeKyNFN910kw/vSb5SSthgohgkKShWH0anGJ2LN5h2/IcffvBKD2UmRaWxfPiWM+8oHCGzY/ie09DByiZhho2k5dNWBERABApNIFREGCDJRnA9ozOMpFmGeYeNGDEi8Z2HixXH6HynvVux4A8fPtwdcsghzaqUpMRYJtzfOK/YA2Szzz57ZLl4+OGH/SR6q0N8i+U9aT5pmA+ryHXXXddMsSAPx+69917PuhBzUK0NtG1Yj3C/peNh3nrdlyJTr09e913zBK644opIiaFBoeHbeOONvRsXUVbuu+8+38ChRCywwALuiCOOKAsTU2I22mgj705BXeaff35fFxpi6mUNLdaXLl26eJ9wfI8JfPDoo4/6vGeeeaYfCdxwww0T78Py4bax+eabOyYxvvHGG35EzJQbrDK2pgDzfpiDRLjTyy67zJdJHc2FgzUdJCIgAiLQWgKhW1FLnW27FlaZliw3uDshWDaIpoWF5j//+U/U+Q8VKCwauIVhiSAPLk8Ibrzsh9YRLDr2TiYPx8xFF8sO72aubdcnTzEE92hzwcK9asiQIY4AOGuuuWZelwvdnZk7gjUEKxERz2iLUCqYb5ONIkM7BUssKwy2IZRpVn8bMMOTAIsKlhpjDkuzGmVync7rJmvwJCkyNfhQdUsigM81iozJRRdd1MTnGoUGxQZLB4Kf7SabbOJWX311OyXrLY1wS2ZtfIcz+fmy5g1r38QF1y0aEQSfYkz+NgpJGveA2wTuaQhr1YwbNy51hJJoNWFgAvzAcRWwwAqhiwduFXyscaN8ouHgLy0RAREQgUIQsM6rlUVo3kIKAy5HHnlkVCQdfd6XWE1MCCrAu9SEdzGLPNq7D8XGBojo0IfvSVzUiNplQvnMmcHaX2yhzkQuM4ZssZrg3sZ9M1jF+92Uh2zqQ6Q4IovZ/CDOZ/6NDWYx6MXily1Zm8wFDRamyKB4xYPzWDRP5mzafcA0ni+buueah+tlisSJtc7mWOVadinzS5EpJW1dSwRKRABriwmd9zD6jaUT1pO5JaYE0ADko8jwYsfCkUkyLdDJsSQlhvLuueeeqFgsJaESYwfwAWc0C39xGpjHH3/cMccmLryQQyXGji+11FJ+JJKRRM6n0Uma/G/5tRUBERCBQhEIo1rRcWypg5zrdVk4My4MxpglHMtOqMSQl048lgA64QgBVkyRIZyxCRaepPkbKGO0OQQXKKbACos9bZgpC1wPZYvvfLC6M4iGNYT1WULLUlLdGNwzJcaO4yFAIAOz/lCmKSCWpxq3YfuaVH84nHzyyUmHKipNikxFPQ5VRgQKQyBsQLbYYovUQlFATJGxyYWpmVtxAAUhTdLcI7D0mPsCDVYmJQtFyCa+cu9JigyRetKEyf4oMgjrMkiRSSOldBEQgUISiHeaC1k2Soq56YblhmuDpHXscX0yRSZ8f7/33ntRUVgO0urPOzlsh6KTGndIRzmKS5iG+1qSNWCzzTZrMqBF24AFhTk/zJNhLmRYX67BYNv48eP9mjLMk0xiQj4UybToZFh4TJHB3a7Uigzr5ZjFhrqa4JaGcM+33XabJUdb7inT3NEoYxXvSJGp4oenqotAGgE64yaZzOo0RCb2krbv2W5pSGgcMomtgZCUhzkxSRLeAyb5TBK6Y+ArnSRYXtKESaMSERABESg1gfD9x+ANHVLeqYUQOrEtSdq10tIJAGASKkSWZlsCEFBGXKng+HPPPdfEtc3OCbcEYEkSLEVJlnnaMotQiVKDqxbh/GnXbMI8fC+//HJ32GGHedezePmZFocMAypYefHzi/n9+eefT2QZXhNLUZKkKTL89nDZTpNMx9LOKUd6y7/yctRK1xQBEWgVAVv7hBdRprkpjNgx0sS6AzbhPdcLp7kX5FpOPL+F4SS9pdCa4fHwvLBM7lUiAiIgApVEIG51wHUrm8nk5boHa1u4fvjeTaoPcyOTFJmkvIVMQ6mxQTquz9xKW0Sa7yhSSVb7QtahGsrCaqYFMavhSamOIlCHBGgcUU4wO7OwVziaFOLAl5h8SKWNvjDp0qSl1ZjD4+F5dr62IiACIlCpBOjwW4QvrAiVrMjgimbKDO/dTOGi0wbHdtttt0SLzJgxY6LJ57g9sx5NXCyaVzw97TtWIdYQIxw0LmHIRx99lJa9YtP33nvvKPhCWEncyWjHEbjGJc2yFs9Xzd9lkanmp6e6i0AKgfnmmy9SUHhpE50rSUKf5EpTAJhcaYLfcyYJJ6Cm+T9nOl/HREAERKBcBHDRMlcq3mVdu3ZtsSpEErM1wpjX0a9fvxbPKUQGrDDmXhaGb46XTSRL62DHj/GOTnpPv/TSS5Eig7uwhSiOn8935uoQ2AXBqkDUzUxCeabImCKWKX+lHUtzESewDwOWKCyVrAAXk6d8LYpJV2WLQJkIEC7SJIxgZmm2feCBB2zXrbfeetF+JezwYrbRN9wBnnrqqcRq4a8c3kd474kntCIx33lErbikThUBEahxAmHAExQAW/Mq023zzuO9yCfTXJVMZeRzLJyPmDSx3soM38mWVsgtQQawCPExhSZT+Vi6TCrN+8DqZdtqVLSs7uXYSpEpB3VdUwSKTIDFuExuvfVWv3CkfbctfsKszmySzSig5S3Vdqeddooudcwxx0QjgVFi487FF1/s3nzzTZ/EfCALExrmac1+2OjBTCICIiAChSSARQErugkL/bJocZKwtgtrmtgaL3ToS/nupq4WqQx3uHC9Mqsv1qK0ieeWp7VbBrmYn4mgzF111VWRe1687KefftqF1qM060b8vFJ+D+eyVqPrWylZxa8l17I4EX0XgRogQIQuFoc877zz/N0ce+yxvoPPyvQ0Qlg3nnjiiehOe/fu7TKFJ44ylngHn18WX6NRx9+ahSu32morv0YB1hFGLm3BTKqGUhM2CIWoLotgmrAuAesmbLvttn4l66T1eSyvtiIgAiKQLQHmcVxwwQWROxahhBk4wS2Y6FJEcWSVeSwQocsWq8BniraV7fWzzUf7QQhkFh5GWAdn0KBBft0ZBn0ImR+u6ZJtufnkw5XqlVde8afC5dxzz3VEuMQlDVdps9iElnQiuVXiRH8UWXP1hh+/Be6FOUj16jKW7W9Ciky2pJRPBKqMQPfu3b1P8PXXX+9HrDC/J5ngu3Xr5vbff/+KvDsaTRpJlAfWecEXGL9w8w0PK3322Wc7FnortLCmzJprrunw30YYaeRDAzNy5MhCX07liYAI1CEBJtHznhsxYoQjTDCCi1Gm9b1YW2uHHXYoOS3mo6Ak2JoyWIdszRmrjClXZjmy9EJuuXdbI4ZyscwQncwilMWvhaLFUgGVGMESprQxFtqZIDxYtlDCpMjEn2TT73Ita8pD30Sg4gmEUUhaWieAhcJY+ZgQy3Gxle5x2WqN5NMohPcQ7ifVg3scNmyYQ+FKytu+cTFLRuIIJRmXsG7hfjxfyDHpGuecc47r2bNn4gJt8bL0XQREQATyIcBcF97ZvNPMfSupHKJQ7rHHHi0qMWllhO+7tPdimB7uW3322msvx3yZpGsQ+rhPnz45KwwsMonrGp9sFyXedddd/YKPRH5LE+oI2/79+3tLTZgvvLdwP8zDfngs3I/ni38P84b78XwostxLGOQmnifpO8osvFZZZZWkw83SwueV1NY1O6EKEhoatb9pVVBPVbEKCMR/SnwPP5jDp5LWuCV9yhS2U90Uvk+d1nhsqpsvIdxiFdx6xVcR3hMnTnS2WCQRYwhtGb7UKv4mGivIiBuuDIxS8RImgk6Sklase4EjI2VwI1JQ2CEo1jVVrgiIQP0RYP7Ja6+95q3qrOjOwBOKQ5ryUC5CtOtEXKN94V3M3JVydZBhhuWeif2TJ092Cy20kHeZTlpAs1y8srkuVibWQ4MtLmfV1k5nusdvG38nbRrauIY2Da5t49puDY37bduybWhMa9N4rMErjf47af/9hGXGeUiRCelov1UE6OSFwvfwI0UmpKN9ERABERABERABEagfAsVQZORaVj+/H92pCIiACIiACIiACIiACNQMASkyNfModSMiIAIiIAIiIAIiIAIiUD8EpMjUz7PWnYqACIiACIiACIiACIhAzRCQIlMzj1I3IgIiIAIiIAIiIAIiIAL1Q0CKTP08a92pCIiACIiACIiACIiACNQMASkyNfModSMiIAIiIAIiIAIiIAIiUD8EpMjUz7PWnYqACIiACIiACIiACIhAzRCQIlMzj1I3IgIiIAIiIAIiIAIiIAL1Q0CKTP08a92pCIiACIiACIiACIiACNQMASkyNfModSMiIAIiIAIiIAIiIAIiUD8EpMjUz7PWnYqACIiACIiACIiACIhAzRCQIlMzj1I3IgIiIAIiIAIiIAIiIAL1Q0CKTP08a92pCIiACIiACIiACIiACNQMASkyNfModSMiIAIiIAIiIAIiIAIiUD8EpMjUz7PWnYqACIiACIiACIiACIhAzRCQIlMzj1I3IgIiIAIiIAIiIAIiIAL1Q0CKTP08a92pCIiACIiACIiACIiACNQMASkyNfModSMiIAIiIAIiIAIiIAIiUD8EpMjUz7PWnYqACIiACIiACIiACIhAzRCQIlMzj1I3IgIiIAIiIAIiIAIiIAL1Q0CKTP08a92pCIiACIiACIiACIiACNQMASkyNfModSMiIAIiIAIiIAIiIAIiUD8EpMjUz7PWnYqACIiACIiACIiACIhAzRCQIlMzj1I3IgIiIAIiIAIiIAIiIAL1Q0CKTP08a92pCIiACIiACIiACIiACNQMASkyNfModSMiIAIiIAIiIAIiIAIiUD8EpMjUz7PWnYqACIiACIiACIiACBSAwDfffOO+++67rEr6448/3OTJk7PKq0y5EZgut+zKLQIiUCoCv//+u5s2bVpel5t++ukdn2IK9ePlPHXqVNeuXbtmlyKtoaGhWXqlJDz99NPu6KOP9tU5/vjjXefOnSulaqqHCIhAnRJ466233Icffui+//579+eff7rZZpvNLbTQQm6DDTZwbdu2rQoqp59+um+7Zp55ZjdgwICi1/mHH35wr7/+upswYYK/1hJLLOFWWWUVN+ecc6Zee9y4ce6JJ57wx1dbbTW3ww47pOZNOnDbbbe5N954wx9ac801XZcuXZplQ8m5/vrr3S+//OKmTJnijy+55JJu3333bZa32Am//vqr++2333w9eC5xmX322Su6vY7XN/wuRSakoX0RqCAC22+/vePlk49sueWW7uyzz87n1KzP2W677fyLMe0EGt0OHTq4FVdc0e25555uqaWWSstalnQUMToKyKRJk8pSB11UBERABCBAx/q5555LHLVHueH4sssu6/bYY4+KB8bgFvLXX38Vta4MRj3yyCORkmAXQxGE13TTTecHqFZffXU7FG2xjthAYT6WknfeeScqa/z48c0UGZSrYcOGub///jvKx078e5ODRfwyZMiQ6H7TLjPDDDM4FJrNNtvMrbTSSmnZKi5drmUV90hUIRFoPQF7Qbe+pPxLYATq/fffd3fffbfbZ5993FNPPZV/YTpTBERABGqUwLXXXusef/zxRCXGbpl3Op3noUOHZsxn+Wt9e8stt7gxY8Y0U2LC+0ZpoP25/fbbw+SC7M8777xROQsssEC0bzuPPfZYpLTgmbDgggu6DTfc0G2++eaWxdcd69Vpp53m/vWvf0Xp5dphYG/ixIlu9OjR7uGHHy5XNXK+riwyOSPTCSJQGgIHHXSQ+/HHH5tdjBckI07Ipptu6jBVxwUrSCmld+/eTS6HJemTTz7xpnsUGj79+vVzN998c2J9m5ysLyIgAiJQJwSuu+469/HHH0d326ZNG7fccsu5pZde2ruSMRiEyxTuSQhtAp3eI444ws0yyyzRefW0c+edd7q33347uuUZZ5zRrbDCCq59+/be1RmeWLHMIoTb2cILL+zWW2+96JzW7tA+0xbzvDbZZJNmxX3xxRdR2qqrrup23HHH6LvtYLky65V5B9ixYm7j3hFYpPh9/fTTT9Fln3zySe/SWOq+RFSBHHakyOQAS1lFoJQEcMdKEualmCLTrVs3t/766ydlK1ka/rb7779/4vUwr++3337uq6++8sd58ScpXoknK1EEREAEapgASspHH30U3SFzOvr27dtkLgydYOS+++5zL774ot+ng86g0AEHHOC/19sfm5vCfaOgHHjggU3md+BKxpyXyy67LJqM//zzzxdUkcHKggtWmoRu4RtvvHFatpKnU288JJKE4AVXXHFFZEl66aWXvGt4Ut5KSpMiU0lPQ3URgSIRwMSOheTLL7/0frKYuZkQWeyAAHPNNZcbOHCgO+SQQ/ydMcrTs2fP1LtkdOqzzz7zjTum+2WWWcbht5utcC4jYYxuLb/88i40/2dbRpiPDgOKI8Kcn6RJkmF+7YuACIhAtgRwezKZaaaZ3OGHH96kQ27H2DJnEsv2K6+84pN51/F+snc47zzrPKMQYSlAsEx8+umnfo4ig0jxACx0XnFZo2wmvWeaIO8L/O8fJrK/9957fhR/0UUXzfldHZZ10UUX+c4zFpWdd945PNRsH+sBdTVhzlD8njjG+3rvvfd2F154oc/KoBqMWmpPuK9XX33VzT333D5gQFqABdiblSzkTZAGxCwt/kvjH0ufY445fBLWj3C+DPktD9e0fHZ+fJsLs/i5ad/nn39+7/qGyx5Cf6EaRIpMNTwl1VEE8iTAy5EJhzfeeGM0sd2K4oW+yy67+MYz7WVteVuzpXEySTOf08ig8DB5My4oXSeeeKJbZ5114oei77x4ebGb5ccOoHjgl3zCCSfkrIRQJ6LL0NAjjPBRD4kIiIAItJYAAyTWEaasrl27JnbIw+sQGes///lP1JHHysD7Dbn11lvdBx984PeZh4Gig8XH5ks+88wzfvI71yGiF3mZO0IkKxMs5kyQx9KPq1aS0NnGHS50Q7J8DDztvvvu9jXrrXXgqXNLEtYXBYaobmnCQBr3+/PPP3vFLpMSQ3AA5nGGShKKJm1Ir1693DzzzNPkMri3vfnmmz4Nl7VOnTp5pZHnEBfaJhMinPFMXn75ZUvyW5SaMN8pp5zS5Hj8Sy7M4udm+o7bmSkycWUs03nlPKbJ/uWkr2uLQJEJnHXWWW7EiBHNlBgui1Jx0003uZNOOqmotSCii8naa69tu9GW4zQ2SUoMmVBOcLe4//77o3PCHSYloqjElRjy0OjxUu7evbtv2MPzMu3jh45LnCkxjIZyDYkIiIAIFIIA1mkTBpKymYuAlQUrw9Zbb+0/KA4mprDwHdcrrCVhGul0lumAowzdcMMNTZQYjiPkGTVqlFeC/j/lf3/p5ON6lKTEkItrXn755f87oQh7KCc28Mb9PfjggxmvssYaa3gXsKR5LHbi119/7YMthEqMHaMNGT58eBOl047Z1jjb1tKTttnkSTqvVGnMJzJprUeDlVPsrSwyxSas8kWgTARocMx1gRc/nXF8dWkMaUTxuUaZGTt2rCPqCpNHCy24NZgVgzrsuuuuzS4xePDgSNGiYca1gNCPhEem0X3ggQf8OUR32XbbbSOXCRJxATjuuOOiMtddd1231VZb+QgxrBFAI0eji0Lyz3/+049aRplTdsjfo0ePSDGizrbeTMopShYBERCBnAiEk8FzcVklpD2fTPLtt9966w6uZLxTP//8c6/c0Inmc8cdd/jTcUvD8rLIIov4gAK8ry0PA0QEHAiFNsVcbUmno0tIaJQflBis2Db4E55X6H3crswi8eyzz/pBKpYcCK3/uVzTFrXEtYp7xlXs3XffjZQ5m5PEBP9MgjVjm2228VkICw0XxNLYJ5ADAjuOkw+hfeQebN/vlPgPVqJwQHGLLbYocQ3yu5wUmfy46SwRqGgCNEg0OiaYrNdaay376hUaFBsmSSKMzjFilRRvPzopZYcRq3POOSc6ijmahpRJrNZY85K+4IIL/MTMKGPjDj64Fo+fRujKK69ssrgmo2k0rCgkjJZhyu/YsaMvgu9Yakxwaejfv799dSg1zM3B2kMdLZJNmssEJ+KCEAYnYPSzGApeVEntiIAI1CUB3kkmWBkKLUTJskABlM37/5prrokugxJz2GGHRa5ZuO7iqvbvf//b50EpCYVOLpYLE9zXQisH64rde++9jgnixRYs7LRvZkHBJY0Q1twTc1uY/8n7n/1shXYFV2sTvAdwNyMsNmKKkx1P2hI9zYLvMJBmioylheeQhoIUKjJJ+cJzCrFPe0oQBBO+o5wycGj15VhaRFQ7r5K2UmQq6WmoLiJQIAJYW0yYXB8qMZaOn3SfPn3cJZdc4pNohPJRZDg5U5x+lBji5CfVgRWr8d3OJFhYzH2AxtQUGUbibM4No2iEd44L/tNnnnmmX3uBYyh4aYoM/uqwMuWLiEAWpCBerr6LgAiIQGsI0HE0IfJWIYXR/lCJoezFF1/c0dG2xR9XXnnlSImxa6PMYAGnc2v57BgWFxMm94dKjKUzh4cBI7NwWHqht3gQYB256qqrohDLXAPFAGWLD0rZrLPO6ucD0YYkBQSweqEAhUqMpaOs4b3A4FxoibLj1bptyWqGEmdzr6rhHqXIVMNTUh1FIEcCFqaT0zKZh3lRmyLzwgsv5HiV/2WPu0aEkWUYNbPJ9iMa5+vkYv6nQWXyqUk4ihnWF59xi9JjeW3LC7mllzLRfvZvDCFNdB8EBQ/LjEQEREAEikEg7FjzniukLLbYYonFtWvXLlJQbEAonpFOvQ0QhcfCzi+W8jShXIIGxAUlw1yd48fsO1aP2267zb5G2/nmm6+Z4oQyc/zxx7vXXnvNu0PhBRDnyHsdVynmYRIRLq2NyBSpDeXPlE7mTmbKG1W4QDuFZmbVCn97pMW50bbSh9htt91SB/6srErY/q+HUAm1UR1EQAQKQiAcEcvkT83Imkk2pnPLG25RYh599NEwye/jmoB7GYu3MZqHEkL0F6K6xCcR0khSBo0Oa+TQANF4mOtAs8IbE8KGlVDLrZHQ1E45RCuTiIAIiECxCBBu2SbNmxW4UNfKprONUpOLhBHW0qzalMe7OEmRoT0I139Ju3ZSHuqaZAGiDCxPfOiMs0gm7sdYhSwUNXngTBjmI488kq/NJN4ehRnCgbR4hz/MV4z9YjBDiTn55JObVRcrFlHucIljIJJ7JegDngnMoapkUdSySn46qpsI5EnAXuIoGZlCTjJCZfHqk0bh8ry8Pw2/b0buRo4c6TbaaCOfRr3MB9vKZlIp/tznnXeeV2SIPka+TEoM51ongH1c1AopKF8SERABESgWgVlmmSUqOj4fJTpQQTs2f4KOMEpYmhAuvxxCvVCwcBFjriTzf6xtoz60F1hUkiRuoUjKU+tpWLjwXCCwjYW0RplJGqSsNBayyFTaE1F9RKAABPAN5sWNFQTf3rSGB99fUwji7mEFqIYvAmWJxsXCjeK7bBYP5ryEUceI6EKcfSxFs88+u2+IWO+AQAFxCSdyTpgwwbUP1quJ583me+fOnaMQz4xEETmNNIkIiIAIFJoAo9xYnxFzXSr0NQpZHpYJXJ3o3E6aNMmFilh4nbS1YIgIhqtSkvC+RXDjYr2uuNAW5Cq0D7iTEYiGeiO4SzFfplqk1MzgQnvNwqhYZpCkZQ38gQr6I0Wmgh6GqiIChSKAT7EpKLh3pbkCoACYZOOOYHlz3Yam6TDyjUVsoTwauaOOOqpZ0UQSSxJe8iZM4ifKSr7CxNdTTz3Vh8Y8//zzfTF8J5ymhcvMt2ydJwIiIAJxAliprbOI9ZlQ8nQgWxIiUNq7nbmBROcqhaBMmMsyLlwMOCUJYYvTpKW1clCOWsqDhSBc+JMQ02lCpxy3MVuhfuLEiWlZKza9JR7ZMMv15sLgE/GgD7mWVYr8ci0rBWVdQwRKTCBs3MIIZvFq2BotpLM6cbEEK4wJkXFMiDxmwmT7JEnytyZfOIGfxTLTXONYrZlwnawHk8aC9WmQPffcs8mI3aGHHprqjuBP0B8REAERyIMALr+h6xPv4pbcaXmPMpeRfFjTM026z6NKGU/B9cgkDCZjabZlsc1iCsoUVh8+aYskh9c35Yu00Iof5qmEfXPdq4S6hM9wnnnmqYQqZayDFJmMeHRQBKqTAGEwTZhcn6QMPPfcc03WFWC9lWIIja9ZOSifRTlNwug6LNoWF+r90EMPxZP9d0JFW0cA8/fAgQOb5aMRO+aYY/zkz08++SQr6wqWGKsXc3VwT6DTIBEBERCBQhLYaaedouIY+caFNm0EnEEfC0PPSVgiiDBWKgkDqvC+TXovjx49OrIWFate4eKSvN9DJvFr0vaFA1wsOVBJEgYSoI1Jc8srZZ1ZNwcPB5Nq8EiQa5k9LW1FoIYI4BI1YMAAP4Ge2zr22GO9BQN3BiY2YqUwtwaO9+7d288JYT9XYR4O7g6hMGKICxkvxDAiD2b+cK0a3MGoC8Lilkz6x9JChBwa7jQLCvm5j2HDhrl99tnHj1COGTPGoazgA82aCShqBBKwhgz3sfhK1ZQTF0ZKL730Uj+vh3Nxoxg0aJBnGM+r7yIgAiKQLwHm9dFRtEWBGTg599xzHZEmWdSROSO803iHhhPVefcVa+Ap7V54fxKW10LUs/4XYY151zJvBjdl6l9sYSI6lhWLskk7gQWBwSdcolAOYMYnnHuEu3W5AhGkMeE5ss6aWeJYnoD7oJ1kwepiCM+K9XdC4fqw4vmFliHqVkxPjbAOrdmXItMaejpXBCqYAO5UjJxdf/31/kXJSIutUhxWu1u3bi7NrSvMl2mfyGQtCf7fWGbCKGr4eDNqRthHlAYmfdrETyuPuTPxNDuGwoYShSKG0CGwToHlYUvjcNZZZ4VJGfdxoxg6dKjDtQxhwU8a8mI1Lhkro4MiIAI1S2CPPfZwN998c/TeoqNJEAALBBC/cUIR8742a3T8eDG/s2DwkCFDIoWF+YvxcMkoNigRxZSDDz7YXXnllc7mvDCYlvbupx7M0SSMcCUKSivtH4JC8XFj6Gg+xWxrsrH8EPyHRUfTAgVVEku5llXS01BdRCALAoySmISmaUsLt7hFHXHEEYmNHpHN6KjjelUMoZ7LLLOMw33ilFNOccOHD28W6YaJioxCMUclVHCoD6NSNJo2f4W08N75jqy11lru4osvTnQbo7EnCs5NN93kQh9vzgvZJZXLZFb4meC6ZpNGLU1bERABEWgtAZSZTp06uUyRI5m4TqeXgChhoBO7NsdNwn1LY4sFwCSbPJbXtpyPEoF1Iy4cY7AKZcckvJ6lJW2Z0E5bke2cHyxVLFpM/rT74Dq811ml/sADD2xy7xwLz8tUzzBfuB+eE6ZTNhIe//+U5L88e+4/VzfBXJklX71pKlx5tjxHPDqKGQCo6ZVb962hUfsv7JKyrauPzq5iAvGfEt/DDz6gU0lr3JI+ZQrbqW4K36dOazw21c3X2HmVFJ4AvBm9skUkaQhRFLJ92Ra+RsklMlKECwUuANQvV8Eljbk23C+uGZk6BrmWrfwiIAIiUGwCuG4xQs9K9QjuUh07dqy4TiVh/bEa4Y7EOl42r7DYfJLKpw4shGmWIN79MMt10c+kskuZxnpChIqm3WKgsRbl28Z+SJuGNq6hTaNbXaPy3dC437Yt24bGtDaNxxq8kum/k/bfT8gi3m+RIhPS0X6rCNB5DIXv4UeKTEhH+yIgAiIgAiIgAiJQPwSKocj8zxZZPxx1pyIgAiIgAiIgAiIgAiIgAlVOQIpMlT9AVV8EREAEREAEREAEREAE6pGAFJl6fOq6ZxEQAREQAREQAREQARGocgJSZKr8Aar6IiACIiACIiACIiACIlCPBKTI1ONT1z2LgAiIgAiIgAiIgAiIQJUTkCJT5Q9Q1RcBERABERABERABERCBeiQgRaYen7ruWQREQAREQAREQAREQASqnIAUmSp/gKq+CIiACIiACIiACIiACNQjASky9fjUdc8iIAIiIAIiIAIiIAIiUOUEpMhU+QNU9UVABERABERABERABESgHglIkanHp657FgEREAEREAEREAEREIEqJyBFpsofoKovAiIgAiIgAiIgAiIgAvVIQIpMPT513bMIiIAIiIAIiIAIiIAIVDkBKTJV/gBVfREQAREQAREQAREQARGoRwJSZOrxqeueRUAEREAEREAEREAERKDKCUiRqfIHqOqLgAiIgAiIgAiIgAiIQD0SkCJTj09d9ywCIiACIiACIiACIiACVU5AikyVP0BVXwREQAREQAREQAREQATqkYAUmXp86rpnERABERABERABERABEahyAlJkqvwBqvoiIAIiIAIiIAIiIAIiUI8EpMjU41PXPYuACIiACIiACIiACIhAlROQIlPlD1DVFwEREAEREAEREAEREIF6JCBFph6fuu5ZBERABERABERABERABKqcgBSZKn+Aqr4IiIAIiIAIiIAIiIAI1CMBKTL1+NR1zyIgAiIgAiIgAiIgAiJQ5QSkyFT5A1T1RUAEREAEREAEREAERKAeCUiRqcenrnsWgQwEfvjhB/fzzz9nyKFDIiACIiACIiACIlB+AlJkyv8MVAMRSCXw559/eqXim2++cb/99luzz99//516bj4H7rjjDtepUye31VZbuQcffDCfIsp6zu+//96MURI3S5s6dWpZ61urFx81apTbaKON/OfVV1+t1dvUfYmACIiACJSZwHRlvr4uLwIikIHAscce65588skMOZxbcMEFXceOHb0Csummm2bM29LBG264Icpy0003+TKjhCrY2W677bwik21VBwwY4Lp3755tduXLksCkSZMcSjgyefLkLM9SNhEQAREQARHIjYAsMrnxUm4RqDgCX331lRs7dqw76qij3LBhw1pVvw033DA6f4MNNoj2tSMCIiACIiACIiAClUZAFplKeyKqjwikEOjcubNr3759dJQR7y+++MI9/vjj7tdff/XpV199tZt77rnztjIceeSRDgWmTZs2bu21146uVY07PXv2bLHaq666aot5lEEEREAEREAERKAyCUiRqcznolqJQDMCBxxwgFtsscWapf/111/ulFNO8VYZDmKdydddqqGhwa277rrNrlFtCTPPPLM79NBDq63aqq8IiIAIiIAIiEAOBKTI5ABLWUWgEglMP/307tRTT3Xjxo1zU6ZMca+//rrftm3bNqouk9s5Nt1007l27dr5dOYxMBGbCe/rrbeeoxzykBeZZZZZvGXGf2n8k1QG+cePH+9++eUX16FDB7fQQgs5lKGWhGt+8skn7rPPPnMzzDCDW3rppb0lifMIYMCkfSReB59Yoj/c74QJExyue9SDe0tSJK0606ZNiyxjM800k+fJMQI1wGjOOed0q622WpRnxhln9Pdu59sWS5vNK0m7f3sWPGOUtrjAF7YfffSRm3feed0yyyyTeC07748//nAoxFjiuCbCc+C39OOPPzosV1j6QrFn+Omnnzrul2c411xzhVm0LwIiIAIiIAJFJSBFpqh4VbgIlIYAygCdyIkTJ3plhE51KFtuuaVPp0N77rnnOlzIUCRM7rvvPjfffPM5opYNGjTIJ5Nv8803tywuLIO5OP379/eKUJShcYdO9cCBA12moAP//ve/3ZAhQ9xPP/0UnuoDFphCdskll/hjF198sVtnnXWa5Cv2FzruMMCyFRcY9+nTx+2www7xQ+7tt992++23n0/fd9993SqrrOLOOussRzhrZI455nC4/u2yyy7+O5HhOB6X008/PYoYN3jw4ESW22yzjZ9MP//887t77703KoJrwf/pp5+O0myHoBAnnnhiIk9+Dy+//LLPSnAJnu1zzz1np3qL3/bbbx99hw11s3uzAyg8J5xwgn3VVgREQAREQASKSkCT/YuKV4WLQGkIYBFBiUEYGcfykiSMvPfu3buJEhPmCxUgRtyTBGvBP/7xj2ZKDHmxFBB0YMyYMUmneqsRbnBxJYbMb7zxhttrr73c559/Hp0b1idKLOIOlqADDzwwUYnhsnTczzjjDHfXXXdlrMW7777riDgX7+hj0TELygsvvJBYxlNPPRWlM/8pLlhZLCIYljQTrD5du3ZNVGLIg2Wpb9++7v7777dTom34rFEmQyUmyvTfHep9/PHHN7s3Dr/22mtuzz339Nag+Hn6LgIiIAIiIAKFJpDc2yn0VVSeCIhA0Qh8++23fgTdLsBcmjTBDQjBsrD11lu7lVde2bsQYS3IVsySs/zyy7uddtrJrbDCCj7owEUXXeS3lHP22We7zTbbLHKvIg2LBR1gE0JGY1lYbrnlvFKEpebjjz92d955p2Up6ZbO/BFHHBEpeTDq0qWLW3/99d3XX3/tHnvsMffoo4/6Op155pneZSuM8hZW1hQB7m3jjTd2Sy21VOSmx/oqDz30kFfmeHZYwkxQUixwA2lJikyoAIWWLywkpuBgedt5553dSiut5N30YPrAAw/4y2Dx2XbbbaP62LVti7UFlzXW/SmI8AAAQABJREFUE1pjjTW8S5oFRfjyyy9dv379LKt3WSPk9YorruheeeUVryTxG7v77rujPNoRAREQAREQgWIRkCJTLLIqVwQKTIDOcxi17Pvvv3d0LN95553oSgcffLB3AYsSEnZQQHANM8tAQpYWk1BCLr/88sjygzKzySab+M4vHXE+H3zwgeNaJnSgmVODEBntggsusENu9dVXdz169HBEGkPhaa0wv4M5QJmEOUG45JmMHDkysjLB5sYbb3TzzDOPHXa4Vl177bXO3N5Yg4Z5ScwPSRICLpAnLnBCkUFQSohGZxJXXLBcMddl0UUXtSzumWeeifbXWmstvx/+DviNXHnlldFcKDKgkGDdYpFTnsGbb77pXfmigoKdWWed1bvAhb81O4zbmilLPNsRI0ZEChHXwKWO+yaankQEREAEREAEik1AikyxCat8ESgQAeYw2DyGpCJxicKtpyVh7ktrlBjKP+200yIlxq6HYrDbbru5a665xicxUd4UGawdH374oU+no3zOOefYadEWKwBKAiP81lmODua4w/nh/J6k05nzg+XI5J577rFdd/755zdRYuwAc2BQJHgOKAQoHliV4sI9Jikx5MPCY/Lss882UWSw+iBYbbiOXQOXOxMsHwhWEAvcQCCCUMGxvOGWOTkoMgj1RxlNEqxSSUoMeXH/Q1AAhw4dGikxPvG/6ZdddpnbcccdLUlbERABERABESgaAc2RKRpaFSwChSeAAmKf0JrAlRiFp/NundWkq+NCRqe3NcJ1QwtBWNYSSywRff3uu++ifVymzBqz5pprploxZpttttQOdlRYgXasPhSHBcdc5lCosBClCQqQyYsvvmi7TbahstLkQOMX7nHJJZf0yeH5KF+mKODWBScktNJQR+YhIaFbmU/I8AdrTDhvyspIOiWt7szBMgUTJQjXuyTh92X3l3RcaSIgAiIgAiJQKAKyyBSKpMoRgSITuO2225qF/6VDiuXj1ltvdUQeQ0466SQfKjdpQctwPka+1U1TYihv9tlnj4oNJ+pbB52DWBIyCdG+MlmeMp1rx1BGDjroIPuauDVrEQdDpStUxpJOXHbZZaNkQisnyQILLJCUHKWhhGChQjnARZDQxuHcF1zvcI17/vnn/QR6FC0UEb6bMPcmLtTn0Ucf9RP+KR8XPwIYhEpb/Jz497TfSOjyF7KLn893jpsFLum40kRABERABESgEASkyBSCosoQgTIRwDrD/BQigTGxnLDGCHMXkhSZQlSTtUZylXBtmVDBSSonl0530vmksUZLr1690g43S//555+jtIUXXjjaT9oJj4fnJeVNS2OejLngocBggTHLC1HnsNqgqOCCBw/cyXieFkSA506+UB5++GEfXrkQ/MJybd8sVnwPGdjxcJtJ2Q3zaV8EREAEREAEWkNAikxr6OlcEaggAqxtYooMYXArSYiOZhJaZywt3LIIY6mFxSpNmFyfScLj4XmZzokfQ/nERQ9XLawsKDJPPPGEz0a0NwTLCGu/EDaZuTMoMi+99JI/Fo+WhgXruOOO88f4g1KLaxoKBVYyXAoJvhAGWIgyZ7kTzpsJlZqk07ESSkRABERABESg2ASkyBSbsMoXgRIRYJTeOsd0kPnE59GUqCrNLoO7Fu5eWAvodOM2ZSvIh5lx8SqHIhOuWm8hqsN6hfthlDgWpMxHsGqx0CeLT2JlQVmxdYBMkaFc5jzddNNN3lrDhH8LzYxFJ5RHHnkk+krABdbyiUu+1iMrB+XLhHVyMknIKFM+HRMBERABERCB1hDI3UekNVfTuSIgAkUjwCi4TcZefPHFK0aJ4YbpuJsrFPN6Dj/8cBcuwkgeFus85JBDcprPwXmFEJQsqx/KVrgoZVg+bnG2Hgvp6667bng4p31TWJjXYuuuoIyGc3AsD4qOzYHiIsyhCYXoZyb777+/7TbZWkS0Jok5fGFyP/VDUDbT5gexFhAfiQiIgAiIgAgUm4AUmWITVvkiUAICWBEOO+yw6EqE7600YQ0SFAaEjjCWg4svvtgvonjeeee5bt26RZHDylF3Fvc0OeaYY/waPfbdttSXNVgQrF1xFy/Ll802PNfmy4RplMFClMbs6quv9sUSEYw5NKEstthi0dfPP/882rcdlBhbu8bS8tmaiyDKXt++fX20t7AclNTevXuHSdoXAREQAREQgaIRkGtZ0dCqYBEoLAHW7QgjamEdwB2J+QrWueaKdHxZvLHShA44c3hYpwRB+bruuuuaVBPlgBXpb7nllibppfiCYoVlA3cvLFusycPaKyw6SWSxRxujgb366qtRVVBqWuO6x2KbNgfGJujH177BkoXV5+mnn44sVXG3MipEFDSzIqFgsI4LStEvv/zi7ym05kQ3kMcOQSV23XVXHwIaqwvK57bbbuutWePHj/fWqh9++CGPknWKCIiACIiACOROQIpM7sx0hgiUhYBFtcp0cdx/hg8fnrqgYaZzS3GMNUr+9a9/+Unn8bkodND79+/vxo0bV4qqNLsGkdUGDRrko50RahjrAi5f5vYVnsBCmquttlqYlNc+CkiotMVdxih0iy228IqMXSBJkdl66619CO7333/fK2GjRo1yfEJBUYunhcez2Z933nm9Fc0iwuHyRoS8UHA/69Kli69PmK59ERABERABESg0AbmWFZqoyhOBAhIwt6JMReJWREcWS8fo0aMzKjEtlRceDxdQDK8f5gnT2Q+PhfthPsIKsyYOrk7XXnutn8yONQH3MhZTZN0TkzBss6Vls80nRDTlcs/Dhg3zloak+hO569xzz3XhophWn/Ca4b4dT9raHBiOEWnM5qCEecP1YrAAJa3DQ+AEFAqsI3ErEcoHljCOmcTvLf7d8iVtWQzzoosuaramEXlxaWRNo3AdnVzKTrqe0kRABERABEQgjUBDo3vKtLSDSheBXAjEf0p8Dz9M7p5KWuOW9ClT2E51U/g+dVrjsaluvsZOl6Q2CRC22IIRoBCkdfb79esXuUmNGTPGhw4uBxHcvb7++mvvVkZnnLVTCGNcDQLrH3/80buuocgUS4gyx6R/nmWHDh2aKVHFuq7KFQEREAERqD4C3za6w7dpaOMa2jS4to3tRkPjftu2bBsa09o0Hmvw7Yn/Ttp/P+Gdxgc45VoW0tG+CIhA0QgMHjzYPfPMM7585lYce+yxza7FcZvrQeS1cioOpry0tPhjs5uogATWjynFopTM8+EjEQEREAEREIFyEJAiUw7quqYI1CGBgw46KFJkbr/9dvfee+/5RRtxqWKNExaEZKK9SefOnW1XWxEQAREQAREQARFoRkCuZc2QKCFfAnIty5dc/ZzH3IqRI0e2eMOsJ3PAAQe0mE8ZREAEREAEREAEqoNAMVzLpMhUx7OvilpKkamKx1T2ShKml8hlH374oY8MZhXCjYyJ7N27d2/V+ixWnrYiIAIiIAIiIAKVQ0CKTOU8C9UkgYAUmQQoSspIYNKkSX5CPeupJEXsyniyDoqACIiACIiACFQNgWIoMpojUzWPXxUVgdojQNhgFsqUiIAIiIAIiIAIiECuBLSOTK7ElF8EREAEREAEREAEREAERKDsBKTIlP0RqAIiIAIiIAIiIAIiIAIiIAK5EpAikysx5RcBERABERABERABERABESg7ASkyZX8EqoAIiIAIiIAIiIAIiIAIiECuBKTI5EpM+UVABERABERABERABERABMpOQIpM2R+BKiACIiACIiACIiACIiACIpArASkyuRJTfhEQAREQAREQAREQAREQgbITkCJT9kegCoiACIiACIiACIiACIiACORKQIpMrsSUXwREQAREQAREQAREQAREoOwEpMiU/RGoAiIgAiIgAiIgAiIgAiIgArkSkCKTKzHlFwEREAEREAEREAEREAERKDsBKTJlfwSqgAiIgAiIgAiIgAiIgAiIQK4EpMjkSkz5RUAEREAEREAEREAEREAEyk5AikzZH4EqIAIiIAIiIAIiIAIiIAIikCsBKTK5ElN+ERABERABERABERABERCBshOQIlP2R6AKiIAIiIAIiIAIiIAIiIAI5EpAikyuxJRfBERABERABERABERABESg7ASkyJT9EagCIiACIiACIiACIiACIiACuRKQIpMrMeUXAREQAREQAREQAREQAREoOwEpMmV/BKqACIiACIiACIiACIiACIhArgSkyORKTPlFQAREQAREQAREQAREQATKTkCKTNkfgSogAiIgAiIgAiIgAiIgAiKQKwEpMrkSU34RKCOBX375xb3wwgvummuu8R/2J02aVMYaFe7So0aNchtttJH/vPrqqzkV/Oeff7qff/7ZffPNN+63335r9vn7779zKq/Umamz3fvpp59e6stX9PU++OCDiM3VV19d0XVV5URABERABEpLYLrSXk5XEwERyIfAK6+84k444QQ3ceLExNMXXHBBN2jQILf88ssnHq+GRBQyFBJk8uTJOVX52GOPdU8++WTGc2DUsWNH16lTJ7fppptmzFvqg1OmTInu/Ycffij15Sv6evwm7HeBIi8RAREQAREQASMgi4yR0FYEKpTArbfe6g455JBUJYZqf/XVV65Hjx7urrvuqtC7KH+1YDR27Fh31FFHuWHDhpW/QqqBCIiACIiACIhAqwjIItMqfDpZBIpL4J577nHnnXdedBEsLrvvvrtbZpll3NSpU927777rrrvuOvfJJ5/4PGeeeaZbYokl3GqrrRadU287nTt3du3bt49um9H8L774wj3++OPu119/9em4KM0999yue/fuUT7tiIAIiIAIiIAIVBcBKTLV9bxU2zojMHz48OiO9957b3f44Ye7hoaGKA3FpkuXLu60005z999/v0+/7bbb6lqROeCAA9xiiy0WMbKdv/76y51yyineKkMa1hkpMkZHWxEQAREQARGoPgJSZKrvmanGdUKAjjeT100OOuigJkqMpbdp08b179/fPfjgg465FnTQ6bBPN13yvzdzUT7++GNf9lxzzeUWX3xxb52w8uLbP/74w1EXrjPLLLNEhyljwoQJbtFFF/VWoLTrRSc07mBFwnr06aefuplmmsktvfTSjjqUQqaffnp36qmnunHjxnlOr7/+ut+2bds29fLffvute//99x3nLrfccm622WZLzRs/8P333/t7Zc5Lhw4dPKNQCY3nb+k77MLADtTFng3nptXN5pXwfNq1a9fsMvxmCDaAzDzzzC6JB9d97733vEVr2WWXdfPPP3+zcixh2rRpkeWLZww7hN/y+PHj3ZxzzulWX311yx5tv/76a/97woK21FJLOeY0tYZXVLB2REAEREAEapZAck+nZm9XNyYC1UOATqoJHUw+aUInFncpInfR+UtSKuhQ46Y2ZsyYZsXginb88cc3ccmyTEceeaR7+eWX/ddnn33WBxW49957ownYlo95PD179vQKj6WFWxSswYMHu/hk9lVXXdUHMgjzFmt/hhlm8IoTQRPowNPpjgsRzi677DJ34403+jzh8TnmmMPts88+br/99guTm+zj7nfuuec6FKVQUBBWWGEFN3DgwESLUZg3vo8Sc/TRR3v3OI4tvPDCbvTo0e7EE0+M0nBDXGCBBZqciiK2/fbb+zSsVFjr4sIcrPPPP98n45q49dZbR1lQjvnN/PTTT1EaO3AkYAIKM/uhvP322xGffffd162yyirurLPOip47DMPfIAoSFsV33nknLMbNO++8/neBC6BEBERABERABJIIaLJ/EhWliUAFEEA5oTOHMGKOJSGT0Eled9113TrrrNMsG6Pchx56aJMOZJiJcMe9evVyWBHiQifaZMiQIe72229vpsRwHDc4OqxJQphoFKW4EkPe1157ze25557us88+Szq1oGlYJyzyG9aguMLH8W7durmRI0c2U2KoCB36Sy65xN9nkhKEpQmOcSWGc1Gc3njjDe/O9vTTT5OUlcCfqGzM8UHaN87/oX7UfYMNNojKeP7556N923niiSds11vBkvg/99xzUZ6111472ud5nXTSSc2UGDLwe0IZ2X///Z1ZfKITgx2UOuqedF2yfffddw5LY1yJ4RjPqV+/fpErIGkSERABERABEQgJyCIT0tC+CFQYgbXWWss98MADvlbHHHOMj0y2yy67uIUWWijrmtLh5twPP/zQn4Nb0M477+zn0TAafvfdd3v3KSbCH3zwwd4SER9lt4sxes+IOvN11lhjDff777+7m2++2T311FM+C2WhlOAaZPLll1/6Dql9J1DBdttt51ZccUVHWGnm9qAAcG4xBesELngmzKWJC1YYopshs846q+eNxQgeKB9YvVBI7rzzTte1a1e38sorR0XQWUeJoZOPoHBgDSEPFi0sUjwDzsfK9fDDD6e6g1mhKDGE3X700Ud9EuyuuOKKyDrH2jMmKCTUKRRTfiyNENXxPC+++KI/jMUGty8ExZb6mmBZ4XnPN998DovLRRdd5BUc3O5uueUWd+CBB1rWJltTknDL23jjjf3vAhdFBHfFPn36RG5tuBgy32v99df3LnkoSi+99JJX2poUqi8iIAIiIAIi8F8CUmT0UxCBCibAiDSdYJsrQ4QyPsxrwfJC5xIrTNr8CG4NFyRTNOgs0lmfffbZ/V2vueaaDsUIVyk6pcxfYbQ/qZPPCXTur7/++iYuTFyfjrlZGegsh4oMrlTWuSc4wYgRIyL3M+pPJ5lJ90QWK4TgHoUSYYKVCWUqHPVHYdtyyy0tS7S18NUoLigtYTkrrbSSd+nifhAsIKEig5uXuWBh7YGjzTfhPunsY33AAoXg5oVFI01QQCkThQdB8SNsNPNOTFBK+fD7wOoVCkqQKRKWjmITKjLMc7Jns8kmm1g2b3XjC/XHfWzbbbeNjjFHhvvBcoU888wzqYoMx3m2AwYMYLeJ8Ds05RreN9xwQ2SBRIGnfOY0WRCLJifriwiIgAiIgAg0EpBrmX4GIlDBBFA86BCHHWqqi8KBgoL7Dx3yI444wj322GOJcz6wHpgw98OUGEtjMjbuUiaMxqdJ3759mygxli+cM0LnOBTcqRA6q0OHDo2UGMtDOvUqlKD44f5mn0cbrRmhEoNCgdUoSeg0o6CgjMWZk3/zzTePTjNLBgm4V5kiQecfi4UpMdEJjTu43qHkUDZWqDRBiTn55JMjqwhzmC6//PImSoydawoIFiFzm+MY3LH+IISkRlA6Qpe40B0tXCSUOSscI3+oxPhCGv8Q4MEiw7355puW3GyL4pukxJARa5zJBRdcECkxlsYWRY5J/xIREAEREAERSCIgRSaJitJEoIIIoMzg0oUlhFFqOv5xocPJQo/HHXecjwxmx+nI4j6GcN6SSy5ph5psuQYfhMhSacLE7SSxTi3Hws40+zbi37Fjx+ga8TJwlUurWzxvNt8tOALbOK8rr7zSKyRMZM9VwihauNWZmLLGd6w088wzjx1qssU1C0sEz5P5J2mCFcTqh8Xr0ksvbXYfdm6ogITKFYotwjwrAhQgPAtcw0wI3oCgdKU9W8sbbnEL44OYshQet33cxNLkrbfe8oe4NhaYJGEe0BZbbJF0SGkiIAIiIAIi4ORaph+BCFQJAVx6mDjNfBfCHjOijbWBkXPrTD7yyCM+z6BBg/xdMZnahE5sOKfC0m1rCgdzZXCRYi5MXNKUjdDKE474h51m3MoyCcfN1ShTvpaO4bIVKlbkJ1gCzFAg7rvvPl8EigQRscIJ7pYXJQDlEKWOSHAoLcbHnxz7w/wbE1zAWiNYg0LBKhEPShAeD0MZo5iYBcUm+m+22WbeCoRSBwfcywgMgVg0OhQJm7tiZfMcYYDLIPn4LRGGORMHO9e28Shqlk49LAAAC7hmkpZ+N5nO1TEREAEREIHaJiBFprafr+6uBglgFcA1iQ+T9nFrOv30071Sw+2i3NDhZM0Xm7NhGLLthLKmR5IiE1okrMxMW1zgTAgZnElwVyqW0Imn846lg4nnRF9DmK8TKjIffPCBO+yww5pYlbKpUxi5q6X7zKa8MA9ug1jj0pQZLE4EJGDujbmKoXyZi59ZbHBBI3AEigyhsokSh0KBWB67LveDhc8UHUsv1JY5SyYt8VpkkUUsq7YiIAIiIAIi0ISAFJkmOPRFBKqPABP9zznnHLfHHntEnVesNVhf4srI2WefnXqDkydPdjPOOKM/XiilAmXLJFRqLC3cYjEpheywww6RImMT77ku6/bggmXWLVztmBODxYBoXlid+CQFQrBoX5RjCgT7+QphlZmrhKKBlYo5K3zSBKsL94IrH5YOm+SP2xYBHRDuBUUGV0PKNaWHY0QUC4VoYmZNowzWliGAAxYsGPC7IsCDKULhudnsh8pJS7+Llo5ncz3lEQEREAERqE0CUmRq87nqrmqAAJ1Rm0DO3JhMI9e4BdH5tU60TSQPFxNk5D4pUlcxUZkLE9dgTZFMEk7Iz5Svtcds3gzWKfvAhvklpsQQFQ43tLi71Y8//ph4+dCFKtPk98STExKZ/M4cEguigALCHCMigCUJSiuBFBDuw8IuE13MLDnMtTHBZczmxzCHJqw/yokpMeQnAILNn7Lz2TKRP19FhshrXBfF6/PPP/cBCNKsfWFdwutrXwREQAREQATaCIEIiEBlEiAcsYVbJmJVSxKOsJvSQyfW5rXQac+kLDDPAwUodPtp6ZotHacDjOKAsEikhZGOn4cCZkpY/Fihv2P5MRc7FBYLBmAde67Xo0ePZkoM6RbGmv1QmCiP5QKBcZoVgftnDR4UEqxoSWLzmFACWUPG5LzzzotCN1uabbEamfUNBdhCYYcuYzwHm2/CHCALDGBRz6ys0J1sq622SlRiuI+0Z2nltLS1uqA8xucF2blYySz8tKVpKwIiIAIiIAJGQIqMkdBWBCqMQKdOnaLOMaPi48aNS60h1gPWgTEJ1zfZcccdLdkdeuihLpyYbgeY1M7ijawpQye+kGJ1ocNK+Oa///67SfGM6vfu3btJWrG+oKgxB8bElAa+o9SYJK1pg3KCpSRJUIZw70K4T+6HTngorOvCgpy4dqG0hdcL84X7PDtc4UyYL5P0/Di+4YYb+mwEMzBLSajIcNAigLHYJEEdkHie0K0wiQNlEx2vtRJGKjv66KMTFWgCMoRR8Fp7TZ0vAiIgAiJQWwTkWlZbz1N3U0MEGEFnbgJuRQjRynAVosPMfAWsLYz+M2IdzvWg4xu6lDF3xkbp6bzuvvvuvlwW1LRFE+++++6IHIs2FlKYYL/rrrv6zjUdeNzkiKzFeiooUNyfRbAqxHVxsQojYRF9i84wikjo9oUFBeXNhHkiWD0QFsMkP6x5Dsw5YgV7s+TYOeGWTjfuYHT+sVZwn9tss40jqhjXRRHl/hGuTaCGbASlgXJtbgvzV1g8kvV/QkEhQeE19zgWygxdxsjL/RDK2fKQZnNo2EeY14TbGL8V6t2rVy//vLDsYVW744473FdfffX/mVvxl9/lQw895K9BfVjbBwsQCg5WwbFjx0ahw1txGZ0qAiIgAiJQwwSkyNTww9WtVT8BOsd0WO+55x5/M7j9hK4/8TtksnpoceA4cw8Ix9yzZ0/fMaSDSmeUT1x22mmn1HkY8bzZfmcuxMUXX+w7xJxDJ5hoYaGgLHTp0sXPSwnT89m3+SGZzsXlbfjw4b7TbvlYywYl0JQ6OtJ8QkH5SOJGHu6BNWpwG4MxyhNrxvAJBesNyla7du3C5NR9lB4W2EQxwhqCMsTEfyLVhRLOgSEdpSUuKCm4oFk0O6xl5loX5iViGQoowho54To5pFEOinRoBSQ9F2H+0YUXXuitgNSHe4O98beysOLx+5GIgAiIgAiIQJxAm3iCvouACFQOAZQYlJmBAwcmzlWwmjL6fuaZZ7rDDz/cKy6Wbls6q8OGDXMoKjaXw46xxc1p8ODB7vjjjw+T/X5S/maZggSbXB4k+YnqdMbj67uQB/cuXONC60Gu18wmP9fGwoV71ujRo5soMVZX1mzhuM03sXT4oSBiFTOJBwIgHaXt2muvdfF5JxyjDEI9s85N3AoS1j+JHxa2sDPPYpm2YCZlIyhShJY2IUpZkoR1S8uz3Xbbucsuu8wtuOCCzYpA2UNhS1PEQi7hfrOCGhOIgIb1C+tgXFCWrrrqKrfeeutFh1oqL8qoHREQAREQgbog0NDodjGtLu5UN1l0AvGfEt/DD25MU0lr3JI+ZQrbqW4K36dOazw21c3X2BGUpBNgYUZcjGwknEUy+SSNqqeVwhwVrCK4c9EZZU4EUaRKJSysiOsVndIOHTrkVPdS1ZHrwIe1VrDeEDwh1040c2RwkWJNFs5HyalG4TeHFQilOgyOUOh7Ye0jC5LAb5Kw4hIREAEREIHaIfBto6dCm4Y2rqFNg2vb2AdoaNxv25ZtQ2Nam8ZjDb6t9d9J++8nJEBaKFJkQhrabxUBKTKtwqeTRUAEREAEREAERKBmCRRDkZFrWc3+XHRjIiACIiACIiACIiACIlC7BKTI1O6z1Z2JgAiIgAiIgAiIgAiIQM0SkCJTs49WNyYCIiACIiACIiACIiACtUtAikztPlvdmQiIgAiIgAiIgAiIgAjULAEpMjX7aHVjIiACIiACIiACIiACIlC7BKTI1O6z1Z2JgAiIgAiIgAiIgAiIQM0SkCJTs49WNyYCIiACIiACIiACIiACtUtAikztPlvdmQiIgAiIgAiIgAiIgAjULAEpMjX7aHVjIiACIiACIiACIiACIlC7BKTI1O6z1Z2JgAiIgAiIgAiIwP+1dy/QVlR1HMf3vZcMME0eZpoSKpiahkKlFpnvVwKmZmiaqRVlLtEsJdGKVtnDWunyTVqwerhUdLWsXGaYhuYqrYDQUivfbxRSkofCpfntc/5z9xnPuWfOvXPmzjl8d13mtWfPzGfGM/OfvWcGAQTaVoBApm13LRuGAAIIIIAAAggggED7ChDItO++ZcsQQAABBBBAAAEEEGhbAQKZtt21bBgCCCCAAAIIIIAAAu0rQCDTvvuWLUMAAQQQQAABBBBAoG0FCGTadteyYQgggAACCCCAAAIItK8AgUz77lu2DAEEEEAAAQQQQACBthUgkGnbXcuGIYAAAggggAACCCDQvgIEMu27b9kyBBBAAAEEEEAAAQTaVoBApm13LRuGAAIIIIAAAggggED7ChDItO++ZcsQQAABBBBAAAEEEGhbAQKZtt21bBgCCCCAAAIIIIAAAu0rQCDTvvuWLUMAAQQQQAABBBBAoG0FBrXtlrFhbSWwbNmyttoeNgYBBBBAAAEEEGhHgeHDh+e2WdTI5EbNghBAAAEEEEAAAQQQQCArAQKZrCQpBwEEEEAAAQQQQAABBHITIJDJjZoFIYAAAggggAACCCCAQFYCPCOTlSTlNFUgz/aWTd0QCkcAAQQQQAABBBDIRIAamUwYKQQBBBBAAAEEEEAAAQTyFCCQyVObZSGAAAIIIIAAAggggEAmAgQymTBSCAIIIIAAAggggAACCOQpQCCTpzbLQgABBBBAAAEEEEAAgUwECGQyYaQQBBBAAAEEEEAAAQQQyFOAQCZPbZaFAAIIIIAAAggggAACmQgQyGTCSCEIIIAAAggggAACCCCQpwCBTJ7aLAsBBBBAAAEEEEAAAQQyESCQyYSRQhBAAAEEEEAAAQQQQCBPAQKZPLVZFgIIIIAAAggggAACCGQiQCCTCSOFIIAAAggggAACCCCAQJ4CBDJ5arMsBBBAAAEEEEAAAQQQyESAQCYTRgpBAAEEEEAAAQQQQACBPAUIZPLUZlkIIIAAAggggAACCCCQiQCBTCaMFIIAAggggAACCCCAAAJ5ChDI5KnNshBAAAEEEEAAAQQQQCATAQKZTBgpBAEEEEAAAQQQQAABBPIUIJDJU5tlIYAAAggggAACCCCAQCYCBDKZMFIIAggggAACCCCAAAII5ClAIJOnNstCAAEEEEAAAQQQQACBTAQIZDJhpBAEEEAAAQQQQAABBBDIU4BAJk9tloUAAggggAACCCCAAAKZCBDIZMJIIQgggAACCCCAAAIIIJCnAIFMntosC4EWFXj22Wfd66+/3qJrz2ojgAACCCCAQDsKEMi0415lm9pG4LXXXnMrV65M/bdq1ao+bfsNN9zgJk6c6P8WLVpUUcZ5553npkyZ4vbdd1/35JNPVkxjAAEEEEAAAQQQGCiBQQO1YJaLAAL1BWbMmOHuvvvu+hnLOYYOHeruvPPO1Pkt46uvvuoUNCmtWbPGRvsA6rbbbvPDmn7LLbe4adOmxdPpQQABBBBAAAEEBkqAGpmBkme5CDRBYO3atZmWqsBo9OjRcZl77LFH3K+e7u5ud+CBB7r99tvPTZ8+vWIaAwgggAACCCCAQDMFqJFppi5lI5ChwOTJk92IESN6LXHTTTftdXpfJs6dO9fXCm2//fZuu+22qyhi/fr17uWXX/bjnn/++YppDCCAAAIIIIAAAs0UIJBppi5lI5ChwIknnui22WabDEtMV9SQIUN8rUu63ORCAAEEEEAAgaIKrFixwukFPkpbbrml22STTYq6qqnWi0AmFROZEGh9ATUDe+KJJ/wD+4MHD3Zjxoxxw4YNq7thejbGnpuxHzyVpedqwqZsequZfiCVurq6nJqlkRBAAAEEEECgOAIKYn71q1/5FZo0aRKBTHF2DWuCAAK1BObPn+8uvPBCt3z58oos48aNczNnzqwYlxw499xz3YIFC/zoO+64w2288cZOLwD46le/WpFVbzTbf//943H33ntv3E8PAggggAACCAy8gG44Pvzww/7G41ZbbeVXqJVrZnjYf+CPKdYAgaYK3HfffU7BSDKI0UIXL17sjj32WPfUU0/VXAfVvliyfj0bQ0IAAQQQQACB1hSwmhnVzlhTs1bcEpqWteJeY50RSCmgH6czzzwzzj127Fh36KGHup133tktXLjQv05ZNSk333xznCdNj745M3v2bN+07NRTT/WzjBw50l1wwQW+v7OTeyRpHMmDAAIIIIDAQAioZsaag7dyzQyBzEAcPSwTgT4IXHPNNXWfaTn44IPdjjvuGJc+a9as+PswGj9nzhxnQcb48ePdCSec4I455hj3zDPPxPOk6dGzMrvttptbt25dnF1vTNM4EgIIIIAAAgi0hoDVzOg6oBWfmSGQaY3jjLVEwNee1GNQO9cwkLn//vv9LBtttJG7+OKL4yDGytH4K664wk2ZMsVG0UUAAQQQQACBDUSg1WtmaP+xgRyobOaGITBoUM+9iRdffDGujdlll11q1uYo+El+H2bD0GIrEUAAAQQQQEACVjPTas/M9Fz1sB8RQKDQAvPmzav7HZmOjo54Gx588MG4P6yliUcGPZr+yCOPBGPoRQABBBBAAAEEii1AIFPs/cPaIRALKEgJA5V4Qo0efTPGkj3IZ8PJ7tZbb50cxTACCCCAAAIIbCACap2hZ2QmTJjgP5TZKptNINMqe4r1RKBBgdGjR8dzhEFNPDLoefzxx4MhehFAAAEEEEBgQxDQy3sUxCiA0d8OO+zQUptNINNSu4uVRSC9wE477RRn1seveksPPfRQb5OZhgACCCCAAAJtKNCqNTG2K3jY3yToItBmAsOGDXNDhw71W7VkyRL3wgsvVN3Cxx57zOmvv6naBzf7WybzI4AAAggggED2AqqJUe1LWBOjca2WCGRabY+xvgg0ILDrrrv63Prey2mnneY/YBnOvnLlSmcftAzHp+23b9IovwKZpUuXpp2VfAgggAACCCAwQAJWE6PnYtTfqommZa2651jvDU5A33tRLUtvSR+lnDZtWpzla1/7mjv66KOdAhbVuhx55JHukEMOcWPGjHEPPPCAu/XWW30AEs/QYI9ePjBy5EinVz0rnXTSSe6II47wb1fTxzlJCCCAAAIIIFAcAauJ0Rq14jMxSUkCmaQIwwgUVGD+/Pl110wfuAwDGQUZl156qTv55JP9vM8995ybM2dORTlqfnb44Ye766+/vmJ82oGpU6f6ZSi/mq/Nnj3bz0ogk1aQfAgggAACCOQjYDUxWlor18SYFk3LTIIuAgUU6Orqamitwg9i2oz6GOYll1xS9Rs0EydO9AHMFltsYdldcplhmclpmun44493Z599ths1alRcBj0IIIAAAgggUDwBq5HR8zGt+ExMUrRjfZSSIxlGoC8CyUNJw+Ffd3e369a4qKvx69ap2+3Wabh7fTSt220e1SCQmifw0ksv+VoTPduy7bbbOtXgZJlWrFjhn8MZPHiwGzJkSJZFUxYCCCCAAAIItLDA0qgZemdHp+vo7HBd0XVIR9Tf1aVu9J28aLgz6ur6xL6bZ91wkzUuTDQtCzXoR6DNBUaMGOH016zUDnd3mmVDuQgggAACCCCQrQBNy7L1pDQEEEAAAQQQQAABBBDIQYBAJgdkFoEAAggggAACCCCAAALZChDIZOtJaQgggAACCCCAAAIIIJCDAIFMDsgsAgEEEEAAAQQQQAABBLIVIJDJ1pPSEEAAAQQQQAABBBBAIAcBApkckFkEAggggAACCCCAAAIIZCtAIJOtJ6UhgAACCCCAAAIIIIBADgIEMjkgswgEEEAAAQQQQAABBBDIVoBAJltPSkMAAQQQQAABBBBAAIEcBAhkckBmEQgggAACCCCAAAIIIJCtAIFMtp6UhgACCCCAAAIIIIAAAjkIEMjkgMwiEEAAAQQQQAABBBBAIFsBAplsPSkNAQQQQAABBBBAAAEEchAgkMkBmUUggAACCCCAAAIIIIBAtgIEMtl6UhoCCCCAAAIIIIAAAgjkIEAgkwMyi0AAAQQQQAABBBBAAIFsBQhksvWkNAQQQAABBBBAAAEEEMhBgEAmB2QWgQACCCCAAAIIIIAAAtkKEMhk60lpCCCAAAIIIIAAAgggkIMAgUwOyCwCAQQQQAABBBBAAAEEshUgkMnWk9IQQAABBBBAAAEEEEAgBwECmRyQWQQCCCCAAAIIIIAAAghkKzAo2+IoDYHmCCxbtqw5BVMqAggggAACCCCAQGYCw4cPz6ysegVRI1NPiOkIIIAAAggggAACCCBQOAECmcLtElYIAQQQQAABBBBAAAEE6gkQyNQTYjoCCCCAAAIIIIAAAggUToBnZAq3S1ihagJ5trestnzGIYAAAggggAACCBRLgBqZYu0P1gYBBBBAAAEEEEAAAQRSCBDIpEAiCwIIIIAAAggggAACCBRLgECmWPuDtUEAAQQQQAABBBBAAIEUAgQyKZDIggACCCCAAAIIIIAAAsUSIJAp1v5gbRBAAAEEEEAAAQQQQCCFAIFMCiSyIIAAAggggAACCCCAQLEECGSKtT9YGwQQQAABBBBAAAEEEEghQCCTAoksCCCAAAIIIIAAAgggUCwBApli7Q/WBgEEEEAAAQQQQAABBFIIEMikQCILAggggAACCCCAAAIIFEuAQKZY+4O1QQABBBBAAAEEEEAAgRQCBDIpkMiCAAIIIIAAAggggAACxRIgkCnW/mBtEEAAAQQQQAABBBBAIIUAgUwKJLIggAACCCCAAAIIIIBAsQQIZIq1P1gbBBBAAAEEEEAAAQQQSCFAIJMCiSwIIIAAAggggAACCCBQLAECmWLtD9YGAQQQQAABBBBAAAEEUggQyKRAIgsCCCCAAAIIIIAAAggUS4BAplj7g7VBAAEEEEAAAQQQQACBFAIEMimQyIIAAggggAACCCCAAALFEiCQKdb+YG0QQAABBBBAAAEEEEAghQCBTAoksiCAAAIIIIAAAggggECxBAhkirU/WBsEEEAAAQQQQAABBBBIIUAgkwKJLAgggAACCCCAAAIIIFAsgUHFWh3WBgEEQoHXXnvNrV271o8aOnRoOKnQ/ffcc487++yz/Tqee+657rDDDuvz+l5yySXuuuuu8/P/8pe/dCNHjnSrVq1y69evd52dnW7w4MGpym6m5ac+9Sn373//26+b1rEoKcv9UJRtYj0QQACBagL/+9//3F/+8he3dOlS98orr7iNNtrIvfWtb3Xjx493W2+9dbVZCjfuoosu8uuuFTv//PNdR0dHpuu4bt06Jyelt7zlLa6rqyvT8geiMAKZgVBnmQikFJgxY4a7++67fe6bbrqpZX6MFWgocFB69dVXfbev/9x1112+LJ2UFMQoHXjggX6cTlK/+93vUhX9+c9/3i1ZssTnvf32290mm2ySar40mZYtW+bX57///W+a7LnlyXI/5LbSLAgBBBBoQEC/v/PmzXPPPvts1bkWLlzob3gdd9xxbptttqmapygjX3/9dX+TTuujm3VZBzK6jvjHP/7hN/fd7363O/roo4uy6X1eD5qW9ZmOGRHIV0A/ahtaWrlypXvsscf8Zu++++7x5uuuUqMp9Av7Gy2H/AgggAACxRB49NFH3eWXX14ziLG1XL16tfvJT37iVEu9Iafw3Bf2t7IJNTKtvPdYdwTaXMBqULSZe+65Z5tvLZuHAAIIIJBWQDUxP/3pT+MaDM232Wabufe85z1uyy239MGNboQ9+eSTPo8u3FWD/9JLL7lJkyalXQz5Ci5AIFPwHcTqIbAhC/zpT3+KN//9739/3E8PAggggMCGLfDzn/+8Ioj5yEc+4t773vfGKDvuuKPvf/HFF31tjGr4lf72t7+5vfbaK26q7EfyT8sKEMi07K5jxRFoTOCpp57yd6j0oN/b3/52N2rUKLfxxhunLkR3v5544gm3fPlyt+2227p3vvOd/Wq/q7bAqu5X0gOH1V5mcO+998bTx4wZ4/ub8Y9OcGquNmjQIDdkyBC/CA0/8MADbsWKFX57dYevv+2V9eIGGaott+4Oaj/I8U1velPqzdJ+fOaZZ/wzOTpR23NDqQtIZEyzHxKzMIgAAggMqMA///lPp3OSJT03GQYxNl5d/UaeddZZ7oILLvC/8xp3yy23uE9+8pPq9enll1/20/Qsph6CV9Jvv14eoHOCnidJPlep386HH37YPf300/751Z122inVOULPjWq+F154wQ0fPtzpdzxZtl+BFP/8/ve/d4sXL/Y5P/3pT/e5nBSLKmwWApnC7hpWDIFsBH772986vflLP5rJtPfee7tzzjnHbb755slJ8bB+cL/73e/GD8rbBAUf+uGeNWtWww9QKhg64YQT4nWaPHmyO++886xo39XLAv71r3/5/nHjxqU6QVQU0MDA/vvv709iY8eOdVdeeaU/6S1atKiiBAVa2tYPf/jDFePTDHR3d/tyf/GLX/gAJJxHJ86jjjrKnX766b2+QUZNIrQfn3vuuXB2HwB+8IMfdDNnzqwaDFZkTgyk2Q+JWRhEAAEEBlwgrK1XEPCBD3yg13XSGy51HlFtjJJuBoVJbwtTevOb3+xOPPFEN3fuXLdmzZo4i86jevOZgh/d8Lrhhhvcgw8+WFEjpMy64fXZz342ni/Zo+d0dDMrTAqqFGxNnTo1HJ2qX0GU3tCmpACprwFRqoUVNBMP+xd0x7BaCGQhoB9fvcKxWhCj8hcsWOBOOeWUmm8WU9vik08++Q1BjOZVjcX999/vjjnmmIYeoNSbvXSisHVScwBdhCdT+HzMHnvskZzclGGduD73uc+5ZBCjhanW5stf/nLqt6SFK6g7gXPmzHlDEKM8CtiuvfZav5/CecJ+vWVNRskgRnm0XgpytB9UW5M2pd0PacsjHwIIIJCXQBiIvOtd70q1WJ1rVHOjv4MOOqjqPLrppN/qMIixjPp91TT9qUao2sPyqm2/6qqrbJaKbrUgxjKo+Zvm0/JJjQlQI9OYF7kRaBmBv/71rxUXxxMnTnT77LOPe8c73uH+/Oc/u1//+tdOP566ONaria+55pqKJk66W68gxl6jPHr0aKcTwa677urvas2fP9898sgjPqA544wzXJpXGqv6Xne07IJcr360780kYa1Zmcbn9XyM3SlTVf8RRxzha5x0wlRNiJ04v/3tb3vHtM3BfvSjH7mbb77Zb55qsWT4oQ99yH8DR6/W/s1vfuON5bnFFlu46dOnV1AoqPrKV74Sj1NQd8ABB/hmaXo1tYJVuSow/OIXv+iuv/76OG+tnkb2Q60yGI8AAggMlIB9X03L32677VKthmpl6tXcqLmYkmo2dtllF19D8/e//z1uxmbnAeXZaqutfLMwBT3Ko6ZoSjq/qT+sHdHvtJ1flEfTtN7Dhg3zNTvPP/+807Jt+cpDSidAIJPOiVwItJSAfuTDC+KTTjrJByu2ERMmTHCf+MQn3Ec/+lH/cSxVkV999dUVedTUSxe8Sno+RW+HsY9n6QNjao/7mc98Jm6fe+ONN7pPRR+GrJVU/a2aGAtitPxwHZPzKdhSsiZsyenNGtbJa/bs2b75gJah5nNqgnfwwQd7Kz1j9J///MefwOqtg+7aKZCxpIAobMetgEaBjSyV9PCqlmWvmlat12mnnWazu49//OO+2ZuNUFAzbdo0/wYe1czoDT1apta5Vmp0P9Qqh/EIIIDAQAhYwGDL3mGHHaw3k66+T6abc5bUnPiyyy7zN/5snH7H9dttSc2TL7zwQv+xZo1TYKMmv0qqZQmbwqmJmlpCWFL5asKtmnlS4wI0LWvcjDkQKLyAfjStJmXnnXf2zaWSK60fa/04W1LNgCWdKO677z4/qEBCF+AWxFgeddVkSkGOamvUDK1WUnkKpuxuln7EewtiFIjZR7u0/rqTllf6xje+EQcxtkzVvnzsYx+zQff444/H/b31hKba/jCIsfn0qtAvfOELNuhrymwg3I9yPvPMM21S3NWdvW9961t+H2g/KJCplRrdD7XKYTwCCCAwUAKqvbCk51WqnZtsel+6+nBmMu22227xKJ2PwiBGE/QimPBjm+E54qGHHorn1TM4aumQTArGqp0fkvkYfqMANTJvNGEMAi0voDetWNpvv/1qPiivO/d6iF1389U0SRe6ujDWsy+W1JRsxIgRNljR1UsC9AB7b0k1GKqpsUBHF+2qmektWRCjPHk9H6Nl6cF73S2rlvR2MUv6DkGalNwPtebZd99946DSAkjlDfvVrrtWQKc7f3b3r9Yy+rIfapXFeAQQQGCgBPr79sje1lu/sW9729vekEVNsi2FTcZsnLp6C6VqVpRUm27JXlqjYZ1faq2/anXCc4bNr67Gh8GRTQvHqfmavXHNpqu7zz771DyHh/latZ9AplX3HOuNQC8C9iC9stR7EFLtdC1w0QW6fqSXLl0al64akf6kK664omJ2va2sXhqI52O0TrWCGE3bdNNN1fGp2kOeNi3shgGPXlldK4XLDV8pGu5H+yZCrTLqje/LfqhXJtMRQACBvAX0LKEl1d4raMiqVkY1PPVSrWXVGq8XAFgKAyIbZ93Bgwf77QiDIJumptZ6prW3pKbF1ZJqimrdjKyWv9XG5ddeo9VkWF8EWljAnm3RJuguUW9JDyxasvlUM2MpnG7j+tP9wQ9+UHd2ez5GGfXMSq1U7Qe/Vt40b4OpVeNRq8x641ULoqRaL9X21Eparpr6KVmTQPXb/lC/XuuZZUqzH7JcHmUhgAACWQgkax3CpltZlJ91GXYeULn1zqdpXyKT9Tq2cnn1Q89W3jrWHYENVEBvQrGkV0aGzaJsvHXDN6lsttlmfrR1NVDrLo/Nn6Z72GGH+Q+QKa/ev6+Pi2lctaSAw2qIVAtR7Q6Z2hmrOZxOEHp3fpoPe4bb0VtQUW2d+jpOJ1wFI1pXffxTd9yqJW2zBS3hh0H1sTRLakKgZ2D6kxrZD/1ZDvMigAACzRTQBb+94UsvX+lvy4FmrqtaOVgwo/Nxb60kwhtZ4TrpGc1qNTJ69b5epa+kJsrVPpDczI9Jh+s4UP3UyAyUPMtFoIkC4Qcurc1urcXpFcqWbL6w6j58XsXyNdLVMzZf//rXKx5U13Ctu2gabzUttV67HLZhXrhwYd3V0clDwYSSgphaAUXdghrMYJ6a7dFHH605d9jOOQwiw+3s7SH+mgUHExrdD8Gs9CKAAAKFEgibaNU6lyRXWG8S++Y3v+n/fvjDHyYnN204rIWxF95UW5huytVqOaBzgYK15F94s0svDEhO13BeN+6qbVMe4whk8lBmGQjkLLDnnnvGS9QDgLV+HPWVY7sDpB9bqw3Qm7Ssva9OEmGtTVxw1KNnOPQaZX2M8Tvf+U44Ke4/5JBDfP+xxx7rv39iE/TtGruTZOPUDZ+PCbcjzKOLckvz5s2r+mEym67uTTfdFA9m/arOuOAqPeGLCsI3mCWz3nrrrfGocJvDB/j19WfbV3Hmcs8f//hHvw/0XZ5ay2l0PySXwTACCCBQFIHwezAKAO688866q6bfWd0k018YCNWdsZ8ZwnOOXnpjN+qSxYbngeQ0hmsLEMjUtmEKAi0r8L73vS8OSlTjUu15CFVTn3766fE2TpkyJe7XHRy96URJP7qnnnqqbxrlR5T/UXB01llnOb2RRc22Ro0aFU6u2q+aGHtFparatfxkkBUGMgqoqiV9T8XSPffc4z/8WesB/B//+MfuZz/7mWX332KJB5rcc/jhh8dL0Icq//CHP8TD1qPngfTFZ0uTJk2yXv89GXt2Rt/fmTVrVjzNevRCgXPOOcfvAwWcvTVbsHnS7AfLSxcBBBAomsDYsWNdWOOt31Z9YLhaWrVqldPLTtRV0lvDwt/ZavNkOU7ram8qU3O48NtithzVFlmTahtHN53AoHTZyIUAAgMtoB/i8NmXauujB+MPPfRQ/5pe5df76hWI6LkUffRSwYmqqFUTo7a1dodfgU/ylcjnn3++/yaJqsJV83LkkUe6gw46yF9cq7nZHXfc4S+etR6qvdHHNeslBUiXX365O+qoo/yytU7f+9733IwZM/ysCka0bkpq11urSlx3uMLnPW677Ta/fXvttZd/F7/mW7RokVOQEDaNUzW7XmOcV9p+++3dl770Jff973/fL1LbqVqWiRMn+hObalLuuuuueHUUMOr5IUs6+V155ZXu+OOP9/tR+0zBygEHHOADR23f7bffHu9H1VSlaQ9dbz/Y8ukigAACRRXQGzAvuuii+GaYfgv1m6jPCqh5tG7yPP30005Ni8MbZnpT55AhQ3LbLP2O69yrc6aSvoOj855u6qkVhH7Tly9fntv62IL0bJHOL70lPY+qb6AVORHIFHnvsG4IBALz588Phqr36kdbgYySfsx1AW0fUVyyZInTXzLpR13thZNv7NIP7NVXX+2bLKn2RDU4+mZM8rsxuii++OKLU58YdIJRfjUtU1KzL12A6wNj+mG1avdaz8fY+s+cOdO/Jtq+taKTgf6uu+46y1LRVY2RTnrJ7azI1IQBNbtTbYpqhbRtCxYs8H/JRSlQ1Pd2kknBkD5IqiBHSU39qrUJ10lRHyhNm3rbD2nLIB8CCCAwUAJ6iF436+bMmeP0GmYlnavsnFBtvXbffXc3efLkapOaOm7vvff2AZV9U0a1Q8nnVy24spqjpq5QVPiaNWt8UNXbcqwmqbc8Az2NpmUDvQdYPgK9CNhzKr1kqZiUvEjX3X8FKdXu0qts/aBfddVVNWs+9AaUuXPnOv0IJ5MCGNXk3HjjjW7ChAkVk8M3jVXbBuUPm7WpyZTetR82K6sXyOitNZdddpmvzQkfiq9YkWhAbw475ZRTfIATPkifzKfhautq+cJpYb+mm7t1bR7ralunT58ev2LZxqur9VNQp+ZhtZK++HzppZdWbTampmfaj9dee62/CxmW0df9EJZBPwIIIFBUAT3rot/X0dEbHXu76NYLXqZOnVo3iKlVRvhbWut3Phwf9pvdcccd59SaoNoy9C0xfSy62nw2f7XuuHHjnJqu6a9eiw3N32j51ZZZtHEdUVOO9UVbKdanNQWSh5KGwz9V7XZrXNTV+HXr1O1269oDquoAAAoTSURBVDTcvT6a1u02jy6cSc0ReOWVV3ywoOZk+sHT92XCH+d6S9XrgxVs6BszejFAtdc81iuj3vQzzjjD6ZkXpTujhzft5QP15tN01eboeSB9zFMnCm2jTg5qqlXtxJGmzKzz6LhXzZZ96FIBmBwbWT/5q+ZNZem12o0YZb09lIcAAggURUDPnyxevNjXgOt3UjeJFDjUCh4Gar11LfRY9FypzgW6EaUbjcmbYwO1bs1e7tJomzs7Ol1HZ4fr6oy6UX9Xl7od0bjOaFqHD7b8sMaV/8L1Sp4vCWRCHfr7JaALqzBpOPwjkAl16K8moGdHFGipGZjeRkZCAAEEEEAAgfYQaEYgQ9Oy9jg22AoEWl5A31Kxlw+Ery1u+Q1jAxBAAAEEEECgKQIEMk1hpVAEEGhUoJHnYxotm/wIIIAAAggg0H4CvLWs/fYpW4RASwqozbBeIKA0fvz4ltwGVhoBBBBAAAEE8hPgGZn8rNt+STwj0/a7mA1EAAEEEEAAAQT6JMAzMn1iYyYEEEAAAQQQQAABBBBoNwGekWm3PVrg7Um+Mq/Aq8qqIYAAAggggAACCOQo0JfrRAKZHHfQhrSoyhcx92x5Xw7SnrnpQwABBBBAAAEEEGg3gVrXh7WuJ237CWRMgm7uArUO2txXhAUigAACCCCAAAII5CqQxXUggUyuu4yFVRMoHcj1Yu5qczIOAQQQQAABBBBAoHUE1rssAhjbXgIZk6Cbm4AOYMKW3LhZEAIIIIAAAgggUEgBXQ/2J7AhkCnkbt1QVqonnOnPQbyhaLGdCCCAAAIIIIBAKwtUXu/1XAf2dZsIZPoqx3wNCVQeuD3Rtx9fPo7Vn/wWTUMLITMCCCCAAAIIIIBA4QR0fRdfC0bXfdZvXVvh5LCNr9UlkKklw/j+CSSC7Hgw7ikdxBoMD9ru7u7+LZe5EUAAAQQQQAABBAolEF7f6bovef1nzxwEl4ml9X/DiMrNIpCp9GAoBwEfuJQPzFIQEw1EB7X+t2rV6hzWgEUggAACCCCAAAII5CWg6ztd5+l6z0VRS3wT218CalzfEoFM39yYq65AKVLRgWqBS6m/NKM/jstlxAdzNLxq9Sq3du3auqWTAQEEEEAAAQQQQKD4Arqu0/WdpfC6z64H1a28XrTgpnzn22ZOdAlkEiAMZicQHqiKvpNJ0310Hk3wfeWDePny5Twrk8RiGAEEEEAAAQQQaDEBPRuj6zp/zafrPNXKRKl03WfBSrhRPdeLldeRYZ6efgKZHgv6mihgB6PvKoAphd7REqMDNhj2B3g0vHTpi9TMNHF/UDQCCCCAAAIIINBMAdXE6HrOX+cpgAmu995w/afrwijZ9WLa9RqUNiP5EKgnoIPP3jrm+5Mz6CCNIvO4csbHMOXYvCNqL+kP8lJ3fTS8bNlyN3jwm93QoUNdV1dXwwd3cvEMI4AAAggggAACCDRPQNeB69atcytXrnSrV6+JIpNScKJLQF0b9nR1TRitR9SJu5oYJD85GFctyCGQCcDozVhAR2CU4gDHApcoSNGR22Hd6KBfr4M7Gl3qrnednZ1uffQGM/1HsGr1ah8g+Vf3RXMqFrJkgZMN00UAAQQQQAABBBBovkAYWCje8Fd3up7Tn7/Oi672ous5H56UxymS0bDPE/WEXQto4nJLl4u9bgiBTK88TOyfQOmtFD4AiQ5cHeIKQnSA2sFuw6WYJsq/PjrAo4O+uzvKUQ5mNE6po7NU46OiLKiJD/bSfyZ+vM/MPwgggAACCCCAAAKZCfRcc+kqrpTsek5Dnf4CLbpe0zWZ/u+DmI7ock7XcdFYP1pdG9YIG/a95Wnqt1Y+yls7EcjUtmFKPwX8QZgsQwdvFL34w9IfvFFw4w/u6D+Fjk4XhTBREONjGB/M+JoZ5Y8mW9Djgxj/H0UpoAkX0fMfWTiWfgQQQAABBBBAAIFsBErBha65fJ8u4XR9F6XoUk4DflhjLIhRt6J2JpoYz+9nLM2vXqUwQCqNqf4vgUx1F8b2UUAHZUVzLx2JUbIDXM3F4v7yga9Kx/XRga+PJalpWRTA+2DGH/BR9KJAR8/M+EhGZZXLtMDGL4B/EEAAAQQQQAABBHIV8PGLYhDfY8GJAhkbV66RiUZolG5Qd0TRTil7OeDRgG5a+2nKFSVd65V7NWjXjuoPE4FMqEF/EwSiAzM6QC248f3RUnRs+mdkFLorgImaj+ng9v1RftXMaJwFMD6OKR/RfpzWVJEMCQEEEEAAAQQQQGBABCzAKIUpuraLViP6R+P9/6Jhq4nx13kaG4zz8/u8PavvrxX9NZ4K6z0RyPTuw9Q+CPQcgDqWFcSUCvEHq3qjET7Q1pGsiVHXamF0kKtmxtdNRtGLBTB+jnJVTLnj57MAKRrow5oyCwIIIIAAAggggEBjAqULu/i6TjPrmk4dH6iUghWNK/2vVBOjqb6JmR+vWWyeUr8Nly4Ne67rbLxfQOIfApkECIPNEKislbElJA9MBTOqhVElTYeCnei/k2hODZSbk5VrdqIMFsAor5INl4b4FwEEEEAAAQQQQKAZAmoa5lMpnikHJKVrPT/eAhhdwilY0XA0T6lX/T1/yfXTtNI1XU8gk8wTDhPIhBr0ZybQcyCWDmIdlP5gDpZQiriDETrCo9oY/8xMHMCUAhpFN6qV0WGtsnweFWBJ85IQQAABBBBAAAEE8hGILr389V60NAtuohAlGipf8ylg0f98vihPdMdaUzVP6ZrQppWGfVmJ68VSvtqbQyBT24YpGQqUDs5SgT0HpYKU0kHsp/jIRhG7xpcCGIUuPvAvDyufhS/2H40fp3lJCCCAAAIIIIAAAk0V6LmO02JKN5ltnO/qwi26LCsFMKUgJRrqNYjxJfl5FOqkT1ELHq4A03ORs1GB8PDy/Tqqy4echu3PyrVhH5aUp2uan9d3o3/Kx7iNa+yQV2kkBBBAAAEEEEAAgb4K2O1jC2AscFF5Nq4U1CQDmNISNc3+/Jjy9aHNG5ZTmqP6v9TIVHdhbBMEdHD64KPKwarF6T8KC0rULf1HEvXp/0G8bQGMD/WVL5gWDZIQQAABBBBAAAEEmijgP34ZlK+PlsfJX+cpoNFfabzvRv2WS8M2zWeMruXi4big+j3UyNQ3Ikc/BZKBRhjMqGibrm5v00p5yytj/yWUB61jZdkwXQQQQAABBBBAAIH+C9QMNMrVM+WYJQ5I4vyaUA5UbJx1awUx8fQ6q00gUweIydkIJAOM0rCi8cpARkuzvL6iRQGL7ymth00rDVX/N02e6nMyFgEEEEAAAQQQQCApkCawqMjjL/BKtTIqy6aF3dLl3RtrYixPch2qDRPIVFNhXFMEqgUYGqcDNpxm/dbVypT6o6hGgU2Uyp2K+UpT+BcBBBBAAAEEEECg2QIWcNjzMqVnAioDE8tjXa2TXfeF42xdq42zadW6/wd7aMhlLfbg0gAAAABJRU5ErkJggg==;" vertex="1" parent="1">
                    <mxGeometry x="348" y="257" width="341.97" height="352" as="geometry"/>
                </mxCell>
                <mxCell id="AhNlXJ4hRKMXUMh4VS_F-33" value="" style="edgeStyle=none;curved=1;rounded=0;sketch=1;orthogonalLoop=1;jettySize=auto;html=1;endArrow=open;sourcePerimeterSpacing=8;targetPerimeterSpacing=8;fontSize=16;fontFamily=Architects Daughter;fontSource=https%3A%2F%2Ffonts.googleapis.com%2Fcss%3Ffamily%3DArchitects%2BDaughter;startSize=14;endSize=14;exitX=0.449;exitY=-0.036;exitDx=0;exitDy=0;exitPerimeter=0;entryX=0.137;entryY=0.199;entryDx=0;entryDy=0;entryPerimeter=0;" parent="1" source="AhNlXJ4hRKMXUMh4VS_F-31" edge="1" target="2">
                    <mxGeometry width="120" relative="1" as="geometry">
                        <mxPoint x="86" y="505" as="sourcePoint"/>
                        <mxPoint x="338" y="312" as="targetPoint"/>
                        <Array as="points">
                            <mxPoint x="182" y="375"/>
                        </Array>
                    </mxGeometry>
                </mxCell>
            </root>
        </mxGraphModel>
    </diagram>
</mxfile>